<svg width="334" height="250" viewBox="0 0 334 250" fill="none" xmlns="http://www.w3.org/2000/svg">
<path d="M248.482 223.264H56.3983L42.5557 227.986H263.366L248.482 223.264Z" fill="#3C6C9F"/>
<path d="M167.949 220.626C167.949 220.626 259.384 232.732 275.333 157.639C291.282 82.5469 243.181 79.3061 206.954 73.3107C170.727 67.3154 136.329 23.658 113.991 26.158C91.6528 28.658 54.0371 60.4635 65.7501 107.315C77.463 154.167 104.176 206.922 167.949 220.626Z" fill="#306966"/>
<path d="M213.389 53.7048C212.972 57.1076 210.195 68.3576 198.62 65.8807C187.046 63.4039 150.032 44.1215 152.764 37.8715C155.495 31.6215 177.972 37.0381 188.296 37.0381C198.62 37.0381 215.403 37.1539 213.389 53.7048Z" fill="#306966"/>
<path d="M166.282 219.908C166.282 219.908 257.718 232.014 273.667 156.921C289.616 81.8288 241.514 78.588 205.287 72.5927C169.06 66.5742 134.685 22.963 112.324 25.4399C89.963 27.9167 52.3704 59.7455 64.0833 106.597C75.7963 153.449 102.509 206.227 166.282 219.908Z" fill="url(#paint0_linear_605_1961)"/>
<path d="M211.722 52.9856C211.306 56.3883 208.528 67.6383 196.954 65.1615C185.38 62.6846 148.366 43.4022 151.097 37.1522C153.829 30.9022 176.306 36.3189 186.63 36.3189C196.954 36.3189 213.736 36.4346 211.722 52.9856Z" fill="#80CFCE"/>
<g opacity="0.45">
<path opacity="0.45" d="M198.273 85.8328V90.7634H202.556V95.1152H198.273V104.12V110.023V119.143V131.087V139.56H187.069L186.769 139.791H169.361L169.685 139.56H160.75V145.486H203.25V72.6152C201.583 72.268 199.94 71.8513 198.273 71.3652V77.8004V85.8328Z" fill="#698190"/>
<path opacity="0.45" d="M151.792 40.3936C152.625 41.6204 154.014 43.0093 155.843 44.5139V40.3936H151.792Z" fill="#698190"/>
<path opacity="0.45" d="M160.75 40.3936V46.3195H192.694H198.273V51.8519V65.8102C200.171 66.0648 201.815 65.926 203.25 65.5093V40.3936H160.75Z" fill="#698190"/>
<path opacity="0.45" d="M110.31 46.3195V40.3936H84.0602C82.0694 42.2223 80.1481 44.1898 78.2963 46.3195H108.898H110.31Z" fill="#698190"/>
<path opacity="0.45" d="M148.134 139.792L148.458 139.56H131.722L131.398 139.792H122.556L122.857 139.56H115.195V145.463H155.866V139.792H148.134Z" fill="#698190"/>
<path opacity="0.45" d="M115.195 46.3195H119.176H129.153H148.458H153.736C150.889 44.3056 148.111 42.3148 145.38 40.3936H115.195V46.3195Z" fill="#698190"/>
<path opacity="0.45" d="M110.31 139.792H74.8704C75.6805 141.69 76.4907 143.588 77.3704 145.486H110.31V139.792Z" fill="#698190"/>
<path opacity="0.45" d="M70.1019 101.203V95.092H66.5371V90.7402H70.1019V87.6383V80.6244V73.2402V57.9624C68.4815 60.9022 67.0232 64.0041 65.8427 67.268V113.495C67.1158 118.055 68.5278 122.661 70.1019 127.245V108.101V101.203Z" fill="#698190"/>
<path opacity="0.45" d="M108.898 46.3198H78.2963C75.2639 49.8152 72.4861 53.7272 70.1019 58.0096V73.2874L108.898 46.3198Z" fill="#88D3DB"/>
<path opacity="0.45" d="M198.273 46.3198H192.695L177.162 57.5235C179.847 58.8661 182.509 60.1393 185.032 61.2504L198.273 51.8522V46.3198Z" fill="#88D3DB"/>
<path opacity="0.45" d="M155.866 122.175L131.722 139.56H148.458L155.866 134.282V122.175Z" fill="#88D3DB"/>
<path opacity="0.45" d="M110.31 73.0322L85.0324 90.7637H94.5463L110.31 79.5369V73.0322Z" fill="#88D3DB"/>
<path opacity="0.45" d="M160.75 112.569L185.264 95.0918H174.361L160.75 104.953V112.569Z" fill="#88D3DB"/>
<path opacity="0.45" d="M115.195 56.0883L129.153 46.3198H119.176L115.195 49.0976V56.0883Z" fill="#88D3DB"/>
<path opacity="0.45" d="M110.31 52.5229L70.1019 80.6479V87.6387L110.31 59.4905V52.5229Z" fill="#88D3DB"/>
<path opacity="0.45" d="M70.1019 101.203V108.147L88.4584 95.0918H78.8287L70.1019 101.203Z" fill="#88D3DB"/>
<path opacity="0.45" d="M155.866 108.496L115.195 137.94V139.56H122.857L155.866 116.042V108.496Z" fill="#88D3DB"/>
<path opacity="0.45" d="M198.273 139.56V131.087L187.07 139.56H198.273Z" fill="#88D3DB"/>
<path opacity="0.45" d="M115.195 69.63V76.0652L155.357 47.4772C154.801 47.0837 154.269 46.7133 153.736 46.3198H148.458L115.195 69.63Z" fill="#88D3DB"/>
<path opacity="0.45" d="M160.75 139.561H169.708L198.273 119.121V110L160.75 137.084V139.561Z" fill="#88D3DB"/>
<path opacity="0.45" d="M125.079 95.0918L115.195 102.245V110.786L137.301 95.0918H125.079Z" fill="#88D3DB"/>
<path opacity="0.45" d="M160.75 118.657V130.809L198.273 104.096V95.0918H193.435L160.75 118.657Z" fill="#88D3DB"/>
<path opacity="0.45" d="M110.31 105.764L72.2546 133.217C73.0417 135.301 73.875 137.407 74.7546 139.467L110.31 114.236V105.764Z" fill="#88D3DB"/>
<path opacity="0.45" d="M160.75 78.4718L181.051 64.0737C178.62 62.7774 176.236 61.3885 173.852 59.9302L160.75 69.3746V78.4718Z" fill="#88D3DB"/>
<path opacity="0.45" d="M198.273 85.8337V77.8013L180.357 90.7642H191.352L198.273 85.8337Z" fill="#88D3DB"/>
<path opacity="0.45" d="M155.866 81.9208V72.8931L131.097 90.7634H143.412L155.866 81.9208Z" fill="#88D3DB"/>
<path opacity="0.45" d="M119.176 46.3198H115.195V49.0976L119.176 46.3198Z" fill="#88D3DB"/>
<path opacity="0.45" d="M119.176 46.3198H115.195V49.0976L119.176 46.3198Z" fill="white"/>
<path opacity="0.45" d="M110.31 46.3198H108.898L70.1019 73.2643V80.6485L110.31 52.5235V46.3198Z" fill="#88D3DB"/>
<path opacity="0.45" d="M110.31 46.3198H108.898L70.1019 73.2643V80.6485L110.31 52.5235V46.3198Z" fill="white"/>
<path opacity="0.45" d="M115.195 69.63L148.458 46.3198H129.153L115.195 56.0883V69.63Z" fill="#88D3DB"/>
<path opacity="0.45" d="M115.195 69.63L148.458 46.3198H129.153L115.195 56.0883V69.63Z" fill="white"/>
<path opacity="0.45" d="M70.1019 95.0918V101.203L78.8287 95.0918H70.1019Z" fill="#88D3DB"/>
<path opacity="0.45" d="M70.1019 95.0918V101.203L78.8287 95.0918H70.1019Z" fill="white"/>
<path opacity="0.45" d="M110.31 73.0324V59.4907L70.1019 87.6389V90.7639H85.0324L110.31 73.0324Z" fill="#88D3DB"/>
<path opacity="0.45" d="M110.31 73.0324V59.4907L70.1019 87.6389V90.7639H85.0324L110.31 73.0324Z" fill="white"/>
<path opacity="0.45" d="M94.5463 90.764H110.31V79.5371L94.5463 90.764Z" fill="#88D3DB"/>
<path opacity="0.45" d="M94.5463 90.764H110.31V79.5371L94.5463 90.764Z" fill="white"/>
<path opacity="0.45" d="M115.195 90.7641H131.097L155.866 72.8937V47.8243C155.704 47.7085 155.542 47.5928 155.38 47.4771L115.195 76.065V90.7641Z" fill="#88D3DB"/>
<path opacity="0.45" d="M115.195 90.7641H131.097L155.866 72.8937V47.8243C155.704 47.7085 155.542 47.5928 155.38 47.4771L115.195 76.065V90.7641Z" fill="white"/>
<path opacity="0.45" d="M110.31 95.0918H88.4583L70.125 108.147V127.291C70.8194 129.258 71.5139 131.249 72.2778 133.217L110.333 105.763V95.0918H110.31Z" fill="#88D3DB"/>
<path opacity="0.45" d="M110.31 95.0918H88.4583L70.125 108.147V127.291C70.8194 129.258 71.5139 131.249 72.2778 133.217L110.333 105.763V95.0918H110.31Z" fill="white"/>
<path opacity="0.45" d="M173.852 59.9069C169.384 57.1754 165.009 54.2356 160.75 51.2495V69.3513L173.852 59.9069Z" fill="#88D3DB"/>
<path opacity="0.45" d="M173.852 59.9069C169.384 57.1754 165.009 54.2356 160.75 51.2495V69.3513L173.852 59.9069Z" fill="white"/>
<path opacity="0.45" d="M160.75 46.3198V48.1022C165.472 51.2735 171.375 54.63 177.185 57.5235L192.718 46.3198H160.75Z" fill="#88D3DB"/>
<path opacity="0.45" d="M160.75 46.3198V48.1022C165.472 51.2735 171.375 54.63 177.185 57.5235L192.718 46.3198H160.75Z" fill="white"/>
<path opacity="0.45" d="M115.195 95.0918V102.245L125.079 95.0918H115.195Z" fill="#88D3DB"/>
<path opacity="0.45" d="M115.195 95.0918V102.245L125.079 95.0918H115.195Z" fill="white"/>
<path opacity="0.45" d="M110.31 139.56H74.7778C74.8009 139.63 74.8472 139.722 74.8704 139.792H110.31V139.56Z" fill="#698190"/>
<path opacity="0.45" d="M110.31 139.56H74.7778C74.8009 139.63 74.8472 139.722 74.8704 139.792H110.31V139.56Z" fill="white"/>
<path opacity="0.45" d="M110.31 114.236L74.7546 139.467C74.7546 139.49 74.7778 139.514 74.7778 139.537H110.31V114.236Z" fill="#88D3DB"/>
<path opacity="0.45" d="M110.31 114.236L74.7546 139.467C74.7546 139.49 74.7778 139.514 74.7778 139.537H110.31V114.236Z" fill="white"/>
<path opacity="0.45" d="M185.032 61.2268C189.894 63.3795 194.176 64.9536 197 65.5555C197.44 65.6481 197.88 65.7175 198.296 65.787V51.8286L185.032 61.2268Z" fill="#88D3DB"/>
<path opacity="0.45" d="M185.032 61.2268C189.894 63.3795 194.176 64.9536 197 65.5555C197.44 65.6481 197.88 65.7175 198.296 65.787V51.8286L185.032 61.2268Z" fill="white"/>
<path opacity="0.45" d="M160.75 90.7636H180.356L198.273 77.8006V71.3654C192.44 69.6524 186.699 67.1061 181.051 64.0737L160.75 78.4719V90.7636Z" fill="#88D3DB"/>
<path opacity="0.45" d="M160.75 90.7636H180.356L198.273 77.8006V71.3654C192.44 69.6524 186.699 67.1061 181.051 64.0737L160.75 78.4719V90.7636Z" fill="white"/>
<path opacity="0.45" d="M155.866 81.9209L143.412 90.7635H155.866V81.9209Z" fill="#88D3DB"/>
<path opacity="0.45" d="M155.866 81.9209L143.412 90.7635H155.866V81.9209Z" fill="white"/>
<path opacity="0.45" d="M155.866 95.0918H137.301L115.195 110.786V137.939L155.866 108.495V95.0918Z" fill="#88D3DB"/>
<path opacity="0.45" d="M155.866 95.0918H137.301L115.195 110.786V137.939L155.866 108.495V95.0918Z" fill="white"/>
<path opacity="0.45" d="M174.361 95.0918H160.75V104.953L174.361 95.0918Z" fill="#88D3DB"/>
<path opacity="0.45" d="M174.361 95.0918H160.75V104.953L174.361 95.0918Z" fill="white"/>
<path opacity="0.45" d="M122.555 139.792H131.398L131.722 139.56H122.856L122.555 139.792Z" fill="#698190"/>
<path opacity="0.45" d="M122.555 139.792H131.398L131.722 139.56H122.856L122.555 139.792Z" fill="white"/>
<path opacity="0.45" d="M160.75 118.657L193.435 95.0918H185.264L160.75 112.569V118.657Z" fill="#88D3DB"/>
<path opacity="0.45" d="M160.75 118.657L193.435 95.0918H185.264L160.75 112.569V118.657Z" fill="white"/>
<path opacity="0.45" d="M198.273 90.7636V85.833L191.352 90.7636H198.273Z" fill="#88D3DB"/>
<path opacity="0.45" d="M198.273 90.7636V85.833L191.352 90.7636H198.273Z" fill="white"/>
<path opacity="0.45" d="M155.866 116.041L122.857 139.56H131.722L155.866 122.175V116.041Z" fill="#88D3DB"/>
<path opacity="0.45" d="M155.866 116.041L122.857 139.56H131.722L155.866 122.175V116.041Z" fill="white"/>
<path opacity="0.45" d="M169.384 139.792H186.769L187.069 139.56H169.708L169.384 139.792Z" fill="#698190"/>
<path opacity="0.45" d="M169.384 139.792H186.769L187.069 139.56H169.708L169.384 139.792Z" fill="white"/>
<path opacity="0.45" d="M187.069 139.56L198.273 131.088V119.121L169.708 139.56H187.069Z" fill="#88D3DB"/>
<path opacity="0.45" d="M187.069 139.56L198.273 131.088V119.121L169.708 139.56H187.069Z" fill="white"/>
<path opacity="0.45" d="M148.458 139.56L148.134 139.792H155.866V139.56H148.458Z" fill="#698190"/>
<path opacity="0.45" d="M148.458 139.56L148.134 139.792H155.866V139.56H148.458Z" fill="white"/>
<path opacity="0.45" d="M160.75 137.084L198.273 110V104.098L160.75 130.811V137.084Z" fill="#88D3DB"/>
<path opacity="0.45" d="M160.75 137.084L198.273 110V104.098L160.75 130.811V137.084Z" fill="white"/>
<path opacity="0.45" d="M155.866 134.283L148.458 139.56H155.866V134.283Z" fill="#88D3DB"/>
<path opacity="0.45" d="M155.866 134.283L148.458 139.56H155.866V134.283Z" fill="white"/>
<path opacity="0.45" d="M115.194 40.3936H110.31V46.3195H115.194V40.3936Z" fill="#698190"/>
<path opacity="0.45" d="M112.949 139.56L112.648 139.792H110.31V145.463H115.194V139.56H112.949Z" fill="#698190"/>
<path opacity="0.45" d="M112.949 139.56H115.195V137.939L112.949 139.56Z" fill="#698190"/>
<path opacity="0.45" d="M110.31 79.5363L115.194 76.0641V69.6289L110.31 73.0317V79.5363Z" fill="#698190"/>
<path opacity="0.45" d="M115.194 102.246L110.31 105.764V114.236L115.194 110.787V102.246Z" fill="#698190"/>
<path opacity="0.45" d="M115.194 49.0972L110.31 52.5231V59.4907L115.194 56.0879V49.0972Z" fill="#698190"/>
<path opacity="0.45" d="M115.194 49.0976V46.3198H110.31V52.5235L115.194 49.0976Z" fill="#698190"/>
<path opacity="0.45" d="M110.31 59.4902V73.0318L115.194 69.6291V56.0874L110.31 59.4902Z" fill="#698190"/>
<path opacity="0.45" d="M110.31 90.764H115.194V76.0649L110.31 79.5372V90.764Z" fill="#698190"/>
<path opacity="0.45" d="M115.194 95.0918H110.31V105.763L115.194 102.245V95.0918Z" fill="#698190"/>
<path opacity="0.45" d="M112.949 139.56H110.31V139.792H112.648L112.949 139.56Z" fill="#698190"/>
<path opacity="0.45" d="M115.194 137.94V110.787L110.31 114.236V139.56H112.949L115.194 137.94Z" fill="#698190"/>
<path opacity="0.45" d="M160.75 40.3936H155.866V44.5139C156.583 45.0926 157.37 45.6945 158.204 46.3195H160.75V40.3936Z" fill="#698190"/>
<path opacity="0.45" d="M157.301 139.56L157 139.792H155.866V145.463H160.75V139.56H157.301Z" fill="#698190"/>
<path opacity="0.45" d="M160.75 78.4727V69.3755L155.866 72.894V81.9218L160.75 78.4727Z" fill="#698190"/>
<path opacity="0.45" d="M160.75 104.954L155.866 108.495V116.042L160.75 112.569V104.954Z" fill="#698190"/>
<path opacity="0.45" d="M157.301 139.561H160.75V137.084L157.301 139.561Z" fill="#698190"/>
<path opacity="0.45" d="M155.866 134.283L160.75 130.81V118.658L155.866 122.176V134.283Z" fill="#698190"/>
<path opacity="0.45" d="M160.75 69.3751V51.2733C159.107 50.1159 157.486 48.9816 155.866 47.8242V72.8937L160.75 69.3751Z" fill="#698190"/>
<path opacity="0.45" d="M158.204 46.3198C159.014 46.8985 159.847 47.5004 160.75 48.1022V46.3198H158.204Z" fill="#698190"/>
<path opacity="0.45" d="M160.75 104.953V95.0918H155.866V108.495L160.75 104.953Z" fill="#698190"/>
<path opacity="0.45" d="M155.866 90.7638H160.75V78.4722L155.866 81.9212V90.7638Z" fill="#698190"/>
<path opacity="0.45" d="M155.866 116.041V122.175L160.75 118.657V112.569L155.866 116.041Z" fill="#698190"/>
<path opacity="0.45" d="M155.866 139.792H157L157.301 139.56H155.866V139.792Z" fill="#698190"/>
<path opacity="0.45" d="M160.75 130.811L155.866 134.283V139.561H157.301L160.75 137.084V130.811Z" fill="#698190"/>
<path opacity="0.45" d="M207.787 145.463H203.25H160.75H155.866H115.194H110.31H77.3704C78.25 147.384 79.1528 149.282 80.125 151.18H207.787V145.463Z" fill="#31464C"/>
<path opacity="0.45" d="M198.273 95.0929H202.556V90.7642H198.273V91.6206V95.0929Z" fill="#698190"/>
<path opacity="0.45" d="M70.1019 90.7642H66.537V95.116H70.1019V90.7642Z" fill="#698190"/>
<path opacity="0.45" d="M185.264 95.0929L191.352 90.7642H180.357L174.361 95.0929H185.264Z" fill="#698190"/>
<path opacity="0.45" d="M137.301 95.0929L143.412 90.7642H131.097L125.079 95.0929H137.301Z" fill="#698190"/>
<path opacity="0.45" d="M193.435 95.0919H198.273V91.6196L193.435 95.0919Z" fill="#698190"/>
<path opacity="0.45" d="M85.0324 90.7642L78.8287 95.0929H88.4584L94.5463 90.7642H85.0324Z" fill="#698190"/>
<path opacity="0.45" d="M85.0324 90.7642H70.1019V95.0929H78.8287L85.0324 90.7642Z" fill="#698190"/>
<path opacity="0.45" d="M94.5463 90.7642L88.4584 95.0929H110.31V90.7642H94.5463Z" fill="#698190"/>
<path opacity="0.45" d="M125.079 95.0929L131.097 90.7642H115.195V95.0929H125.079Z" fill="#698190"/>
<path opacity="0.45" d="M155.866 90.7642H143.412L137.301 95.0929H155.866V90.7642Z" fill="#698190"/>
<path opacity="0.45" d="M174.361 95.0929L180.356 90.7642H160.75V95.0929H174.361Z" fill="#698190"/>
<path opacity="0.45" d="M185.264 95.0929H193.435L198.273 91.6206V90.7642H191.352L185.264 95.0929Z" fill="#698190"/>
<path opacity="0.45" d="M115.194 90.7642H110.31V95.116H115.194V90.7642Z" fill="#698190"/>
<path opacity="0.45" d="M160.75 90.7642H155.866V95.116H160.75V90.7642Z" fill="#698190"/>
<path opacity="0.57" d="M207.787 151.181H80.1019C81.375 153.704 82.6945 156.181 84.0833 158.634H211.676L207.787 151.181Z" fill="#203762"/>
</g>
<path d="M73.5277 127.985C73.6203 128.055 72.1851 143.055 59.2916 142.383C46.375 141.712 73.5277 127.985 73.5277 127.985Z" fill="#F28431"/>
<path d="M44.0371 120.926C44.1066 120.833 58.7593 123.657 56.9075 136.597C55.0325 149.537 44.0371 120.926 44.0371 120.926Z" fill="#F28431"/>
<path d="M33.4583 143.958C33.3889 143.865 41.537 131.226 52.6713 137.87C63.8056 144.536 33.4583 143.958 33.4583 143.958Z" fill="#F28431"/>
<path d="M64.801 198.703H64.5695V183.402C64.5695 183.147 63.5741 157.777 62.5787 151.712C61.5834 145.693 55.125 140.115 55.0787 140.068L55.2408 139.883C55.3102 139.93 61.8148 145.555 62.8334 151.689C63.8287 157.777 64.8241 183.17 64.8241 183.425L64.801 198.703Z" fill="#F28431"/>
<path d="M62.625 149.005C61.8611 148.333 61.1898 147.685 60.7037 147.222C61.0047 147.778 61.6297 148.356 62.625 149.005Z" fill="#F28431"/>
<path d="M74.3611 149.236C78.3426 148.263 84.9398 144.768 88.5278 142.777C88.9213 142.291 89.1065 141.99 89.1065 141.99C89.1065 141.99 59.338 141.643 60.5185 146.759C62.5556 147.638 69.5694 150.393 74.3611 149.236Z" fill="#F28431"/>
<path d="M62.0463 149.259C61.7685 147.754 60.3333 147.477 57.1851 149.236C42.8564 157.153 49.7777 175.139 49.9398 175.139C49.9398 175.139 50.1481 174.815 50.4953 174.259C52.0925 168.009 56.3981 153.009 62.0463 149.259Z" fill="#F28431"/>
<path d="M53.0879 147.522C56.3055 144.999 56.9305 142.939 57.0231 142.499C56.5601 142.43 55.9814 142.406 55.3101 142.43C42.3935 142.731 42.0694 157.823 42.162 157.869C42.162 157.869 42.5555 157.638 43.2268 157.221C45.4027 154.883 50.3333 149.698 53.0879 147.522Z" fill="#F28431"/>
<path d="M82.6712 160.809C82.6712 160.809 82.6481 160.832 82.6712 160.809C82.6481 160.832 82.6712 160.832 82.6712 160.809Z" fill="#F28431"/>
<path d="M62.0464 149.258C56.3982 153.008 52.0926 167.985 50.4954 174.258C52.9723 170.277 62.9491 153.911 62.0464 149.258Z" fill="#D86D27"/>
<path d="M62.7176 152.893C62.6945 152.847 62.6713 152.824 62.6482 152.801C62.7408 153.356 62.9954 154.074 63.3889 154.93C68.7824 166.504 82.0463 161.204 82.6482 160.856C82.6713 160.856 82.6713 160.833 82.6713 160.833C82.6713 160.833 64.4306 155.694 62.7176 152.893Z" fill="#D86D27"/>
<path d="M57.0463 142.5C56.9537 142.94 56.3287 145 53.1111 147.523C50.3333 149.699 45.4259 154.861 43.2731 157.199C47.7176 154.398 64.4769 143.565 57.0463 142.5Z" fill="#D86D27"/>
<path d="M88.5278 142.777C84.9398 144.768 78.3426 148.263 74.3611 149.235C69.5694 150.393 62.5787 147.638 60.5185 146.758C60.5648 146.92 60.6111 147.082 60.7037 147.244C61.1898 147.707 61.8842 148.332 62.625 149.027C62.9028 149.212 63.2037 149.397 63.5509 149.582C75.912 156.527 86.0741 145.856 88.5278 142.777Z" fill="#D86D27"/>
<path d="M71.3749 153.657C68.8749 152.291 66.4675 151.203 64.824 150.925C63.2731 150.671 62.3703 151.133 62.6712 152.8C62.6944 152.823 62.7175 152.87 62.7407 152.893C64.4536 155.694 82.6944 160.833 82.6944 160.833C82.6944 160.833 76.7684 156.596 71.3749 153.657Z" fill="#F28431"/>
<path d="M73.5278 199.513L73.25 202.569L71.2593 224.93H58.088L56.0741 202.569L55.8195 199.513H73.5278Z" fill="#4D60AB"/>
<path d="M73.5278 199.513L73.25 202.569H56.0741L55.8195 199.513H73.5278Z" fill="#273B72"/>
<path d="M74.1991 197.592H55.1251V201.203H74.1991V197.592Z" fill="#4D60AB"/>
<path opacity="0.55" d="M73.3889 201.18H64.4538C64.4538 201.18 66.7454 209.074 64.0602 214.351C61.375 219.629 58.088 224.93 58.088 224.93H71.2593L73.3889 201.18Z" fill="#1C2D56"/>
<path d="M251.977 214.213C251.537 213.449 249.176 213.796 246.977 214.143C246.236 214.259 245.634 214.189 245.125 214.027C245.496 216.527 243.528 219.189 242.185 220.023C241.213 220.625 240.982 221.597 240.959 222.291C241.746 222.361 243.759 222.615 245.426 223.078C246.885 222.893 248.227 222.592 248.574 222.245C248.829 221.99 249.732 220.856 250.727 219.56C251.167 218.588 251.653 217.523 252 216.805C252.764 215.231 252.417 214.976 251.977 214.213ZM244.894 218.217C243.991 220.046 243.227 220.532 242.579 220.995C241.931 221.458 241.213 221.828 241.213 221.828C241.213 221.828 241.607 220.648 242.371 220.347C243.134 220.023 244.107 218.564 244.547 218.055C244.963 217.5 245.797 216.388 244.894 218.217ZM249.107 220.347C248.667 220.856 248.273 221.273 248.042 221.435C247.695 221.666 246.931 221.944 246.329 222.152C246.028 222.268 245.727 222.361 245.38 222.453C245.38 222.453 245.797 222.338 246.329 222.152C247.486 221.689 248.412 221.018 249.107 220.347C249.917 219.398 250.82 218.217 250.82 218.217C250.82 218.217 250.264 219.282 249.107 220.347Z" fill="#414C5C"/>
<path d="M241.028 223.264L242.162 223.241C243.065 223.31 244.269 223.264 245.403 223.125C243.736 222.639 241.745 222.407 240.935 222.338C240.935 222.87 241.028 223.264 241.028 223.264Z" fill="#1E2733"/>
<path d="M253.042 214.19C252.764 213.403 250.356 210.717 250.356 210.717C250.356 210.717 242.231 209.375 244.361 212.245C244.778 212.801 245.009 213.426 245.102 214.028C245.611 214.166 246.236 214.259 246.954 214.143C249.153 213.796 251.514 213.426 251.954 214.213C252.393 215 252.741 215.231 251.954 216.852C251.606 217.569 251.12 218.657 250.68 219.606C252.116 217.731 253.69 215.532 253.69 215.231C253.713 214.722 253.042 214.19 253.042 214.19Z" fill="#1E2733"/>
<path d="M250.843 218.217C250.843 218.217 249.94 219.397 249.13 220.346C250.264 219.282 250.843 218.217 250.843 218.217Z" fill="#1E2733"/>
<path d="M248.065 221.435C248.296 221.296 248.69 220.856 249.13 220.347C248.412 221.018 247.486 221.69 246.352 222.13C246.954 221.944 247.695 221.667 248.065 221.435Z" fill="#1E2733"/>
<path d="M246.352 222.13C245.843 222.292 245.403 222.431 245.403 222.431C245.727 222.361 246.051 222.246 246.352 222.13Z" fill="#1E2733"/>
<path d="M244.523 218.032C244.083 218.564 243.111 220.023 242.347 220.324C241.583 220.648 241.19 221.805 241.19 221.805C241.19 221.805 241.908 221.435 242.556 220.972C243.204 220.509 243.968 220.046 244.871 218.194C245.796 216.388 244.963 217.5 244.523 218.032Z" fill="#616F7F"/>
<path d="M235.773 217.5C235.912 216.042 236.306 215.046 236.653 214.468C236.352 213.565 236.144 212.94 236.144 212.94C236.144 212.94 231.583 212.685 230.704 216.25C229.824 219.815 226.56 220.255 224.477 220.625C222.37 221.019 221.954 223.264 221.954 223.264C221.954 223.264 233.921 222.477 235.495 221.459C237.046 220.463 235.542 220.07 235.773 217.5ZM228.968 219.746C228.875 219.838 228.644 219.931 228.32 220.046C227.556 220.463 226.306 221.134 225.38 221.435C223.898 221.921 222.671 222.292 222.671 222.292C222.671 222.292 223.852 220.857 225.565 220.625C226.699 220.486 227.695 220.255 228.32 220.046C228.806 219.792 229.083 219.653 228.968 219.746Z" fill="#414C5C"/>
<path d="M238.042 221.343C238.296 219.931 237.301 216.482 236.63 214.468C236.306 215.046 235.889 216.042 235.75 217.5C235.519 220.07 237.023 220.463 235.449 221.459C233.875 222.454 221.908 223.264 221.908 223.264H238.065L238.042 221.343Z" fill="#1E2733"/>
<path d="M222.671 222.292C222.671 222.292 223.921 221.945 225.38 221.436C226.306 221.135 227.556 220.44 228.319 220.047C227.694 220.255 226.699 220.487 225.565 220.626C223.852 220.857 222.671 222.292 222.671 222.292Z" fill="#616F7F"/>
<path d="M228.32 220.047C228.644 219.931 228.875 219.838 228.968 219.746C229.083 219.653 228.806 219.792 228.32 220.047Z" fill="#616F7F"/>
<path d="M251.005 210.579C251.005 210.579 243.528 183.936 243.528 181.667C243.528 179.375 239.361 170 239.361 170L243.297 158.172L233.667 134.213L223.204 136.019C223.204 136.019 223.019 160.255 224.037 164.213C224.408 165.672 225.797 170.232 227.417 175.417L233.597 171.25C233.597 171.25 237.463 188.264 237.718 190.857C237.949 193.45 243.621 199.375 245.519 203.519C246.908 206.528 247.139 211.25 247.185 213.588C248.76 213.241 250.357 212.431 251.005 210.579Z" fill="#141D45"/>
<path d="M237.718 190.857C237.486 188.264 233.598 171.25 233.598 171.25L227.417 175.417C230.195 184.352 233.598 195.116 233.598 195.116L243.412 213.704C243.412 213.704 245.264 213.982 247.162 213.565C247.139 211.227 246.885 206.528 245.496 203.496C243.621 199.375 237.949 193.45 237.718 190.857Z" fill="#2F64A4"/>
<path d="M229.199 191.69C228.968 188.379 226.144 182.778 225.38 181.319C224.593 179.861 222.463 178.032 226.144 176.111C229.801 174.19 233.667 172.778 235.218 169.93C236.769 167.083 239.014 153.727 244.685 151.597C250.357 149.467 252.255 139.768 252.255 139.768C252.255 139.768 236.445 145.231 228.204 138.657C227.093 143.264 221.491 166.551 219.847 172.801C218.042 179.745 229.778 216.782 229.778 216.782C229.778 216.782 232.139 216.366 234.523 215.532C235.565 215.162 236.236 214.421 236.63 213.68C235.241 211.736 232.463 207.778 231.422 205.856C230.033 203.287 229.454 195 229.199 191.69Z" fill="#3667B0"/>
<path d="M231.699 176.921C231.699 176.921 234.061 173.079 235.611 171.181C237.162 169.283 243.875 160.533 248.783 155.347C253.69 150.139 252.695 135.44 252.695 135.44L228.436 137.894C228.436 137.894 228.366 138.171 228.25 138.681C236.468 145.255 252.301 139.792 252.301 139.792C252.301 139.792 250.403 149.491 244.732 151.621C239.061 153.75 236.815 167.107 235.264 169.954C233.713 172.801 229.848 174.213 226.19 176.134C222.533 178.056 224.662 179.884 225.426 181.343C226.213 182.801 229.014 188.403 229.246 191.713C229.477 195.023 230.079 203.287 231.491 205.903C232.533 207.824 235.311 211.783 236.699 213.727C237.209 212.801 237.324 211.921 237.324 211.921L231.699 176.921Z" fill="#194788"/>
<path d="M221.283 173.311C221.283 173.311 227.44 150.301 228.852 149.514C230.264 148.727 226.329 166.435 221.283 173.311Z" fill="#5189C7"/>
<path d="M221.26 181.736C221.144 182.222 227.556 212.569 230.611 213.819C233.667 215.069 221.26 181.736 221.26 181.736Z" fill="#5189C7"/>
<path d="M252.093 122.014C251.861 119.213 252 114.815 252.07 113.079C251.63 113.287 251.213 113.449 250.866 113.565C248.273 114.445 236.699 118.936 234.454 118.959C234.454 118.959 233.273 119.028 232.972 117.338C232.671 115.672 232.602 113.426 232.602 113.426C232.602 113.426 247.486 104.445 248.736 104.723L247.44 99.6763C247.44 99.6763 246.306 102.778 245.31 104.908C244.315 107.037 234.315 111.088 229.57 112.593C224.824 114.098 225.496 109.422 223.921 108.403C223.736 108.287 223.551 108.102 223.343 107.894C222.394 106.829 221.352 104.815 220.773 103.565C220.542 103.264 220.38 102.894 220.287 102.5C220.287 102.477 220.287 102.477 220.287 102.477C220.264 102.408 220.264 102.361 220.241 102.292C220.357 103.843 221.792 106.922 223.204 109.908C224.593 112.848 225.959 115.695 226.005 116.875C226.005 116.922 226.005 116.968 226.005 117.014C226.375 116.598 226.746 116.436 227.139 116.574C227.139 116.574 232.509 119.769 235.611 119.422C238.713 119.074 239.801 118.426 242.857 118.125C245.889 117.824 247.278 117.061 247.162 119.653C247.046 122.246 243.25 122.246 242.486 126.204C241.722 130.162 242.255 132.871 240.009 134.213C237.764 135.556 227.648 136.621 221.167 135.371C221.167 135.371 225.195 136.551 227.371 137.5C229.546 138.449 236.653 139.931 242.209 140.625C247.764 141.32 253.667 135.486 253.667 135.486C253.667 135.486 252.371 125.556 252.093 122.014Z" fill="#A41D36"/>
<path d="M229.547 87.3843C229.477 88.125 229.639 90.0926 233.111 90.3241C235.31 90.463 236.885 88.9815 237.88 87.5C237.787 87.5232 237.718 87.5463 237.625 87.5695C234.593 88.3334 231.653 87.8472 229.547 87.3843Z" fill="white"/>
<path d="M224.755 87.6167C225.82 88.2186 228.088 87.5936 229.107 87.2695C229.037 87.2464 228.945 87.2232 228.875 87.2232C227.857 86.9917 226.213 87.2695 224.755 87.6167Z" fill="white"/>
<path d="M239.269 84.769C238.644 83.0329 235.912 83.357 235.912 83.357L227.533 83.681C227.533 83.681 224.685 83.7505 224.222 86.0884C224.5 85.8107 224.801 85.6023 225.148 85.5329C227.139 85.0005 239.269 84.769 239.269 84.769Z" fill="white"/>
<path d="M224.755 87.6163C226.236 87.269 227.88 86.9913 228.875 87.2227C228.945 87.2459 229.037 87.269 229.107 87.269C229.408 87.1764 229.593 87.107 229.593 87.107C229.593 87.107 229.57 87.1996 229.547 87.3848C231.653 87.8477 234.593 88.357 237.648 87.57C237.741 87.5468 237.81 87.5237 237.903 87.5005C238.852 86.1348 239.292 84.769 239.292 84.769C239.292 84.769 227.162 85.0005 225.172 85.5329C224.824 85.6255 224.523 85.8339 224.246 86.0885C224.222 86.2042 224.199 86.3431 224.199 86.4588C224.153 87.0607 224.361 87.4079 224.755 87.6163Z" fill="white"/>
<path d="M221.19 92.0371C220.472 93.6343 219.709 95.4167 219.292 96.6667C217.857 100.972 213.783 108.032 213.783 108.032C213.783 108.032 211.792 106.829 209.778 105.857C207.764 104.884 201.908 102.732 201.908 102.732C201.908 102.732 198.412 106.921 199.315 108.032C199.616 108.403 201.167 109.607 203.134 111.019C206.699 111.644 214.084 112.245 215.912 113.032C218.158 113.982 218.69 108.843 218.459 105.347C218.273 102.801 220.172 95.6482 221.19 92.0371Z" fill="#C6203A"/>
<path d="M254.083 92.8709C252.486 89.8616 249.685 87.2227 249.685 87.2227C249.037 86.5977 247.023 86.0422 244.963 85.6487C242.185 85.0931 239.269 84.769 239.269 84.769C239.269 84.769 238.829 86.1348 237.88 87.5005C236.884 88.982 235.31 90.4635 233.111 90.3246C229.639 90.0931 229.477 88.1024 229.546 87.3848C229.569 87.2227 229.593 87.107 229.593 87.107C229.593 87.107 229.407 87.1764 229.107 87.269C228.111 87.5931 225.819 88.195 224.755 87.6163C224.384 87.4079 224.153 87.0376 224.199 86.4589C224.199 86.32 224.222 86.2042 224.245 86.0885C223.759 86.5746 223.366 87.2922 223.065 88.0561C222.509 89.445 222.185 90.9959 222.046 91.5746C221.792 92.6394 220.056 99.5607 220.171 101.852C220.171 102.014 220.195 102.153 220.218 102.292C220.218 102.362 220.241 102.408 220.264 102.477C220.264 102.477 220.264 102.477 220.264 102.501C220.357 102.894 220.519 103.264 220.75 103.565C221.329 104.815 222.37 106.829 223.319 107.894C223.505 108.102 223.713 108.288 223.898 108.403C225.472 109.445 224.778 114.098 229.546 112.593C234.315 111.088 244.315 107.038 245.287 104.908C246.282 102.778 247.417 99.6764 247.417 99.6764L248.713 104.723C247.463 104.445 232.579 113.426 232.579 113.426C232.579 113.426 232.648 115.649 232.949 117.338C233.25 119.005 234.431 118.959 234.431 118.959C236.676 118.936 248.25 114.445 250.843 113.565C251.213 113.45 251.606 113.288 252.046 113.079C254.731 111.852 258.481 109.306 259.06 106.297C259.708 102.801 255.681 95.9033 254.083 92.8709ZM244.454 103.982C243.389 105.024 233.69 103.172 229.523 103.612C227.069 103.866 224.824 104.19 223.25 103.797C222.139 103.542 221.375 102.917 221.097 101.713C220.657 99.6996 222.139 95.8339 223.111 93.6348C223.551 92.6394 223.875 91.9913 223.875 91.9913C225.009 89.4913 227.995 99.0514 229.06 100.255C230.125 101.459 234.569 100.973 240.819 101.112C247.116 101.227 245.519 102.94 244.454 103.982ZM235.866 112.593C235.866 112.593 248.366 104.561 248.597 106.042C248.829 107.547 235.866 112.593 235.866 112.593ZM250.889 95.3246C249.662 93.5422 250.843 90.7644 251.676 91.0653C252.509 91.3894 257.579 101.968 257.787 102.292C257.764 102.292 252.093 97.107 250.889 95.3246Z" fill="#C6203A"/>
<path d="M242.81 118.125C239.778 118.426 238.667 119.074 235.565 119.422C232.463 119.769 227.093 116.574 227.093 116.574C226.722 116.412 226.329 116.598 225.958 117.014C225.843 119.815 221.12 135.371 221.12 135.371C227.602 136.621 237.718 135.556 239.963 134.213C242.208 132.871 241.676 130.186 242.44 126.204C243.204 122.223 247 122.246 247.116 119.653C247.232 117.061 245.843 117.824 242.81 118.125ZM232.278 131.297C224.94 132.94 221.792 135.07 221.792 135.07C221.792 135.07 226.097 117.338 226.56 118.079C226.56 118.079 230.195 118.82 230.935 121.574C231.676 124.329 233.782 125.232 235.588 126.667C237.394 128.102 239.616 129.653 232.278 131.297Z" fill="#C6203A"/>
<path d="M229.523 103.612C233.69 103.173 243.389 105.024 244.454 103.983C245.519 102.941 247.116 101.228 240.843 101.112C234.57 100.997 230.148 101.483 229.083 100.256C228.019 99.0291 225.033 89.492 223.898 91.992C223.898 91.992 223.574 92.6402 223.134 93.6356C222.162 95.8346 220.681 99.7004 221.121 101.714C221.398 102.918 222.162 103.52 223.273 103.798C224.847 104.168 227.093 103.867 229.523 103.612Z" fill="#D43359"/>
<path d="M235.588 126.691C233.782 125.279 231.676 124.376 230.935 121.598C230.195 118.843 226.56 118.103 226.56 118.103C226.097 117.362 221.792 135.093 221.792 135.093C221.792 135.093 224.94 132.964 232.278 131.32C239.616 129.677 237.394 128.103 235.588 126.691Z" fill="#D43359"/>
<path d="M251.676 91.0659C250.843 90.7418 249.662 93.5427 250.889 95.3251C252.116 97.1075 257.787 102.293 257.787 102.293C257.579 101.992 252.486 91.3899 251.676 91.0659Z" fill="#D43359"/>
<path d="M235.866 112.594C235.866 112.594 248.829 107.548 248.597 106.043C248.366 104.539 235.866 112.594 235.866 112.594Z" fill="#D43359"/>
<path d="M218.459 105.347C218.69 108.843 218.158 113.982 215.912 113.033C214.06 112.245 206.699 111.644 203.134 111.019C207 113.82 212.509 117.523 213.482 117.824C214.986 118.264 216.074 119.352 218.181 117.616C219.986 116.134 222.51 111.227 223.181 109.908C221.769 106.921 220.334 103.866 220.218 102.292C220.195 102.153 220.172 102.014 220.172 101.852C220.056 99.5371 221.792 92.639 222.047 91.5742C222.185 90.9955 222.486 89.4677 223.065 88.0557C223.065 88.0557 222.162 89.8844 221.19 92.014C220.172 95.6483 218.273 102.801 218.459 105.347Z" fill="#911A35"/>
<path opacity="0.56" d="M244.963 85.6486C242.186 85.0931 239.269 84.769 239.269 84.769C238.644 83.0329 235.912 83.357 235.912 83.357L227.533 83.681C227.533 83.681 224.686 83.7505 224.223 86.0884C223.736 86.5745 223.343 87.2921 223.042 88.056C223.528 87.9171 224.13 87.7551 224.732 87.5931C226.213 87.2458 227.857 86.9681 228.852 87.1996C228.922 87.2227 229.014 87.2458 229.084 87.2458C229.223 87.269 229.385 87.3153 229.547 87.3384C231.653 87.8014 234.593 88.3107 237.648 87.5236C237.741 87.5005 237.811 87.4773 237.903 87.4542C241.236 86.5977 245.311 85.7412 245.311 85.7412C245.311 85.7412 245.172 85.7412 244.963 85.6486Z" fill="#911A35"/>
<path d="M198.389 105.718C199.662 105.718 201.746 102.94 201.746 102.94C201.746 102.94 199.292 100.533 198.713 100.186C198.111 99.8617 195.75 99.0515 195.611 98.658C195.449 98.2644 194.361 97.8478 194.431 98.7737C194.5 99.6996 195.125 100.163 195.125 100.163C195.125 100.163 191.954 98.7969 191.607 98.4959C191.259 98.195 190.588 98.4728 190.611 99.1904C190.658 99.908 191.468 100.926 191.421 101.505C191.375 102.084 191.815 104.329 192.07 104.885C192.88 105.116 194.593 105.602 195.611 105.695C196.931 105.857 197.093 105.718 198.389 105.718Z" fill="#EEC2A0"/>
<path d="M196.259 106.783C197.255 106.991 199.315 107.153 199.315 107.153L201.746 102.94C201.746 102.94 199.662 105.718 198.389 105.718C197.116 105.718 196.931 105.857 195.565 105.718C194.546 105.626 192.857 105.14 192.023 104.908C192.023 104.931 192.046 104.954 192.046 104.977C192.301 105.417 195.264 106.552 196.259 106.783Z" fill="#C3865F"/>
<path d="M195.079 100.163L196.468 101.251C196.468 101.251 196.537 103.196 197.301 104.006C197.301 104.006 196.051 102.779 196.028 102.085C196.005 101.39 195.496 101.136 195.31 100.904C195.125 100.673 192.648 99.0522 192.648 99.0522L195.079 100.163Z" fill="#C3865F"/>
<path d="M200.357 102.409C200.357 102.409 199.477 101.251 198.991 100.835C198.528 100.441 196.236 99.5151 196.236 99.5151C196.236 99.5151 197.44 100.325 198.296 100.858C199.153 101.39 198.319 102.548 198.296 103.034C198.273 103.52 199.523 104.191 199.639 104.029C199.755 103.844 200.357 102.409 200.357 102.409Z" fill="#F8DAC5"/>
<path d="M229.709 121.251C229.547 121.275 229.408 121.298 229.246 121.298C227.116 121.367 224.732 120.58 224.153 120.071C223.551 119.585 223.158 119.261 223.366 118.821C223.366 118.821 222.023 118.474 222.278 117.71C222.278 117.71 221.607 116.599 222.023 116.321C222.023 116.321 222.07 115.302 223.227 115.534C224.385 115.765 226.885 115.765 227.695 115.349L227.602 115.094C227.324 115.163 225.148 115.325 225.148 115.325C225.148 115.325 224.454 115.001 225.681 114.955C226.908 114.909 227.185 113.913 227.185 113.913L227.371 113.173C226.051 109.677 224.408 106.876 222.51 106.83C220.75 106.83 218.945 109.955 218.829 110.14H214.13C214.13 110.14 218.806 118.381 218.806 126.575H230.82C230.797 126.575 230.403 124.284 229.709 121.251Z" fill="#FDC07D"/>
<path d="M227.371 113.172L227.625 113.89C227.533 113.658 227.463 113.427 227.371 113.172Z" fill="#FDC07D"/>
<path d="M222.486 106.807H222.463H222.394H209.523C209.523 106.807 207.417 106.946 206.097 110.14H214.107H218.806C218.921 109.932 220.727 106.83 222.486 106.807Z" fill="#E65B26"/>
<path d="M227.926 114.792C227.903 114.561 227.764 114.005 227.625 113.89L227.371 113.172V113.149L227.185 113.89C227.185 113.89 226.885 114.885 225.681 114.931C224.477 114.978 225.148 115.302 225.148 115.302C225.148 115.302 227.324 115.14 227.602 115.07L227.695 115.325C226.885 115.742 224.385 115.742 223.227 115.51C222.07 115.279 222.023 116.297 222.023 116.297C221.607 116.575 222.278 117.686 222.278 117.686C222.023 118.45 223.366 118.797 223.366 118.797C223.158 119.237 223.574 119.538 224.153 120.047C224.755 120.533 227.139 121.343 229.246 121.274C229.408 121.274 229.547 121.251 229.709 121.228C229.246 119.26 228.644 116.968 227.926 114.792Z" fill="#E65B26"/>
<path d="M230.473 119.374C231.584 118.495 231.098 117.152 231.422 115.647C231.63 114.768 230.936 114.421 230.357 114.305C230.218 114.305 230.102 114.282 230.01 114.258C229.454 114.166 228.366 114.235 227.764 114.305L227.857 114.583C227.047 114.999 224.547 114.999 223.389 114.768C222.232 114.536 222.186 115.555 222.186 115.555C221.769 115.833 222.44 116.944 222.44 116.944C222.186 117.708 223.528 118.055 223.528 118.055C223.32 118.495 223.737 118.796 224.315 119.305C224.639 119.583 225.542 119.953 226.63 120.208C227.186 120.092 228.366 119.837 229.246 119.745C229.686 119.698 230.079 119.559 230.473 119.374Z" fill="#EEC2A0"/>
<path d="M233.435 118.171C233.134 117.407 232.926 116.412 232.81 115.578C232.741 114.953 232.648 114.375 232.648 114.352C232.625 114.027 232.602 113.819 232.602 113.819C232.579 113.796 232.556 113.773 232.533 113.75C231.56 113.078 227.371 113.125 227.371 113.125L227.787 114.282C228.389 114.236 229.477 114.166 230.033 114.236C230.125 114.259 230.264 114.259 230.38 114.282C230.959 114.421 231.653 114.745 231.445 115.625C231.097 117.106 231.607 118.472 230.496 119.352C230.102 119.537 229.709 119.676 229.292 119.722C228.412 119.838 227.232 120.069 226.676 120.185C227.533 120.393 228.528 120.532 229.454 120.486C231.584 120.416 233.713 118.657 233.713 118.657C233.597 118.541 233.505 118.356 233.435 118.171Z" fill="#C3865F"/>
<path d="M222.186 115.578C222.186 115.578 223.69 116.041 225.403 116.018L222.186 115.578Z" fill="#C3865F"/>
<path d="M223.528 118.079C223.528 118.079 224.894 118.495 225.982 118.657C227.07 118.819 227.533 118.704 227.533 118.704L223.528 118.079Z" fill="#C3865F"/>
<path d="M222.44 116.968C222.44 116.968 224.871 117.477 226.051 117.546C226.051 117.546 222.649 116.898 222.44 116.968Z" fill="#C3865F"/>
<path d="M223.528 115.161C223.528 115.161 227.255 115.601 228.667 115.161C230.079 114.721 228.435 115.717 227.301 115.694C226.144 115.67 222.51 115.393 223.528 115.161Z" fill="#F8DAC5"/>
<path d="M214.963 62.8018C214.963 62.8018 213.759 64.2369 214.685 65.8342C215.611 67.4314 220.218 74.5842 218.065 79.6768C216.676 82.9638 215.218 83.1258 215.218 83.1258C215.218 83.1258 217.694 83.4268 219.153 82.4082C219.153 82.4082 219.153 82.8018 218.736 83.1721C218.736 83.1721 220.542 83.149 221.19 82.3851L224.801 81.7138L219.569 64.0981L214.963 62.8018Z" fill="#101010"/>
<path d="M236.606 68.1721C236.792 65.6027 234.847 66.3666 234.083 66.7832C233.62 65.6258 232.972 64.6304 232.069 64.0054C231.236 63.4036 230.032 63.0795 228.713 62.9175C229.639 63.9129 230.704 65.0471 230.704 65.0471C230.704 65.0471 222.833 66.7832 219.593 66.0425C219.593 66.0425 218.968 67.0842 219.87 67.8249C220.796 68.5656 221.838 68.774 221.907 69.3064C222 69.8156 221.907 75.0008 221.907 75.0008L223.435 75.6258C223.435 75.6258 222.139 81.1119 224.245 82.5471C224.431 82.6166 224.616 82.686 224.801 82.7092C224.963 82.7323 225.102 82.7555 225.264 82.7786C225.287 82.7786 225.287 82.7786 225.31 82.7786C225.773 82.8249 226.236 82.848 226.699 82.8249C229.153 82.7323 231.468 80.973 232.88 79.9545C233.343 79.6304 233.991 79.1212 234.338 78.7971C233.644 79.9314 232.417 82.1999 231.259 82.848C229.755 83.6814 228.157 84.6767 227.37 85.1629C227.718 85.6258 229.384 87.5703 232.231 86.5749C235.449 85.4406 236.213 83.6119 236.213 83.6119C236.213 83.6119 234.917 79.1906 234.708 77.9638L234.685 77.8712V77.848C234.5 76.4129 234.963 70.8342 234.963 70.8342C235.542 70.7879 236.444 70.4175 236.606 68.1721Z" fill="#EEC2A0"/>
<path d="M223.458 75.5794L221.931 74.9544C221.931 74.9544 222.023 69.7692 221.931 69.2599C221.838 68.7507 220.796 68.5192 219.894 67.7784C218.968 67.0377 219.616 65.996 219.616 65.996C222.833 66.7368 230.727 65.0006 230.727 65.0006C230.727 65.0006 229.662 63.8664 228.736 62.871C223.991 62.3155 217.37 63.959 217.37 63.959C217.37 63.959 218.25 69.9775 219.107 72.6858C219.917 75.209 221.583 81.2738 224.292 82.4775C222.139 81.0655 223.458 75.5794 223.458 75.5794Z" fill="#C3865F"/>
<path d="M234.361 78.7739C234.361 78.7739 231.908 81.9915 229.963 82.686C228.945 83.0563 227.926 83.4499 227.185 83.7276C227.301 84.0749 227.347 84.5147 227.324 85.0471C227.324 85.0471 227.347 85.0702 227.394 85.1397C228.181 84.6536 229.778 83.6582 231.283 82.8248C232.44 82.1767 233.644 80.973 234.361 78.7739Z" fill="#C3865F"/>
<path d="M226.699 82.8017C226.861 83.01 227.046 83.311 227.185 83.7276C227.926 83.4499 228.759 83.2184 229.824 82.9406C233.204 82.061 234.361 78.7739 234.361 78.7739C234.014 79.098 232.648 80.1165 232.185 80.4406C230.773 81.436 229.315 82.4313 226.699 82.8017Z" fill="#7F4320"/>
<path d="M225.241 78.4497C224.639 78.5423 224.523 79.5377 224.523 79.5377C224.894 78.3108 226.491 78.4034 227.301 78.5191C227.694 77.5701 227.88 76.6904 227.88 76.6904C226.699 77.5469 221.722 77.2228 221.722 77.2228C221.722 77.2228 222.023 77.9636 222.556 78.7738C223.065 78.1488 225.241 78.4497 225.241 78.4497Z" fill="#92261E"/>
<path d="M225.102 80.8572C226.12 80.9267 226.861 79.6536 227.324 78.5193C226.514 78.4036 224.917 78.311 224.546 79.5378C224.546 79.5378 224.662 78.5656 225.264 78.4499C225.264 78.4499 223.088 78.1489 222.602 78.7739C223.181 79.723 224.083 80.7878 225.102 80.8572Z" fill="#C6403C"/>
<path d="M222.232 71.7139C222.232 71.7139 222.023 74.7231 222.232 74.8157C222.44 74.9083 222.579 74.9314 222.579 74.9314L222.232 71.7139Z" fill="#F8DAC5"/>
<path d="M234.338 74.9775C234.269 75.7414 234.199 76.2044 234.199 76.2044C234.292 75.8109 234.315 75.3942 234.338 74.9775Z" fill="#3A3939"/>
<path d="M230.218 63.7744C230.218 63.7744 233.898 69.8392 234.199 71.5985C234.199 71.5985 232.555 64.1448 230.218 63.7744Z" fill="#767575"/>
<path d="M235.333 67.5704C235.333 67.5704 235.981 67.9176 235.727 68.9593C235.727 68.9593 235.472 68.1028 235.241 67.9639C235.009 67.825 234.894 67.4547 235.333 67.5704Z" fill="#C3865F"/>
<path d="M226.074 70.0003C226.074 70.2086 225.889 70.3012 225.634 70.3012C225.403 70.3012 225.195 70.2086 225.195 70.0003C225.195 69.7919 225.38 69.6299 225.634 69.6299C225.866 69.6299 226.074 69.7919 226.074 70.0003Z" fill="#3A3939"/>
<path d="M220.565 70.1629C220.565 70.3712 220.38 70.4638 220.125 70.4638C219.871 70.4638 219.685 70.3712 219.685 70.1629C219.685 69.9545 219.871 69.7925 220.125 69.7925C220.38 69.7925 220.565 69.9545 220.565 70.1629Z" fill="#3A3939"/>
<path d="M224.616 67.8946C224.593 67.9178 224.801 68.3345 224.94 68.3345C225.079 68.3345 226.884 68.5428 227.07 68.6585C227.255 68.7743 227.023 68.2419 227.023 68.1956C227.023 68.1493 224.94 67.7326 224.616 67.8946Z" fill="#3A3939"/>
<path d="M221.028 68.3572C221.028 68.3572 220.056 68.4961 219.87 68.4961C219.662 68.5193 218.898 68.7971 218.921 68.7739C218.945 68.7508 219.014 68.2878 219.176 68.2184C219.338 68.1489 220.82 67.8017 220.912 67.848C221.005 67.8943 221.352 68.2184 221.028 68.3572Z" fill="#3A3939"/>
<path d="M235.82 66.9679C236.097 67.13 236.653 67.7318 236.514 69.005C237.208 70.579 238.088 72.4309 238.088 73.9355C238.088 73.9355 238.389 68.0096 237.232 64.792C236.861 64.0513 236.607 63.5652 236.607 63.5652C236.838 63.8892 237.046 64.3059 237.232 64.792C238.019 66.3661 239.338 69.0513 239.847 70.2781L238.019 64.8614L241.908 71.2272L239.222 62.2689C237.695 58.6115 235.704 55.255 233.458 55.0003C228.412 54.4216 220.982 53.4494 218.458 56.3892C215.935 59.329 212.023 62.3152 215.009 62.7781C215.009 62.7781 219.87 67.6392 230.727 65.3476C230.727 65.3476 234.431 70.7642 234.361 74.954C234.546 73.2411 234.801 70.0003 234.593 66.9216C234.593 66.9216 235.264 66.667 235.75 66.8985C235.75 66.9216 235.773 66.9216 235.82 66.9679Z" fill="#3A3939"/>
<path d="M237.208 64.7684C237.046 64.2822 236.838 63.8656 236.583 63.5415C236.606 63.5415 236.861 64.0508 237.208 64.7684Z" fill="#101010"/>
<path d="M235.75 66.9214C235.773 66.9445 235.796 66.9445 235.819 66.9677C235.773 66.9214 235.75 66.9214 235.75 66.9214Z" fill="#101010"/>
<path d="M234.361 81.204C234.361 81.204 238.435 79.6994 239.847 77.5235L240.356 75.9494V77.0837C240.356 77.0837 243.25 73.8429 242.324 72.0142C242.324 72.0142 241.12 66.9216 239.199 62.292L241.884 71.2503L237.995 64.8846L239.824 70.3012C239.315 69.0513 237.995 66.3892 237.208 64.8151C238.366 68.0327 238.065 73.9587 238.065 73.9587C238.065 72.454 237.162 70.6022 236.491 69.0281C236.398 69.5142 236.097 70.5559 235.009 70.8568L234.708 75.5096C234.708 75.4633 235.333 79.3985 234.361 81.204Z" fill="#101010"/>
<path d="M230.681 65.3707C230.681 65.3707 229.732 64.0513 228.782 64.0513C227.833 64.0513 221.514 65.5096 217.324 64.3522C217.347 64.3522 221.861 67.3151 230.681 65.3707Z" fill="#101010"/>
<path d="M215.519 61.8752C215.519 61.8752 216.653 59.5836 218.343 57.9632C220.009 56.3197 220.333 55.9261 222.787 55.6021C225.241 55.2548 215.519 61.8752 215.519 61.8752Z" fill="#767575"/>
<path d="M236.907 65.1161C236.907 65.1161 235.773 61.6207 234.361 60.9031C232.926 60.1624 236.907 65.1161 236.907 65.1161Z" fill="#767575"/>
<path d="M126.769 223.241H130.889L117.324 172.709L112.579 170.88L126.769 223.241Z" fill="#3A6492"/>
<path d="M86.4677 223.241H90.588L105.519 168.148L101.653 166.667L86.4677 223.241Z" fill="#3A6492"/>
<path d="M230.611 216.25L232.486 223.241H236.607L235.218 218.033L230.611 216.25Z" fill="#3A6492"/>
<path d="M192.208 223.241H196.329L201.282 204.977L197.486 203.519L192.208 223.241Z" fill="#3A6492"/>
<path d="M108.667 156.481L112.579 170.88L117.324 172.708L112.972 156.481H108.667Z" fill="#203762"/>
<path d="M104.361 156.481L101.653 166.667L105.519 168.148L108.667 156.481H104.361Z" fill="#203762"/>
<path d="M218.713 156.481H214.407L230.611 216.25L235.218 218.032L218.713 156.481Z" fill="#203762"/>
<path d="M210.102 156.481L197.486 203.518L201.282 204.977L214.407 156.481H210.102Z" fill="#203762"/>
<path d="M168.991 174.306L153.875 173.843L154.732 171.598L130.843 171.69C129.083 171.69 127.648 173.125 127.648 174.885V175C127.648 176.505 128.875 177.755 130.403 177.755H179.222C176.954 177.732 174.408 177.5 171.56 177.061C170.195 176.852 169.014 175.672 168.991 174.306Z" fill="#141D45"/>
<path d="M171.445 171.598C171.769 171.551 172.093 171.528 172.417 171.574C184.407 173.449 190.611 172.061 197.88 158.727C205.056 145.556 204.431 122.292 204.407 122.037C204.315 120.602 204.778 118.936 206.097 118.82H175.125L154.732 171.598L171.375 171.528L171.445 171.598Z" fill="#141D45"/>
<path d="M168.991 174.305C168.991 174.167 168.991 174.028 169.014 173.889C169.199 172.708 170.264 171.805 171.468 171.597L171.398 171.551L154.755 171.62L153.898 173.866L168.991 174.305Z" fill="#141D45"/>
<path d="M208.366 123.403C208.273 121.875 208.296 119.005 206.375 118.82C206.375 118.82 205.079 131.991 204.662 138.843C204.245 145.695 200.704 160.348 195.449 167.13C190.194 173.912 180.565 174.63 180.565 174.63L175.495 174.468L180.055 177.732C183.782 177.686 186.815 177.014 189.593 175.718C194.546 173.38 198.597 168.959 202.764 161.343C210.704 146.829 208.458 124.491 208.366 123.403Z" fill="#194788"/>
<path d="M168.991 174.307C169.014 175.649 170.194 176.853 171.583 177.061C174.454 177.501 176.977 177.732 179.245 177.756H180.032C180.056 177.756 180.079 177.756 180.079 177.756L175.519 174.492L168.991 174.307Z" fill="#194788"/>
<path d="M204.407 122.06C204.431 122.315 205.056 145.578 197.88 158.75C190.611 172.083 184.407 173.472 172.417 171.597C172.093 171.551 171.769 171.551 171.445 171.62L175.519 174.537L180.588 174.699C180.588 174.699 190.195 173.981 195.472 167.199C200.75 160.416 204.269 145.764 204.685 138.912C205.102 132.06 206.398 118.889 206.398 118.889H206.097C204.801 118.935 204.315 120.625 204.407 122.06Z" fill="#194788"/>
<path d="M169.014 173.889C168.991 174.028 168.991 174.167 168.991 174.306L175.519 174.514L171.444 171.598C170.264 171.806 169.199 172.709 169.014 173.889Z" fill="#194788"/>
<path d="M167.069 177.779V185.672L175.819 177.779H167.069Z" fill="#141D45"/>
<path d="M197.532 223.196L197.579 223.265H197.926L197.532 223.196Z" fill="#141D45"/>
<path d="M170.773 191.344C170.958 189.33 172.741 187.501 173.62 186.714V185.672H169.292V218.844L144.986 223.265H197.579L170.796 220.186C170.773 220.186 170.542 194.029 170.773 191.344Z" fill="#141D45"/>
<path d="M173.62 218.844V186.714C172.741 187.501 170.958 189.33 170.773 191.344C170.542 194.029 170.773 220.187 170.773 220.187L197.555 223.265L197.509 223.196L173.62 218.844Z" fill="#324277"/>
<path d="M175.819 185.672V177.779L167.069 185.672H169.292H173.62H175.819Z" fill="#324277"/>
<path d="M162.741 112.338C162.741 112.338 162.463 112.5 161.954 112.778C162.069 112.709 162.347 112.593 162.741 112.431V112.338Z" fill="#C64E28"/>
<path d="M160.935 125.14L161.722 119.491C161.722 115.672 161.884 112.825 161.884 112.825C161.329 113.149 160.518 113.612 159.5 114.19C158.967 114.491 157.694 116.482 156.051 119.26C154.639 125.834 151.768 139.468 151.537 142.246C151.213 145.95 148.157 147.755 143.852 146.899C140.472 146.227 129.639 146.945 125.148 147.292L125.68 153.126L150.981 152.246C150.981 152.246 152.81 149.445 155.102 145.903L156.907 125.626C156.93 125.626 158.504 125.417 160.935 125.14Z" fill="#C64E28"/>
<path d="M176.907 161.806C179.384 161.921 183.343 157.732 183.458 154.931C183.505 154.028 184.222 151.921 185.171 149.398C182.579 150.278 180.843 150.741 180.843 150.741L177.833 145.718L189.778 137.894C190.218 136.759 190.495 135.903 190.542 135.509C190.819 133.449 186.792 125.046 186.792 125.046C187.463 126.69 190.056 134.282 182.926 140.671C175.843 147.037 162.694 140.463 159.685 138.843C158.204 141.134 156.56 143.657 155.125 145.88L154.037 157.94C159.037 157.222 168.875 159.282 174.083 161.852C175.079 161.806 176.097 161.759 176.907 161.806Z" fill="#E65B26"/>
<path d="M159.06 138.518L160.935 125.139C158.505 125.416 156.93 125.625 156.93 125.625L155.125 145.903C156.583 143.68 158.204 141.157 159.685 138.866C159.268 138.634 159.06 138.518 159.06 138.518Z" fill="#E65B26"/>
<path d="M186.791 125.07C186.699 124.862 186.653 124.746 186.653 124.746C186.699 124.839 186.745 124.954 186.791 125.07Z" fill="#F4D8BD"/>
<path d="M160.935 125.139L159.06 138.519C159.06 138.519 159.292 138.657 159.685 138.866C160.912 136.991 162.023 135.278 162.856 134.005C161.954 129.745 161.745 123.958 161.745 119.491L160.935 125.139Z" fill="#FBB25A"/>
<path d="M162.787 112.431C162.764 112.385 162.741 112.338 162.741 112.338L162.718 112.454C162.741 112.454 162.764 112.431 162.787 112.431Z" fill="#FBB25A"/>
<path d="M143.875 146.898C148.18 147.755 151.236 145.949 151.56 142.245C151.792 139.468 154.662 125.833 156.074 119.259C151.329 127.361 143.69 142.245 143.69 142.245C142.046 141.528 125.009 145.486 125.009 145.486L125.171 147.292C129.662 146.944 140.495 146.227 143.875 146.898ZM133.69 144.954C133.69 144.954 144.731 141.759 147.393 143.472C150.079 145.185 133.69 144.954 133.69 144.954Z" fill="#FBB25A"/>
<path d="M190.565 135.533C190.518 135.926 190.217 136.783 189.801 137.917L195.356 134.283C195.356 134.283 188.828 129.491 186.815 125.093C186.791 125.07 190.842 133.472 190.565 135.533Z" fill="#C64E28"/>
<path d="M183.458 154.93C183.343 157.731 179.384 161.921 176.907 161.805C176.097 161.759 175.079 161.805 174.083 161.898C174.338 162.014 174.569 162.153 174.801 162.268C179.755 165.023 191.19 167.153 191.19 167.153L193.968 145.879C190.727 147.384 187.579 148.588 185.171 149.398C184.222 151.921 183.505 154.028 183.458 154.93Z" fill="#C64E28"/>
<path d="M195.681 113.171C195.333 112.639 194.569 112.014 193.597 111.389C192.301 110.741 190.75 110 189.569 109.56C188.088 109.028 186.005 108.426 184.569 108.032C184.384 108.426 184.153 108.889 183.806 109.352C182.301 111.759 179.824 112.685 176.444 112.477C173.065 112.268 171.977 108.727 171.977 108.727C170.866 108.935 169.685 109.213 168.806 109.444C166.144 110.694 162.718 112.361 162.718 112.361C162.718 112.361 162.741 112.384 162.764 112.454C164.87 111.597 170.102 109.838 171.56 111.852C173.366 114.375 171.444 114.444 176.815 115.046C182.185 115.648 184.986 115.278 183.273 117.245C181.56 119.213 174.708 122.963 176.167 128.287C177.625 133.611 172.023 140.625 166.236 139.745C164.569 139.491 163.505 137.176 162.833 134.004C162 135.278 160.889 136.991 159.662 138.866C162.671 140.509 175.819 147.06 182.903 140.694C190.032 134.305 187.44 126.69 186.769 125.069C186.722 124.954 186.676 124.861 186.63 124.745C186.63 124.745 186.676 124.861 186.769 125.069C188.782 129.467 195.31 134.259 195.31 134.259L189.755 137.893L177.81 145.717L180.819 150.741C180.819 150.741 182.532 150.278 185.148 149.398C187.556 148.588 190.704 147.384 193.944 145.879C194.546 145.602 195.125 145.324 195.727 145.023C195.912 144.93 196.074 144.838 196.236 144.745C203.111 140.972 204.639 134.143 204.639 134.143C204.269 128.819 195.681 113.171 195.681 113.171ZM180.588 144.467L195.171 135C195.171 135 183.944 144.491 180.588 144.467ZM186.144 109.259C187.093 108.866 193.991 112.685 193.991 112.685C189.894 113.333 185.194 109.676 186.144 109.259ZM195.333 132.731C195.333 132.731 188.806 125.995 187.88 124.722C186.954 123.449 185.982 120.903 188.482 121.944C190.982 122.986 196.329 131.458 195.333 132.731Z" fill="#FBB25A"/>
<path d="M189.593 109.561C190.773 110.001 192.324 110.741 193.62 111.389C190.727 109.514 185.958 107.547 184.94 107.153C184.87 107.362 184.778 107.686 184.616 108.033C186.028 108.426 188.111 109.028 189.593 109.561Z" fill="#E65B26"/>
<path d="M171.722 108.102C171.607 108.171 171.56 108.194 171.56 108.194C171.051 108.379 170.009 108.865 168.829 109.421C169.708 109.19 170.889 108.935 172 108.703C171.884 108.495 171.792 108.287 171.722 108.102Z" fill="#E65B26"/>
<path d="M180.843 111.713C177.417 113.102 173.898 111.111 173.042 110.301C172.625 109.908 172.255 109.259 172 108.727C172 108.727 173.088 112.292 176.468 112.477C179.847 112.685 182.324 111.736 183.829 109.352C183.204 110.232 182.255 111.158 180.843 111.713Z" fill="#E65B26"/>
<path d="M173.041 110.301C173.898 111.134 177.417 113.102 180.842 111.713C182.254 111.157 183.204 110.232 183.829 109.352C184.153 108.889 184.407 108.426 184.592 108.032C184.754 107.662 184.87 107.361 184.917 107.153C184.801 107.107 184.731 107.083 184.731 107.083C184.639 106.806 182.717 106.644 182.717 106.644C182.717 106.644 175.403 107.292 174.268 107.269C173.342 107.245 172.162 107.87 171.722 108.125C171.791 108.287 171.884 108.519 172 108.727C172.254 109.259 172.625 109.907 173.041 110.301Z" fill="#F4D8BD"/>
<path d="M188.481 121.968C186.005 120.926 186.977 123.472 187.88 124.745C188.806 126.019 195.333 132.755 195.333 132.755C196.329 131.458 190.981 122.986 188.481 121.968Z" fill="#FDC07D"/>
<path d="M195.171 135L180.588 144.468C183.944 144.491 195.171 135 195.171 135Z" fill="#FDC07D"/>
<path d="M183.296 117.222C185.009 115.255 182.208 115.602 176.838 115.023C171.468 114.422 173.389 114.352 171.583 111.829C170.125 109.792 164.894 111.574 162.787 112.431C162.764 112.431 162.741 112.454 162.741 112.454C162.347 112.616 162.07 112.732 161.954 112.801C161.931 112.824 161.907 112.824 161.907 112.824C161.907 112.824 161.745 115.648 161.745 119.491C161.745 123.935 161.954 129.746 162.857 134.005C163.528 137.176 164.593 139.491 166.259 139.746C172.046 140.602 177.648 133.588 176.19 128.287C174.708 122.94 181.583 119.213 183.296 117.222Z" fill="#FDC07D"/>
<path d="M193.991 112.708C193.991 112.708 187.093 108.889 186.143 109.282C185.194 109.676 189.893 113.333 193.991 112.708Z" fill="#FDC07D"/>
<path d="M147.417 143.473C144.755 141.76 133.713 144.954 133.713 144.954C133.713 144.954 150.079 145.186 147.417 143.473Z" fill="#FDC07D"/>
<path d="M178.042 149.56C178.759 149.166 178.065 146.551 177.81 145.717C177.486 145.717 174.06 145.764 172.301 146.065C170.426 146.389 168.551 148.935 168.551 148.935C168.551 148.935 168.875 149.004 169.384 149.12C171.815 149.398 177.393 149.93 178.042 149.56Z" fill="#EEC2A0"/>
<path d="M180.866 150.74C181.051 149.352 177.857 145.717 177.857 145.717C177.857 145.717 177.856 145.717 177.833 145.717C178.065 146.551 178.759 149.166 178.065 149.56C177.417 149.93 171.838 149.398 169.407 149.143C171.699 149.652 178.019 151.064 178.782 151.227C179.708 151.412 180.866 150.74 180.866 150.74Z" fill="#C3865F"/>
<path d="M120.333 220.95C121.954 219.931 123.319 218.519 123.852 217.918C123.829 217.802 123.806 217.686 123.806 217.57C123.319 217.455 122.347 217.269 121.375 217.316C120.125 217.408 116.653 216.181 115.796 213.982C115.519 214.422 115.194 214.885 114.87 215.232C114.014 216.181 110.519 216.506 108.528 216.668C106.537 216.83 100.796 218.959 100.056 219.769C99.3149 220.603 99.7084 222.339 99.7084 222.339C99.7084 222.339 107.579 221.181 110.75 221.066C113.898 220.996 118.25 222.293 120.333 220.95ZM101.028 220.256C100.565 221.089 99.9167 221.992 99.8704 221.251C99.8704 221.251 99.9862 219.955 102.023 219.237C104.06 218.519 105.75 217.57 107.394 217.478C109.037 217.385 101.491 219.422 101.028 220.256Z" fill="#414C5C"/>
<path d="M116.954 212.779L116.606 212.617C116.606 212.617 116.583 212.663 116.537 212.779C116.653 212.756 116.792 212.756 116.954 212.779Z" fill="#414C5C"/>
<path d="M107.37 217.501C105.727 217.593 104.014 218.542 102 219.26C99.963 219.978 99.8472 221.274 99.8472 221.274C99.9167 221.992 100.542 221.089 101.005 220.279C101.468 219.468 109.037 217.385 107.37 217.501Z" fill="#616F7F"/>
<path d="M124.014 221.482C124.014 221.482 120.819 222.616 116.282 222.315C111.745 222.014 99.6852 222.362 99.6852 222.362C99.2917 222.662 99.8241 223.287 100.935 223.334C102.046 223.38 110.796 223.403 114.894 223.542C118.991 223.658 123.782 223.241 123.782 223.241C124.014 222.57 124.083 222.153 124.106 221.899C124.13 221.528 124.014 221.482 124.014 221.482Z" fill="#B3BCC4"/>
<path d="M121.375 217.316C122.324 217.247 123.319 217.455 123.806 217.571C123.667 216.691 123.528 216.02 123.528 216.02L116.954 212.779C116.792 212.756 116.653 212.756 116.514 212.756C116.398 212.987 116.12 213.473 115.796 213.983C116.653 216.182 120.125 217.409 121.375 217.316Z" fill="#1E2733"/>
<path d="M123.852 217.917C123.319 218.496 121.954 219.931 120.333 220.95C118.227 222.269 113.898 220.973 110.727 221.089C107.556 221.204 99.6852 222.362 99.6852 222.362C99.6852 222.362 111.745 221.992 116.282 222.316C120.819 222.64 124.014 221.482 124.014 221.482C124.199 220.765 124.037 219.191 123.852 217.917Z" fill="#1E2733"/>
<path d="M157.903 220.742C157.903 220.742 158.204 221.205 157.903 221.992C157.602 222.779 145.449 223.543 141.954 223.404C138.458 223.265 138.458 222.686 138.736 221.783L157.903 220.742Z" fill="#B3BCC4"/>
<path d="M156.213 219.538C153.458 219.145 152.486 218.52 149.778 217.802C148.62 217.501 148.319 216.807 148.018 216.02C146.56 217.293 143.481 217.501 141.63 218.589C140.403 219.307 139.315 220.279 138.921 221.089C139.106 221.344 139.315 221.621 139.569 221.783C140.171 222.177 147.972 222.107 149.546 221.876C150.958 221.668 156.722 220.811 157.903 220.649C157.926 220.395 157.949 220.024 157.949 219.631C157.463 219.654 156.861 219.631 156.213 219.538Z" fill="#414C5C"/>
<path d="M149.778 217.802C152.486 218.519 153.458 219.144 156.213 219.538C156.861 219.63 157.463 219.654 157.972 219.607C157.996 218.242 157.903 216.32 157.903 216.32C157.903 216.32 150.241 213.172 149.153 215.117C148.991 215.394 148.273 215.788 148.019 216.019C148.32 216.806 148.621 217.501 149.778 217.802Z" fill="#1E2733"/>
<path d="M139.569 221.784C139.315 221.622 139.083 221.344 138.921 221.089C138.597 221.714 138.713 222.27 139.477 222.548C141.236 223.219 149.431 222.548 151.745 222.038C154.06 221.529 157.903 220.742 157.903 220.742C157.903 220.719 157.903 220.673 157.926 220.649C156.722 220.835 150.982 221.691 149.569 221.876C147.972 222.108 140.171 222.177 139.569 221.784Z" fill="#1E2733"/>
<path d="M125.935 215.765C128.505 216.274 122.394 215.927 120.611 215.325C118.829 214.723 114.338 210.557 116.283 206.853L113.435 209.77L114.454 212.524C114.454 212.524 116.769 214.538 118.32 215.719C119.847 216.899 126.954 216.969 126.583 215.997C126.236 215.001 126.792 211.228 126.792 211.228L120.958 210.997C120.982 211.02 123.389 215.256 125.935 215.765ZM115.195 212.779C114.269 212.131 113.921 210.001 113.921 210.001L114.917 208.682L117.394 214.561C117.417 214.538 116.12 213.427 115.195 212.779Z" fill="#698190"/>
<path d="M119.523 203.728C119.593 203.497 126.028 199.029 129.801 192.177C133.574 185.325 137.371 178.358 137.486 175.395C137.579 173.126 135.472 165.534 139.708 162.339C134.384 164.816 133.204 169.631 132.116 172.085C130.704 175.279 120.982 198.728 120.125 200.603C119.269 202.478 116.306 206.876 116.306 206.876L118.435 208.937C118.412 208.913 119.431 203.96 119.523 203.728ZM134.107 169.724C134.107 169.724 125.958 193.844 121.931 197.617L134.107 169.724Z" fill="#698190"/>
<path d="M154.616 213.636C154.616 213.103 149.894 210.858 149.894 210.858H154.385C154.385 210.858 155.519 209.863 155.519 205.372C155.519 200.881 154.57 196.738 154.454 193.543C154.338 190.349 157.023 175.997 156.676 175.233C156.329 174.492 153.25 168.543 151.792 166.969C150.334 165.395 153.042 165.441 155.889 165.441C158.736 165.441 169.801 165.673 172.116 164.978C172.648 164.816 173.019 164.562 173.32 164.261C172.787 163.983 172.301 163.705 171.884 163.428C166.954 160.094 154.269 157.872 154.037 157.826C150.125 158.381 145.542 160.904 145.542 160.904C145.542 160.904 143.76 163.821 143.76 168.798C143.76 173.752 144.338 180.904 144.338 180.904C144.338 180.904 147.232 199.631 147.648 202.178C148.065 204.724 148.829 209.978 148.829 209.978L148.412 214.284C152.139 215.58 154.616 214.168 154.616 213.636ZM145.542 181.344C145.542 181.344 151.375 204.515 151.63 206.159C151.861 207.803 150.773 210.418 149.824 208.613C148.875 206.784 145.542 181.344 145.542 181.344ZM149.385 211.205C149.385 211.205 152.07 212.594 152.718 213.15C153.366 213.705 149.06 212.178 149.06 212.178C149.06 212.178 148.297 209.909 149.385 211.205Z" fill="#698190"/>
<path d="M172.116 164.954C169.801 165.672 158.713 165.417 155.889 165.417C153.042 165.417 150.333 165.371 151.792 166.945C153.25 168.519 156.329 174.468 156.676 175.209C157.023 175.949 154.338 190.324 154.454 193.519C154.57 196.713 155.519 200.857 155.519 205.348C155.519 209.838 154.384 210.834 154.384 210.834H149.894C149.894 210.834 154.616 213.079 154.616 213.611C154.616 214.144 152.139 215.556 148.412 214.26L149.94 215.672C149.94 215.672 150.657 216.019 153.019 217.084C155.38 218.149 158.759 216.736 158.759 216.736L160.727 171.621C160.727 171.621 168.852 171.551 179.593 171.899C185.472 172.084 188.389 170.649 189.824 169.306C186.12 168.496 177.81 166.505 173.296 164.213C173.019 164.537 172.648 164.792 172.116 164.954Z" fill="#566D78"/>
<path d="M139.708 162.315C141.259 161.598 143.181 161.065 145.542 160.88C142.857 160.788 140.982 161.343 139.708 162.315Z" fill="#566D78"/>
<path d="M145.542 160.88C143.157 161.089 141.259 161.598 139.708 162.316C135.472 165.533 137.579 173.126 137.486 175.371C137.37 178.334 133.574 185.302 129.801 192.154C126.028 199.005 119.593 203.473 119.523 203.704C119.454 203.936 118.412 208.913 118.412 208.913L116.282 206.853C114.361 210.556 118.852 214.723 120.611 215.325C122.394 215.927 128.482 216.274 125.935 215.765C123.389 215.255 120.982 210.996 120.982 210.996L126.815 211.228L129.13 210.325C128.065 205.996 144.338 180.88 144.338 180.88C144.338 180.88 143.759 173.728 143.759 168.774C143.782 163.797 145.542 160.88 145.542 160.88Z" fill="#566D78"/>
<path d="M151.63 206.158C151.398 204.515 145.542 181.343 145.542 181.343C145.542 181.343 148.852 206.806 149.801 208.612C150.773 210.417 151.861 207.825 151.63 206.158Z" fill="#83A6B6"/>
<path d="M152.741 213.149C152.093 212.593 149.408 211.204 149.408 211.204C148.32 209.908 149.084 212.177 149.084 212.177C149.084 212.177 153.389 213.727 152.741 213.149Z" fill="#83A6B6"/>
<path d="M113.922 210.001C113.922 210.001 114.269 212.131 115.195 212.779C116.121 213.427 117.417 214.561 117.417 214.561L114.94 208.682L113.922 210.001Z" fill="#83A6B6"/>
<path d="M121.931 197.617C125.959 193.844 134.107 169.724 134.107 169.724L121.931 197.617Z" fill="#83A6B6"/>
<path d="M173.32 164.214C174.292 163.172 174.083 161.575 174.083 161.575C173.597 161.367 173.134 161.158 172.741 160.973C168.273 158.844 159.616 157.686 155.472 157.663C155.009 157.663 154.523 157.709 154.037 157.779C154.245 157.825 166.954 160.047 171.884 163.381C172.301 163.682 172.787 163.959 173.32 164.214Z" fill="#698190"/>
<path opacity="0.46" d="M173.32 164.214C174.292 163.172 174.083 161.575 174.083 161.575C173.597 161.367 173.134 161.158 172.741 160.973C168.273 158.844 159.616 157.686 155.472 157.663C155.009 157.663 154.523 157.709 154.037 157.779C154.245 157.825 166.954 160.047 171.884 163.381C172.301 163.682 172.787 163.959 173.32 164.214Z" fill="black"/>
<path d="M191.19 167.154C188.829 166.714 179.153 163.728 174.083 161.598C174.083 161.598 174.315 163.195 173.319 164.237C177.833 166.529 186.144 168.519 189.847 169.33C191.028 168.195 191.19 167.154 191.19 167.154Z" fill="#566D78"/>
<path opacity="0.46" d="M191.19 167.154C188.829 166.714 179.153 163.728 174.083 161.598C174.083 161.598 174.315 163.195 173.319 164.237C177.833 166.529 186.144 168.519 189.847 169.33C191.028 168.195 191.19 167.154 191.19 167.154Z" fill="black"/>
<path d="M141.421 221.112C141.421 221.112 142.255 219.561 144.523 218.52C146.769 217.455 141.421 221.112 141.421 221.112Z" fill="#616F7F"/>
<path d="M190.727 78.6342C189.616 78.5185 190.657 78.912 190.958 79.3749C191.282 79.8379 191.144 84.861 191.144 84.861C191.144 84.861 191.398 83.7268 192.046 81.3425C192.694 78.9583 190.727 78.6342 190.727 78.6342Z" fill="#9B9A9A"/>
<path d="M168.412 76.7129C168.921 77.9629 169.43 77.1296 169.43 76.1111C169.454 75.1157 172.81 72.6157 172.81 72.6157C172.81 72.6157 171.815 73.0555 169.824 74.1666C167.833 75.2778 168.412 76.7129 168.412 76.7129Z" fill="#9B9A9A"/>
<path d="M182.301 82.1293L189.361 78.6108C189.338 78.6108 176.514 83.4256 182.301 82.1293Z" fill="#9B9A9A"/>
<path d="M168.852 82.1064C168.667 82.7777 168.134 84.9537 168.597 86.4351C169.153 88.1944 169.269 89.7453 169.269 89.7453C169.315 87.9166 169.477 86.3194 169.662 85.1157C169.755 84.4444 169.847 83.8889 169.94 83.4722C169.963 83.3101 169.986 83.1944 170.009 83.0787C169.778 82.9629 169.57 82.824 169.407 82.6851C169.176 82.5 168.991 82.3148 168.852 82.1064Z" fill="#3A3939"/>
<path d="M190.959 78.1256C191.838 74.5608 188.528 75.4635 187.348 73.6348C186.144 71.8061 179.848 73.82 178.575 71.3895C177.301 68.9589 173.412 71.8061 169.801 73.4496C168.274 74.1672 167.787 75.232 167.764 76.3432C168.482 78.2876 170.936 80.2552 171.098 81.1811C171.121 81.3663 171.19 81.5515 171.306 81.7135C171.908 82.7321 173.667 83.3802 176.815 82.9635C180.473 82.4543 181.329 83.0098 181.329 83.0098C181.514 83.0561 181.63 83.1256 181.723 83.2182C182.186 83.658 181.7 84.5145 181.7 84.5145L183.76 86.8061L184.57 87.7089C185.125 88.2645 184.57 93.82 184.57 93.82L186.329 89.5608C186.792 88.8895 187.301 88.6348 187.741 88.7043C187.741 88.7043 187.788 88.7043 187.834 88.7274C188.227 88.82 189.755 89.1904 189.917 89.7459C190.125 90.3941 191.352 89.8848 191.352 89.8848C190.195 88.9358 191.005 85.9265 192.278 82.5237C193.551 79.1209 190.959 78.1256 190.959 78.1256ZM169.454 76.1117C169.431 77.107 168.945 77.9404 168.436 76.7135C168.436 76.7135 167.857 75.3015 169.848 74.1672C171.838 73.033 172.834 72.6163 172.834 72.6163C172.834 72.6163 169.454 75.1163 169.454 76.1117ZM182.301 82.1302C176.538 83.4265 189.362 78.6117 189.362 78.6117L182.301 82.1302ZM192.047 81.3432C191.399 83.7274 191.144 84.8617 191.144 84.8617C191.144 84.8617 191.283 79.8385 190.959 79.3756C190.635 78.9126 189.616 78.5191 190.727 78.6348C190.727 78.6348 192.695 78.9589 192.047 81.3432Z" fill="#3A3939"/>
<path d="M187.856 88.7272C187.787 88.704 187.764 88.704 187.764 88.704C187.324 88.6346 186.815 88.8661 186.352 89.5605L184.593 93.8198C184.593 93.8198 184.616 91.5975 184.523 89.8151C184.477 89.0049 184.176 87.8938 183.782 86.8059L181.722 84.5142C181.722 84.5142 182.185 83.6346 181.745 83.2179C180.009 82.8938 174.755 85.1392 172.116 85.4864C171.838 85.5327 171.56 85.5559 171.329 85.5559C171.907 85.9957 172.417 86.5512 172.486 87.1994C172.648 88.704 172.694 89.3985 172.602 90.3244C172.486 91.2503 171.815 96.5975 171.815 96.5975L173.551 97.2457L172.671 99.8846C172.671 99.8846 171.259 102.709 172.995 104.19C173.227 104.352 173.435 104.491 173.643 104.607C175.426 105.625 176.815 105.486 179.176 104.56C180.611 104.005 182.093 101.76 183.296 99.6994C182.833 101.598 181.977 104.584 181.19 105.51C180.218 106.644 176.167 106.945 174.199 108.38L174.268 108.889C178.944 111.806 182.949 108.033 182.949 108.033C182.463 105.023 183.042 102.061 183.667 99.9309C183.69 99.8846 183.69 99.8383 183.713 99.8151C184.245 98.0559 184.824 96.8985 184.847 96.8753C185.148 96.3661 185.356 96.0188 185.495 95.9031C185.495 95.9031 186.282 95.7411 187.139 95.1855C187.833 94.7457 188.551 94.0512 188.921 93.0096C188.991 92.8012 189.06 92.5698 189.083 92.3151C189.361 90.417 188.713 88.9587 187.856 88.7272Z" fill="#EEC19F"/>
<path d="M169.639 85.1157C169.454 86.3194 169.292 87.9166 169.245 89.7454C169.222 90.3935 169.222 91.0648 169.245 91.7592C169.407 96.875 170.495 102.407 172.741 104.051C172.81 104.097 172.88 104.144 172.949 104.19C171.213 102.708 172.625 99.8842 172.625 99.8842L173.505 97.2454L171.768 96.5972C171.768 96.5972 172.44 91.25 172.556 90.3241C172.671 89.3981 172.602 88.6805 172.44 87.1991C172.37 86.5509 171.838 85.9954 171.282 85.5555C170.449 85.5555 169.94 85.3704 169.639 85.1157Z" fill="#C68660"/>
<path d="M184.847 96.8514C184.824 96.8746 184.245 98.032 183.713 99.7913C184.43 97.8237 186.722 96.3422 186.722 96.3422C186.722 95.995 186.884 95.5783 187.139 95.1616C186.282 95.694 185.495 95.8792 185.495 95.8792C185.356 95.995 185.148 96.3422 184.847 96.8514Z" fill="#101010"/>
<path d="M189.94 89.7456C189.778 89.19 188.25 88.8196 187.857 88.7271C188.736 88.9585 189.384 90.4169 189.107 92.315C189.06 92.5696 189.014 92.8011 188.945 93.0095C189.5 92.4539 189.94 92.0835 189.94 92.0835C190.357 92.0835 190.657 91.6437 190.657 91.6437C190.38 91.1808 190.611 90.44 190.611 90.44C191.051 90.5095 191.398 89.8845 191.398 89.8845C191.398 89.8845 190.125 90.3937 189.94 89.7456Z" fill="#101010"/>
<path d="M176.815 82.9631C173.667 83.403 171.907 82.7317 171.306 81.7131C171.213 81.5511 171.144 81.3659 171.097 81.1807C170.935 80.2548 168.482 78.2872 167.764 76.3428C167.718 77.8474 168.458 79.4215 168.412 80.3011C168.389 80.9724 168.482 81.5743 168.852 82.1067C168.991 82.315 169.176 82.5002 169.407 82.6622C169.569 82.8011 169.778 82.9168 170.009 83.0557C170.102 83.102 170.218 83.1715 170.333 83.2178C170.727 83.403 171.19 83.5418 171.722 83.7039C174.569 84.4678 179.338 82.9631 180.935 82.9631C181.074 82.9631 181.213 82.9863 181.329 83.0094C181.329 83.0094 180.472 82.477 176.815 82.9631Z" fill="#101010"/>
<path d="M183.273 99.6992C182.093 101.759 177.463 105.347 173.644 104.607L173.945 106.621C174.847 106.528 176.722 106.273 178.343 105.671C180.565 104.861 183.273 99.6992 183.273 99.6992Z" fill="#7F4320"/>
<path d="M171.421 99.2832C171.468 99.6767 171.583 100.047 171.769 100.371C172.324 100.07 173.875 100.209 173.875 100.209C173.482 100.279 173.366 100.603 173.366 100.603C173.968 100.093 175.056 100.371 175.519 100.51C176.005 100.047 176.352 99.5841 176.352 99.5841C175.681 99.6304 171.421 99.2832 171.421 99.2832Z" fill="#6D1518"/>
<path d="M173.389 100.603C173.389 100.603 173.505 100.279 173.898 100.209C173.898 100.209 172.347 100.094 171.792 100.371C172.278 101.205 173.134 101.76 173.898 101.621C174.431 101.529 175.056 101.02 175.542 100.534C175.056 100.348 173.991 100.094 173.389 100.603Z" fill="#DE4847"/>
<path d="M178.343 105.671C176.722 106.273 174.824 106.528 173.944 106.621L174.199 108.38C176.167 106.945 180.218 106.644 181.19 105.509C181.977 104.583 182.833 101.574 183.296 99.6992C183.273 99.6992 180.565 104.861 178.343 105.671Z" fill="#C68660"/>
<path d="M183.782 86.8066C184.176 87.8946 184.477 89.0057 184.523 89.8159C184.616 91.6215 184.593 93.8205 184.593 93.8205C184.593 93.8205 185.148 88.265 184.593 87.7094L183.782 86.8066Z" fill="#C68660"/>
<path d="M181.722 83.1951C181.63 83.1025 181.514 83.033 181.329 82.9867C181.213 82.9636 181.097 82.9404 180.935 82.9404C179.338 82.9404 174.546 84.4451 171.722 83.6812C171.167 83.5423 170.727 83.3802 170.333 83.1951C170.218 83.1488 170.102 83.0793 170.009 83.033C169.986 83.1488 169.963 83.2877 169.94 83.4265C169.87 83.8432 169.755 84.3988 169.662 85.0701C170.032 85.3941 170.75 85.6256 172.116 85.4404C174.755 85.1164 179.986 82.871 181.722 83.1951Z" fill="#C68660"/>
<path d="M187.139 90.0003C186.676 89.954 187.139 90.6716 187.139 90.6716C189.06 91.7596 186.838 94.0281 186.838 94.0281C186.838 94.0281 187.903 94.3059 188.227 92.0142C188.528 89.7225 187.139 90.0003 187.139 90.0003Z" fill="#C68660"/>
<path d="M185.796 95.2553C185.796 95.2553 187.926 94.4914 188.25 93.4034C188.597 92.3154 188.944 91.621 188.898 90.9497C188.898 90.9497 189.269 93.334 187.833 94.3756C186.421 95.4173 185.009 96.1349 185.796 95.2553Z" fill="#F8DAC5"/>
<path d="M176.259 90.2549C176.236 90.5095 175.981 90.5327 175.704 90.5327C175.449 90.5095 175.287 90.4401 175.31 90.1854C175.333 89.9308 175.565 89.7456 175.819 89.7456C176.074 89.7688 176.282 90.0002 176.259 90.2549Z" fill="#3A3939"/>
<path d="M171.375 90.0469C171.352 90.3015 171.097 90.3246 170.819 90.3246C170.565 90.3015 170.403 90.232 170.426 89.9774C170.449 89.7228 170.681 89.5376 170.935 89.5376C171.213 89.5607 171.398 89.7691 171.375 90.0469Z" fill="#3A3939"/>
<path d="M174.732 87.6855C174.732 87.6855 174.732 87.8476 175.102 88.0096C175.472 88.1717 177.671 88.7272 177.671 88.7272C177.671 88.7272 177.486 87.7781 177.185 87.7781C176.884 87.8013 174.732 87.6855 174.732 87.6855Z" fill="#3A3939"/>
<path d="M171.653 87.8478C171.653 87.8478 170.611 88.033 170.449 88.1024C170.287 88.195 169.847 88.3107 169.94 88.195C170.032 88.1024 169.94 87.732 170.194 87.6163C170.449 87.5005 171.398 87.4311 171.491 87.4774C171.583 87.5237 171.884 87.7552 171.653 87.8478Z" fill="#3A3939"/>
<path d="M171.954 96.4825L172.486 92.2695L172.648 96.7834L171.954 96.4825Z" fill="#F8DAC5"/>
<path d="M183.111 99.4678C183.019 99.4678 181.607 101.482 180.079 102.199C178.551 102.917 177.949 103.704 177.857 103.403C177.764 103.102 179.593 101.042 180.495 100.625C181.375 100.162 183.111 99.4678 183.111 99.4678Z" fill="#F8DAC5"/>
<path d="M236.884 153.148H204.685V156.528H236.884V153.148Z" fill="#203762"/>
<path d="M204.685 153.148H63.5278V156.528H204.685V153.148Z" fill="#82A2D5"/>
<path d="M236.884 151.551H204.685V154.931H236.884V151.551Z" fill="#336BA8"/>
<path d="M204.685 151.551H63.5278V154.931H204.685V151.551Z" fill="#A8BDE2"/>
<path d="M103.782 223.24H107.88L96.1435 179.467L91.4676 177.847L103.782 223.24Z" fill="#82A2D5"/>
<path d="M63.4815 223.241H67.6019L80.8889 174.167L77 172.824L63.4815 223.241Z" fill="#82A2D5"/>
<path d="M208.204 218.45L209.5 223.241H213.62L212.764 220.024L208.204 218.45Z" fill="#82A2D5"/>
<path d="M169.222 223.24H173.343L177.532 207.777L173.713 206.458L169.222 223.24Z" fill="#82A2D5"/>
<path d="M85.6806 156.481L91.4677 177.847L96.1436 179.468L89.9862 156.481H85.6806Z" fill="#3C6C9F"/>
<path d="M81.375 156.481L77 172.824L80.8889 174.167L85.6805 156.481H81.375Z" fill="#3C6C9F"/>
<path d="M195.727 156.481H191.421L208.204 218.449L212.764 220.023L195.727 156.481Z" fill="#3C6C9F"/>
<path d="M187.116 156.481L173.713 206.458L177.532 207.778L191.421 156.481H187.116Z" fill="#3C6C9F"/>
<path d="M91.1668 146.968H100.195L100.333 146.621L90.7964 146.088L91.1668 146.968Z" fill="#52538C"/>
<path d="M93.2039 151.62H98.2502L100.195 146.967H91.1669L93.2039 151.62Z" fill="#6065A3"/>
<path d="M99.315 144.907H91.7224H90.1252V146.065L90.7965 146.088L100.333 146.62L100.773 146.643L101.769 144.907H99.315Z" fill="#6065A3"/>
<path d="M93.0186 142.408C97.0232 141.181 97.7639 139.63 100.171 137.199C102.602 134.769 99.8936 130.81 100.31 128.264C100.565 126.667 98.9908 123.588 97.2084 121.482C96.5834 120.88 95.9121 120.324 95.2408 119.838C91.1436 117.014 90.5417 128.82 90.5417 128.82C90.5417 128.82 87.7639 127.176 85.9584 133.195C85.0556 136.227 86.5602 139.213 88.2964 141.435C89.5926 142.315 91.2593 142.963 93.0186 142.408Z" fill="#C64E28"/>
<path d="M102.371 129.074C102.394 129.051 102.394 129.028 102.394 129.004C102.324 129.097 102.324 129.143 102.371 129.074Z" fill="#AA3D24"/>
<path d="M94.9168 119.491C94.6853 119.375 94.477 119.306 94.2686 119.282C93.8057 119.213 94.1298 119.282 94.9168 119.491Z" fill="#AA3D24"/>
<path d="M85.8196 138.935C85.727 138.727 85.7038 138.611 85.7038 138.611C85.6575 138.657 85.7038 138.773 85.8196 138.935Z" fill="#AA3D24"/>
<path d="M91.7224 144.907H99.315C100.033 143.981 104.894 137.523 104.894 131.574C104.894 126.041 102.764 128.495 102.394 129.028C102.394 129.051 102.394 129.074 102.371 129.097C102.324 129.166 102.324 129.12 102.394 129.028C102.486 128.403 100.241 124.421 97.2316 121.504C99.014 123.611 100.588 126.69 100.333 128.287C99.9168 130.81 102.602 134.791 100.195 137.222C97.764 139.653 97.0233 141.227 93.0418 142.43C91.2825 142.963 89.6159 142.338 88.3196 141.435C89.7085 143.241 91.2362 144.514 91.7224 144.907Z" fill="#AA3D24"/>
<path d="M97.1159 138.611C97.1159 138.588 97.1159 138.542 97.0927 138.519C96.9538 134.769 96.0742 129.537 95.4955 126.019C95.1946 124.236 94.9399 122.685 94.9862 122.477C95.0094 122.431 95.0094 122.385 94.9862 122.361C94.9399 122.315 94.8936 122.315 94.8473 122.361C94.7316 122.454 94.7779 122.917 95.3103 126.065C95.889 129.537 96.7455 134.722 96.9075 138.426C93.0186 137.037 89.7548 132.408 89.6159 131.945C89.6159 131.922 89.6159 131.898 89.5927 131.875C89.5696 131.829 89.5001 131.806 89.4538 131.852C89.4307 131.875 89.4075 131.922 89.4075 131.968C89.4538 132.315 92.8566 137.246 96.9307 138.658C96.977 140 96.9307 141.158 96.7223 141.922C96.6992 141.968 96.7455 142.037 96.7918 142.037H96.8149C96.8612 142.037 96.9075 142.014 96.9075 141.968C97.0927 141.158 97.139 140 97.1159 138.611C97.0927 138.611 97.0927 138.611 97.1159 138.611Z" fill="#FBB25A"/>
<path d="M103.505 130.116C103.458 130.093 103.389 130.093 103.366 130.139C103.343 130.186 100.796 133.959 96.9769 135.649C96.9306 135.672 96.9074 135.741 96.9306 135.788C96.9537 135.834 96.9769 135.857 97.0232 135.857C97.0463 135.857 97.0463 135.857 97.0695 135.857C100.935 134.144 103.528 130.325 103.551 130.278C103.551 130.209 103.551 130.139 103.505 130.116Z" fill="#FBB25A"/>
<path d="M49.5695 201.759C49.5926 200.856 49.6158 199.953 49.6158 199.004C49.6158 198.032 49.5926 197.083 49.5695 196.157C47.8796 196.666 46.2593 197.106 45.75 197.638C46.4445 196.898 47.9028 195.069 49.4306 193.657C48.8287 185.509 46.9074 179.56 44.6389 179.56C43.2269 179.56 41.9537 181.874 41.0509 185.555C42.3935 186.759 43.6667 188.194 44.5 188.587C43.25 187.985 42 187.546 40.7037 187.175C40.6343 187.569 40.5417 187.985 40.4722 188.425C41.4907 191.273 43.2963 196.157 45.0093 199.49C46.375 202.222 48.2037 202.268 49.5695 201.759Z" fill="#C64E28"/>
<path d="M39.7315 202.268C41.6528 203.24 43.5278 204.397 44.3843 204.629C42.8565 204.235 41.3287 203.958 39.801 203.703C39.963 206.434 40.2871 208.911 40.7269 211.064C41.7222 211.62 42.6945 212.106 43.5741 212.198C42.6945 212.129 41.8148 212.036 40.9121 211.967C41.8148 215.948 43.1574 218.471 44.6389 218.471C46.4213 218.471 47.9722 214.837 48.8519 209.351C47.5324 209.675 46.213 210.022 44.9167 210.393C45.7963 210.138 47.3935 208.865 49.0833 207.8C49.3148 205.948 49.5 203.911 49.5695 201.782C48.2037 202.291 46.375 202.245 44.9861 199.513C43.2963 196.18 41.4676 191.295 40.4491 188.448C39.9398 191.481 39.6389 195.115 39.6389 199.004C39.6621 200.138 39.6852 201.226 39.7315 202.268Z" fill="#AA3D24"/>
<path d="M63.4352 188.24C62.2547 187.477 60.0093 188.541 57.3473 190.856C57.8334 192.5 58.1806 194.259 58.6436 195.023C57.926 193.889 57.0926 192.87 56.1899 191.898C53.9676 194.051 51.5371 196.944 49.2454 200.324C48.6667 201.157 48.1343 202.014 47.625 202.847C48.7362 204.629 49.7084 206.528 50.2871 207.153C49.2223 206.041 48.088 205 46.9306 203.981C45.6806 206.134 44.6621 208.217 43.9213 210.069C44.4537 211.018 45.0325 211.921 45.7037 212.453C45.0093 211.921 44.3149 211.389 43.6204 210.833C43.4352 211.342 43.2732 211.805 43.1343 212.268C42.301 215.069 42.301 217.106 43.3658 217.778C44.8473 218.727 48.0186 216.805 51.5834 213.125C50.9352 212.893 50.2639 212.639 49.6158 212.407C48.9908 212.199 48.3889 211.991 47.7639 211.782C48.2732 211.944 49.176 211.967 50.2176 211.99C50.9584 212.014 51.7686 212.014 52.5787 212.06C54.2223 210.231 55.9121 208.078 57.5325 205.671C58.0186 204.93 58.5047 204.213 58.9445 203.472C58.551 203.356 58.1806 203.24 57.8102 203.125C56.5834 202.754 55.5186 202.453 54.9862 202.546C55.8889 202.361 57.8797 201.828 59.7778 201.551C59.8936 201.528 60.0093 201.528 60.125 201.504C60.1945 201.389 60.2639 201.25 60.3334 201.134C63.9213 194.815 65.2871 189.444 63.4352 188.24Z" fill="#FBB25A"/>
<path d="M36.6992 201.944C35.3335 201.921 33.9909 201.968 32.6714 202.06C33.389 204.236 34.1298 206.227 34.8937 208.055C35.4492 207.708 35.9816 207.199 36.3289 206.412C36.7918 205.324 36.8844 204.005 36.6992 201.944Z" fill="#F28431"/>
<path d="M34.6621 188.449C33.5741 181.736 33.088 177.592 32.8797 175.254C31.7223 173.68 30.6575 172.893 29.8241 173.125C28.4584 173.472 27.9491 176.435 28.2269 180.903C29.8936 181.967 31.5834 183.264 32.4862 183.518C31.0973 183.125 29.7315 182.94 28.3889 182.847C28.7825 186.759 29.6852 191.551 31.0741 196.666C31.4213 197.94 31.7917 199.19 32.1621 200.393C33.8982 200.903 35.6343 201.551 36.7223 201.805C36.4676 199.097 35.7269 195.046 34.6621 188.449Z" fill="#F28431"/>
<path d="M36.6992 201.829C36.6992 201.852 36.6992 201.898 36.6992 201.921C36.9306 201.921 37.139 201.921 37.3704 201.944C37.2084 201.944 36.9769 201.898 36.6992 201.829Z" fill="#C64E28"/>
<path d="M38.9676 210.834C38.0879 210.972 37.2083 211.088 36.3287 211.227C38.4583 215.579 40.5185 218.125 41.9537 217.755C43.6667 217.315 44.037 212.732 43.1805 206.25C42 206.945 40.8426 207.685 39.6852 208.426C40.4491 207.917 41.6065 206.042 42.9028 204.398C42.4166 201.297 41.6759 197.824 40.6805 194.19C40.3796 193.079 40.0555 191.991 39.7315 190.949C38.25 191.945 36.8379 192.871 36.4907 193.611C36.9305 192.593 37.787 190.116 38.8055 188.102C36.8842 182.408 34.7315 177.801 32.8333 175.255C33.0648 177.57 33.5509 181.736 34.6157 188.449C35.6805 195.047 36.3981 199.097 36.6528 201.829C36.9305 201.898 37.162 201.945 37.3472 201.945C37.1157 201.945 36.8842 201.922 36.6759 201.922C36.8611 204.005 36.7454 205.301 36.2824 206.389C35.9583 207.176 35.4259 207.685 34.8472 208.033C35.1713 208.797 35.4954 209.537 35.8194 210.232C37 210.648 38.0879 210.972 38.9676 210.834Z" fill="#D86E27"/>
<path d="M56.1436 214.815L55.6344 217.292L53.4816 227.986H33.5279L31.3751 217.292L30.8658 214.815H56.1436Z" fill="#828AC4"/>
<path d="M56.1436 213.773V214.815L55.6344 217.291H31.3751L30.8658 214.815V213.773H56.1436Z" fill="#52538C"/>
<path d="M57.6714 211.551H28.551V215.833H57.6714V211.551Z" fill="#828AC4"/>
<path opacity="0.68" d="M55.9353 215.81H46.9307L33.5279 227.986H53.4816L55.9353 215.81Z" fill="#3D3F70"/>
<path d="M170.981 150.463C170.935 150.949 170.727 151.366 170.403 151.597L177.833 151.62L170.981 150.463Z" fill="#4F81C2"/>
<path d="M168.551 150.324C168.551 149.722 168.852 149.19 169.269 148.958H139.222C139.222 148.958 138.273 150.301 139.222 151.551L169.13 151.621C168.782 151.343 168.551 150.857 168.551 150.324Z" fill="#203762"/>
<path d="M170.981 150.463L177.833 151.62H178.759V150.532L169.245 148.935C168.829 149.167 168.528 149.699 168.528 150.301C168.528 150.833 168.759 151.319 169.106 151.574H170.403C170.727 151.366 170.958 150.949 170.981 150.463Z" fill="#A8BDE2"/>
<path d="M139.454 149.398H160.889C160.889 149.398 137.509 150.578 139.454 149.398Z" fill="#A8BDE2"/>
<path d="M164.014 142.014H105.194C104.037 142.014 103.065 141.135 102.972 139.977L99.7315 103.519C99.5695 101.713 101.005 100.139 102.81 100.139L160.542 100.023C161.699 100.023 162.671 100.903 162.787 102.06L166.259 139.584C166.352 140.88 165.333 142.014 164.014 142.014Z" fill="#203762"/>
<path d="M108.204 117.431C117.81 126.181 123.042 123.102 131.607 130.278C138.181 135.787 148.991 140.069 158.644 142.014H162.625C163.944 142.014 164.986 140.88 164.847 139.56L161.375 102.037C161.259 100.88 160.287 100 159.13 100L101.398 100.116C99.5695 100.116 98.1575 101.69 98.3195 103.495L98.4352 104.769C100.009 107.963 102.926 112.616 108.204 117.431Z" fill="#4F81C2"/>
<path d="M103.829 142.014H158.667C149.014 140.069 138.204 135.764 131.63 130.278C123.042 123.102 117.833 126.181 108.227 117.431C102.926 112.616 100.033 107.963 98.5048 104.769L101.63 139.977C101.699 141.134 102.671 142.014 103.829 142.014Z" fill="#3C6C9F"/>
<path d="M130.125 110.024C130.125 109.561 130.264 109.121 130.495 108.751C130.38 108.728 130.264 108.728 130.125 108.728C128.597 108.728 127.37 110.163 127.37 111.922C127.37 113.681 128.597 115.116 130.125 115.116C131.468 115.116 132.602 113.982 132.833 112.478C132.741 112.478 132.671 112.501 132.579 112.501C131.213 112.478 130.125 111.39 130.125 110.024Z" fill="#BDD1ED"/>
<path d="M109.245 148.148C107.764 148.657 106.491 149.629 105.611 150.393C104.361 151.458 105.357 151.805 105.357 151.805H111.514C113.111 149.884 110.796 148.704 109.245 148.148Z" fill="#4F81C2"/>
<path d="M111.213 147.801C110.519 147.801 109.87 147.94 109.245 148.148C110.796 148.704 113.111 149.884 111.514 151.805H115.171C119.732 151.805 113.551 147.801 111.213 147.801Z" fill="#203762"/>
<path d="M147.556 150.37H130.194L136.468 118.727H126.537L115.542 151.828H127.556C127.764 150.972 128.204 149.537 128.551 150.162C129.06 151.018 137.532 151.504 139.407 151.296C141.282 151.088 148.458 151.852 148.458 151.852V151.319C148.481 150.764 148.065 150.37 147.556 150.37Z" fill="#336BA8"/>
<path d="M139.407 151.249C137.694 151.458 130.449 151.041 128.852 150.323L135.125 118.703H125.194L114.199 151.805H127.579H128.574H129.917H148.481C148.481 151.805 141.282 151.041 139.407 151.249Z" fill="#203762"/>
<path d="M125.194 120.069L115.542 150.74H118.273L125.194 120.069Z" fill="#336BA8"/>
<path d="M193.204 125.973L186.907 151.621H188.157L194.454 125.973H193.204Z" fill="#203762"/>
<path d="M213.945 125.973H194.685C195.171 126.899 195.935 128.959 196.097 133.01C196.329 139.028 196.56 142.223 199.107 144.005C200.889 145.232 205.125 148.635 207.533 150.579C207.926 150.903 208.273 151.181 208.551 151.412L215.172 125.973H213.945Z" fill="#497BBE"/>
<path d="M207.278 151.62H208.528L208.574 151.412C208.296 151.18 207.949 150.903 207.556 150.579L207.278 151.62Z" fill="#3C6C9F"/>
<path d="M199.13 144.005C196.583 142.223 196.352 139.051 196.121 133.01C195.958 128.959 195.195 126.899 194.709 125.973H194.477L188.158 151.621H207.278L207.556 150.579C205.148 148.635 200.912 145.255 199.13 144.005Z" fill="#3C6C9F"/>
<path d="M210.426 151.551L203.806 134.213H202.764L203.366 135.949L199.477 151.621L210.426 151.551Z" fill="#203762"/>
<path d="M201.676 145.255C202.301 147.616 203.32 150.463 203.736 151.598L209.408 151.551L202.787 134.213C202.764 134.213 200.889 142.223 201.676 145.255Z" fill="#5D8CC9"/>
<path d="M203.713 151.598C203.296 150.463 202.278 147.616 201.653 145.255C200.866 142.223 202.764 134.213 202.764 134.213L198.435 151.621L203.713 151.598Z" fill="#3A6492"/>
<defs>
<linearGradient id="paint0_linear_605_1961" x1="107.975" y1="20.8935" x2="230.315" y2="213.801" gradientUnits="userSpaceOnUse">
<stop stop-color="#A7DCDE"/>
<stop offset="1" stop-color="#5BADA9"/>
</linearGradient>
</defs>
</svg>
