<svg width="28" height="22" viewBox="0 0 28 22" fill="none" xmlns="http://www.w3.org/2000/svg">
<g clip-path="url(#clip0_3517_16225)">
<path d="M10.6667 17.6665V11.6665C10.6667 10.5623 11.5626 9.6665 12.6667 9.6665H23.3334C24.4376 9.6665 25.3334 10.5623 25.3334 11.6665V17.6665H26.6667C27.0334 17.6665 27.3334 17.9665 27.3334 18.3332V18.9998C27.3334 20.4707 26.1376 21.6665 24.6667 21.6665H11.3334C9.86258 21.6665 8.66675 20.4707 8.66675 18.9998V18.3332C8.66675 17.9665 8.96675 17.6665 9.33341 17.6665H10.6667ZM22.6667 17.6665V12.3332H13.3334V17.6665H22.6667Z" fill="#999999"/>
<path opacity="0.4" d="M8.66675 4.33325C8.66675 5.07075 9.26258 5.66659 10.0001 5.66659H14.0001V8.33325H12.6667C10.8251 8.33325 9.33341 9.82492 9.33341 11.6666V16.3333C8.46258 16.3333 7.72091 16.8916 7.44591 17.6666H2.66675C1.56216 17.6666 0.666748 16.7708 0.666748 15.6666V2.33325C0.666748 1.22867 1.56216 0.333252 2.66675 0.333252H8.66675V4.33325ZM14.0001 4.33325H10.0001V0.333252L14.0001 4.33325Z" fill="#999999"/>
</g>
<defs>
<clipPath id="clip0_3517_16225">
<rect width="26.6667" height="21.3333" fill="white" transform="translate(0.666748 0.333252)"/>
</clipPath>
</defs>
</svg>
