<svg width="32" height="32" viewBox="0 0 32 32" fill="none" xmlns="http://www.w3.org/2000/svg">
<g clip-path="url(#clip0_1156_53601)">
<path d="M32.0002 13.5188C32.0002 13.1359 31.8537 12.7531 31.5608 12.4606L30.1439 11.05C29.8509 10.7571 29.4664 10.6108 29.1377 10.6108C28.8089 10.6108 28.3683 10.7572 28.1314 11.05L27.7799 11.4016L20.6002 4.33L20.9518 3.97844C21.2447 3.68544 21.3911 3.30094 21.3911 2.97219C21.3911 2.64344 21.2447 2.20281 20.9518 1.96594L19.538 0.552188C19.2439 0.1465 18.8627 0 18.4814 0C18.1002 0 17.7221 0.1465 17.4289 0.439438L9.6377 8.21875C9.3502 8.5125 9.2002 8.89375 9.2002 9.28125C9.2002 9.66875 9.3467 10.0469 9.63963 10.34L11.0534 11.7537C11.3464 12.0468 11.7309 12.1932 12.0596 12.1932C12.4444 12.1932 12.829 12.0467 13.0659 11.7537L13.4174 11.4022L20.4862 18.4709L20.1346 18.8223C19.8416 19.1152 19.6952 19.4998 19.6952 19.8285C19.6952 20.1573 19.8417 20.5979 20.1346 20.8347L21.5484 22.2485C21.8414 22.5415 22.224 22.6879 22.6071 22.6879C22.9903 22.6879 23.3728 22.5414 23.6659 22.2485L31.4471 14.461C31.8564 14.2812 32.0002 13.9062 32.0002 13.5188Z" fill="#159A00"/>
<path opacity="0.4" d="M13.4122 21.4125C13.8028 21.8032 13.9981 22.315 13.9981 22.8262C13.9981 23.3379 13.8028 23.8494 13.4121 24.24L6.24331 31.4087C5.85094 31.8062 5.33906 32 4.82781 32C4.31656 32 3.80469 31.8047 3.41406 31.4141L0.585938 28.5859C0.195312 28.1954 0 27.6841 0 27.1722C0 26.6603 0.195312 26.1491 0.585938 25.7584L7.75594 18.5875C8.14656 18.197 8.65844 18.0017 9.16969 18.0017C9.68094 18.0017 10.1934 18.1937 10.5872 18.5875L15.6534 13.5212L18.4816 16.3494L13.4122 21.4125Z" fill="#159A00"/>
</g>
<defs>
<clipPath id="clip0_1156_53601">
<rect width="32" height="32" fill="white"/>
</clipPath>
</defs>
</svg>
