<svg width="28" height="28" viewBox="0 0 28 28" fill="none" xmlns="http://www.w3.org/2000/svg">
<g clip-path="url(#clip0_1156_53606)">
<path d="M17.5 5.25H10.5L7.90781 1.36172C7.51953 0.776563 7.93516 0 8.63516 0H19.3648C20.0648 0 20.4805 0.776563 20.0922 1.36172L17.5 5.25ZM10.5 7H17.5C17.7078 7.13672 17.943 7.28984 18.2109 7.45937C21.3117 9.44453 28 13.7211 28 22.75C28 25.6484 25.6484 28 22.75 28H5.25C2.35156 28 0 25.6484 0 22.75C0 13.7211 6.68828 9.44453 9.78906 7.45937C10.0516 7.28984 10.2922 7.13672 10.5 7ZM15.0992 12.25C15.0992 11.643 14.607 11.1508 14 11.1508C13.393 11.1508 12.9008 11.643 12.9008 12.25V12.5781C12.5945 12.6438 12.3047 12.7367 12.0312 12.857C11.2109 13.2289 10.5055 13.918 10.3305 14.9187C10.232 15.4766 10.2867 16.0125 10.5164 16.5047C10.7461 16.9859 11.1016 17.325 11.4625 17.5711C12.0969 18.0031 12.9336 18.2547 13.5734 18.4461L13.6937 18.4844C14.4539 18.7141 14.9734 18.8891 15.2961 19.1242C15.4328 19.2227 15.482 19.2992 15.5039 19.3484C15.5203 19.3922 15.5531 19.4906 15.5148 19.7148C15.482 19.9062 15.3781 20.0648 15.0773 20.1961C14.7438 20.3383 14.2023 20.4094 13.5023 20.3C13.1742 20.2453 12.5891 20.0484 12.0695 19.868C11.9492 19.8242 11.8344 19.7859 11.725 19.7531C11.1508 19.5617 10.5328 19.8734 10.3414 20.4477C10.15 21.0219 10.4617 21.6398 11.0359 21.8313C11.1016 21.8531 11.1836 21.8805 11.2766 21.9133C11.7086 22.0609 12.3867 22.2906 12.9062 22.4109V22.75C12.9062 23.357 13.3984 23.8492 14.0055 23.8492C14.6125 23.8492 15.1047 23.357 15.1047 22.75V22.4492C15.4 22.3945 15.6789 22.3125 15.9469 22.1977C16.8055 21.8312 17.5 21.1203 17.675 20.0813C17.7734 19.5125 17.7297 18.9711 17.5109 18.4734C17.2977 17.9812 16.9531 17.6203 16.5867 17.3523C15.9195 16.8711 15.0391 16.6031 14.3773 16.4008L14.3336 16.3898C13.557 16.1547 13.032 15.9906 12.6984 15.7664C12.5562 15.668 12.5125 15.6023 12.5016 15.575C12.4906 15.5586 12.4633 15.4875 12.4961 15.3016C12.5125 15.1977 12.6 15.0172 12.9445 14.8586C13.2945 14.7 13.8414 14.6125 14.5086 14.7164C14.7437 14.7547 15.4875 14.8969 15.6953 14.9516C16.2805 15.1047 16.8766 14.7602 17.0352 14.175C17.1938 13.5898 16.8438 12.9937 16.2586 12.8352C16.018 12.7695 15.4711 12.6602 15.1102 12.5945V12.25H15.0992Z" fill="#EF631A"/>
</g>
<defs>
<clipPath id="clip0_1156_53606">
<rect width="28" height="28" fill="white"/>
</clipPath>
</defs>
</svg>
