<svg width="28" height="28" viewBox="0 0 28 28" fill="none" xmlns="http://www.w3.org/2000/svg">
<path d="M17.1391 1.79823C18.5609 2.08261 19.4852 3.4662 19.2008 4.88808L19.075 5.51151C18.7852 6.97167 18.2492 8.36073 17.5 9.62401H25.375C26.8242 9.62401 28 10.7998 28 12.249C28 13.6326 26.9336 14.7646 25.5773 14.8685C25.9984 15.3334 26.25 15.9514 26.25 16.624C26.25 17.9037 25.3313 18.9701 24.1227 19.1998C24.3633 19.5935 24.5 20.0639 24.5 20.5615C24.5 21.7264 23.7398 22.7162 22.6898 23.0553C22.7281 23.2357 22.75 23.4271 22.75 23.624C22.75 25.0732 21.5742 26.249 20.125 26.249H16.1055C15.0664 26.249 14.0547 25.9428 13.1906 25.3685L11.0852 23.9631C9.625 22.9896 8.75 21.349 8.75 19.5935V17.499V14.874V13.5123C8.75 11.9154 9.47734 10.4115 10.7188 9.41073L11.1234 9.08808C12.5727 7.9287 13.5625 6.29901 13.9234 4.48339L14.0492 3.85995C14.3336 2.43808 15.7172 1.51386 17.1391 1.79823ZM1.75 10.499H5.25C6.21797 10.499 7 11.281 7 12.249V24.499C7 25.467 6.21797 26.249 5.25 26.249H1.75C0.782031 26.249 0 25.467 0 24.499V12.249C0 11.281 0.782031 10.499 1.75 10.499Z" fill="#159A00"/>
</svg>
