<svg width="38" height="38" viewBox="0 0 38 38" fill="none" xmlns="http://www.w3.org/2000/svg">
<path d="M19.001 3L19.7199 3.27657L32.6899 8.31133L33.8901 8.77647L33.9651 10.0713C34.1463 13.1952 33.6588 17.966 31.6336 22.6299C29.5896 27.3316 25.9392 32.0018 19.7886 34.6606L19.001 35L18.2135 34.6606C12.0628 32.0018 8.41245 27.3316 6.36849 22.6299C4.33704 17.9597 3.84949 13.189 4.037 10.065L4.11201 8.77018L5.31214 8.31133L18.2822 3.28285L19.001 3ZM26.0643 15.7786L27.1269 14.7101L25.0017 12.5793L23.939 13.6478L17.0008 20.6248L14.063 17.6706L13.0004 16.602L10.8815 18.7329L11.9441 19.8014L15.9445 23.8242L17.0071 24.8928L18.0697 23.8242L26.0643 15.7786Z" fill="#0142AF"/>
</svg>
