<svg width="22" height="22" viewBox="0 0 22 22" fill="none" xmlns="http://www.w3.org/2000/svg">
<path d="M21.3521 18.2465C22.2114 19.1059 22.2114 20.4979 21.3521 21.3572C20.9259 21.7869 20.3622 22 19.7985 22C19.2347 22 18.6724 21.7852 18.2435 21.3555L10.9991 14.115L3.75552 21.3538C3.32587 21.7869 2.76285 22 2.19983 22C1.63681 22 1.07448 21.7869 0.644481 21.3538C-0.214827 20.4945 -0.214827 19.1024 0.644481 18.2431L7.89016 10.9974L0.644481 3.75518C-0.214827 2.89587 -0.214827 1.50379 0.644481 0.644481C1.50379 -0.214827 2.89587 -0.214827 3.75518 0.644481L10.9991 7.8936L18.2448 0.647918C19.1041 -0.21139 20.4962 -0.21139 21.3555 0.647918C22.2148 1.50723 22.2148 2.8993 21.3555 3.75861L14.1098 11.0043L21.3521 18.2465Z" fill="#333333"/>
</svg>
