<svg width="22" height="22" viewBox="0 0 22 22" fill="none" xmlns="http://www.w3.org/2000/svg">
<path d="M20.8815 17.9172C21.7018 18.7374 21.7018 20.0662 20.8815 20.8865C20.4747 21.2966 19.9366 21.5 19.3985 21.5C18.8604 21.5 18.3237 21.2949 17.9142 20.8848L10.9992 13.9734L4.08481 20.8832C3.67469 21.2966 3.13726 21.5 2.59984 21.5C2.06241 21.5 1.52564 21.2966 1.11519 20.8832C0.294938 20.0629 0.294938 18.7341 1.11519 17.9139L8.03152 10.9975L1.11519 4.08449C0.294938 3.26424 0.294938 1.93543 1.11519 1.11519C1.93543 0.294938 3.26424 0.294938 4.08449 1.11519L10.9992 8.0348L17.9155 1.11847C18.7358 0.298219 20.0646 0.298219 20.8848 1.11847C21.7051 1.93872 21.7051 3.26752 20.8848 4.08777L13.9685 11.0041L20.8815 17.9172Z" fill="#E6E6E6"/>
</svg>
