<svg width="142" height="83" viewBox="0 0 142 83" fill="none" xmlns="http://www.w3.org/2000/svg">
<path d="M116.312 42.6214C115.635 53.0759 107.597 63.0579 96.7106 63.6771C84.2069 64.6329 72.7299 57.7917 60.2748 57.7195C53.9233 57.1763 47.9675 59.6024 41.7781 60.3856C27.799 60.8975 25.6688 44.5089 28.2768 33.9451C39.2713 -15.8559 117.073 -9.07986 116.312 42.6214Z" fill="#FBFBFB"/>
<path d="M116.044 83H106.475L102.955 66.2584L100.515 83H90.4893L91.8687 70.5365L92.7371 62.6954L93.2607 57.9669L106.862 54.47L113.003 54.8077L116.044 83Z" fill="#009EDA"/>
<path d="M102.36 65.0129L97.4899 62.1618L96.1156 61.3571C96.0269 61.3056 95.9632 61.4499 96.0502 61.5009L100.92 64.3516L102.294 65.1562C102.382 65.2077 102.447 65.0635 102.36 65.0125" fill="#389688"/>
<path d="M102.067 65.3729L98.5804 64.4868C98.4818 64.4619 98.4577 64.6178 98.5556 64.6428L102.042 65.5288C102.14 65.5538 102.165 65.3978 102.067 65.3729Z" fill="#389688"/>
<path d="M113.677 71.4367C113.282 68.0114 112.888 64.5862 112.494 61.161C112.271 59.2211 112.048 57.2813 111.824 55.3415C111.822 55.3212 111.811 55.3028 111.795 55.2902C111.778 55.2776 111.758 55.2719 111.737 55.2742C111.717 55.2765 111.698 55.2867 111.685 55.3025C111.672 55.3184 111.666 55.3387 111.667 55.3592L112.856 65.6874C113.25 69.1126 113.644 72.5378 114.038 75.963C114.262 77.9027 114.485 79.8425 114.708 81.7824C114.711 81.8027 114.722 81.8211 114.738 81.8337C114.754 81.8463 114.775 81.852 114.795 81.8497C114.816 81.8474 114.835 81.8372 114.848 81.8214C114.861 81.8055 114.867 81.7852 114.865 81.7647L113.677 71.4367Z" fill="#389688"/>
<path d="M125.986 21.5109C125.838 22.8728 125.466 24.2013 125.097 25.5216C124.757 26.7353 124.418 27.949 124.08 29.1628L120.252 29.0686C119.85 28.8101 119.51 28.4655 119.258 28.0597C118.917 27.4807 118.64 26.8662 118.433 26.2272C118.226 25.5879 117.934 24.979 117.565 24.4169C117.399 24.2228 117.267 24.0012 117.177 23.762C117.108 23.5155 117.188 23.2045 117.423 23.1059C117.678 22.9997 117.955 23.1836 118.163 23.3659C118.916 24.0248 119.563 24.7951 120.081 25.6501L120.091 25.644C120.163 23.4556 120.235 21.2673 120.307 19.079C120.304 18.9553 120.324 18.8321 120.366 18.7156C120.387 18.6573 120.424 18.6059 120.472 18.5669C120.52 18.5279 120.578 18.5029 120.64 18.4945C120.869 18.4811 120.993 18.7531 121.048 18.9758C121.398 20.3879 121.586 21.8352 121.608 23.2898C121.713 21.7635 121.867 20.2408 122.068 18.7216C122.112 18.403 122.164 18.0639 122.381 17.8264C122.419 17.7778 122.468 17.7387 122.524 17.712C122.579 17.6853 122.64 17.6717 122.702 17.6724C122.931 17.6947 123.02 17.9788 123.05 18.2075C123.267 19.8877 123.294 21.5871 123.129 23.2733L123.137 23.2747C123.412 21.8382 123.689 20.4012 123.965 18.9638C123.97 18.8866 123.99 18.8111 124.025 18.7418C124.059 18.6726 124.107 18.6108 124.166 18.5602C124.377 18.4273 124.653 18.6186 124.773 18.8369C124.981 19.2224 124.956 19.6865 124.909 20.1238C124.755 21.3661 124.535 22.5995 124.251 23.8188C124.571 22.9414 124.902 22.0682 125.246 21.1993C125.315 21.0223 125.419 20.8212 125.607 20.7987C125.685 20.7968 125.762 20.8202 125.826 20.8655C125.889 20.9108 125.936 20.9755 125.96 21.0499C126.003 21.1993 126.012 21.3567 125.985 21.5101" fill="#FCE0D1"/>
<path d="M92.7364 62.6954L91.867 70.5364C91.0935 70.3063 90.317 69.2314 90.0814 68.6096C89.591 67.4607 89.7191 66.1904 89.7127 64.9675C89.7728 64.1168 89.4613 63.0973 89.8901 62.3352C90.5402 61.8649 91.4418 62.3116 92.1394 62.4741C92.3484 62.5165 92.5496 62.591 92.7357 62.695" fill="#E88846"/>
<path d="M123.967 28.9582L119.925 28.8587L119.7 28.8524L118.793 32.4646C118.793 32.4646 116.595 27.5086 114.777 25.3138C112.96 23.119 106.862 23.1789 106.862 23.1789L98.662 24.8515C98.662 24.8515 93.0182 28.167 91.3684 29.3142C89.7186 30.4613 88.863 30.7013 88.5102 37.0403C88.1575 43.3793 88.7746 62.9683 88.7746 62.9683C88.7746 62.9683 90.1061 64.1455 92.6777 63.2239L93.1935 58.5651C93.1935 58.5651 100.897 62.0058 106.18 55.4016C106.18 55.4016 111.354 55.3352 113.002 54.8081L112.651 45.4646L113.002 38.6206C113.002 38.6206 116.478 45.9253 120.611 45.7713C124.744 45.6173 124.349 36.1426 124.436 28.9697L123.967 28.9582ZM94.226 50.2902L94.3731 41.8966L95.1055 46.0207L94.226 50.2902Z" fill="#EF631A"/>
<path d="M106.861 23.1793C106.861 23.1793 106.763 24.033 106.548 25.0541H106.546C106.298 26.2249 105.894 27.6169 105.308 28.1944L104.604 27.8882L103.299 30.5046L100.763 28.7498L100.103 29.3212C100.103 29.3212 98.2196 28.3553 97.3623 25.6364C97.3623 25.6364 97.5397 24.5796 98.9204 24.5335L98.9418 25.2907L102.405 26.8782L105.3 23.8795L105.038 23.0682H105.039C105.64 22.8809 106.288 22.9204 106.861 23.1793" fill="#F4E9DC"/>
<path d="M124.401 23.4686C123.429 23.1553 122.414 22.9896 121.393 22.9773C121.291 22.9761 121.31 23.1329 121.41 23.1341C122.404 23.1466 123.39 23.3077 124.336 23.612C124.431 23.643 124.498 23.4994 124.401 23.4683" fill="#C4532C"/>
<path d="M123.33 24.5851C122.67 24.9502 122.067 25.4078 121.538 25.9441C121.467 26.0165 121.589 26.1158 121.66 26.0439C122.181 25.5186 122.774 25.0703 123.422 24.7127C123.511 24.6635 123.417 24.5357 123.329 24.5851" fill="#C4532C"/>
<path d="M93.9688 35.0092L93.8556 32.9815C93.8499 32.8803 93.6927 32.8978 93.6984 32.9992C93.8319 35.3946 93.9656 37.79 94.0995 40.1854C94.1371 40.8614 94.1749 41.5373 94.2127 42.2131C94.2184 42.3143 94.3756 42.2968 94.3699 42.1954C94.2361 39.8 94.1024 37.4046 93.9688 35.0092Z" fill="#8E2323"/>
<path d="M113.05 38.3464C112.647 37.1203 112.202 35.9089 111.717 34.7121C111.577 34.3685 111.434 34.0263 111.288 33.6855C111.248 33.5924 111.101 33.6491 111.141 33.7429C111.649 34.9291 112.117 36.1316 112.545 37.3504C112.667 37.7001 112.787 38.0509 112.902 38.4031C112.934 38.4995 113.081 38.4422 113.05 38.3457" fill="#8E2323"/>
<path d="M112.44 38.2874L110.252 35.5883C110.188 35.5096 110.06 35.602 110.124 35.6811L112.312 38.3801C112.376 38.4589 112.504 38.3665 112.44 38.2874Z" fill="#8E2323"/>
<path d="M118.626 32.6564C118.237 34.0842 117.848 35.5123 117.459 36.9408C117.349 37.3451 117.239 37.7495 117.129 38.154C117.102 38.2518 117.259 38.2757 117.285 38.1787C117.674 36.7509 118.063 35.3228 118.452 33.8943L118.783 32.681C118.809 32.5833 118.653 32.5592 118.626 32.6564" fill="#8E2323"/>
<path d="M109.679 51.8693L106.446 55.2525C106.375 55.3261 106.499 55.4256 106.568 55.3525C107.646 54.2246 108.724 53.0969 109.801 51.9693C109.872 51.8957 109.748 51.7962 109.679 51.8693" fill="#8E2323"/>
<path d="M107.74 52.5919C106.537 53.9809 105.311 55.3707 103.848 56.4968C102.461 57.565 100.85 58.3946 99.0926 58.6142C98.069 58.7528 97.027 58.6524 96.0489 58.3209C95.9534 58.2873 95.8874 58.4309 95.9836 58.4647C97.7223 59.0758 99.6453 58.8718 101.325 58.1721C102.989 57.4784 104.42 56.3389 105.686 55.0755C106.447 54.3144 107.157 53.505 107.861 52.6917C107.928 52.6145 107.805 52.5147 107.739 52.5917" fill="#8E2323"/>
<path d="M94.0689 50.4976C93.745 51.5771 93.4881 52.6755 93.2998 53.7866C93.2068 54.3357 93.1307 54.8872 93.0716 55.4414C93.0159 55.9621 92.963 56.4881 92.9565 57.0121C92.9499 57.5254 93.0195 58.0602 93.3353 58.4836C93.3479 58.4996 93.3663 58.5101 93.3866 58.5129C93.4068 58.5157 93.4273 58.5106 93.4439 58.4986C93.4604 58.4866 93.4717 58.4687 93.4753 58.4486C93.4789 58.4285 93.4745 58.4078 93.4632 58.3909C93.2102 58.0061 93.0876 57.5505 93.1133 57.091C93.1206 56.573 93.1561 56.0557 93.2198 55.5416C93.3323 54.4586 93.5097 53.3833 93.7511 52.3214C93.8884 51.7164 94.0464 51.1167 94.2252 50.5222C94.2541 50.4254 94.0976 50.4017 94.0689 50.4976" fill="#8E2323"/>
<path d="M106.581 37.795C104.868 39.0225 103.306 40.4459 101.926 42.0361C101.536 42.4855 101.161 42.9476 100.803 43.4222C100.742 43.5031 100.864 43.6032 100.925 43.5222C102.191 41.8497 103.65 40.3315 105.271 38.9988C105.726 38.6247 106.194 38.266 106.673 37.9226C106.689 37.91 106.699 37.8917 106.702 37.8715C106.705 37.8513 106.7 37.8308 106.688 37.8143C106.676 37.7978 106.658 37.7866 106.638 37.783C106.617 37.7794 106.597 37.7837 106.58 37.795" fill="#8E2323"/>
<path d="M105.84 41.1384L103.054 43.0461C102.969 43.1036 103.063 43.2312 103.147 43.1737L105.932 41.2667C106.016 41.2092 105.923 41.0815 105.839 41.1391" fill="#8E2323"/>
<path d="M102.296 27.1602C101.764 27.6252 101.264 28.1254 100.8 28.6574C100.733 28.7342 100.855 28.8344 100.922 28.7574C101.377 28.2354 101.867 27.7446 102.389 27.2883C102.465 27.2219 102.373 27.0936 102.296 27.1607" fill="#E2CAB0"/>
<path d="M104.606 27.7712C104.036 27.4637 103.443 27.1998 102.832 26.9818C102.737 26.9476 102.671 27.0912 102.767 27.1255C103.377 27.3435 103.97 27.6074 104.541 27.9149C104.629 27.9632 104.695 27.8192 104.606 27.7712" fill="#E2CAB0"/>
<path d="M104.468 15.1999C104.083 15.9827 103.413 16.5895 102.595 16.8968C101.865 17.1785 101.059 17.1966 100.317 16.9479C99.7602 17.1534 99.1726 17.265 98.5787 17.2782C98.0631 17.2906 97.5485 17.2258 97.052 17.086C96.5881 16.9695 96.166 16.7262 95.8332 16.3833C95.1768 15.6606 95.1911 14.643 95.3542 13.7326C94.908 13.1883 94.5691 12.5042 94.7183 11.7856C94.7774 11.489 94.9273 11.218 95.1473 11.01C95.3762 10.8138 95.6371 10.6582 95.9185 10.5498C96.2222 10.4311 96.5167 10.2906 96.7999 10.1294C97.1094 9.9347 97.3923 9.70461 97.6986 9.50743C98.2349 9.16618 98.8895 8.93661 99.4958 9.23609C99.7301 9.35068 99.9315 9.52254 100.081 9.73567C100.231 9.94881 100.324 10.1963 100.353 10.4551C100.838 10.2033 101.374 10.0609 101.921 10.0379C102.436 10.0274 102.942 10.1741 103.372 10.4583C104.878 11.4555 105.236 13.6409 104.468 15.1997" fill="#36344C"/>
<path d="M104.714 17.6444L104.848 18.3878C104.933 18.8625 104.927 19.3489 104.83 19.8215C104.739 20.27 104.569 20.699 104.328 21.0889V21.0902C103.917 21.7557 103.313 22.2811 102.596 22.5966C101.88 22.9122 101.083 23.003 100.314 22.8572C99.5439 22.7113 98.8366 22.3357 98.2856 21.7799C97.7345 21.2242 97.3657 20.5145 97.2279 19.745L97.0943 19.0016C94.9706 19.38 94.3876 16.7323 95.1835 15.9817C95.2037 15.9615 95.2272 15.9429 95.2474 15.9261C95.8023 15.4684 96.32 15.8553 96.5051 16.0298C96.1941 14.5331 96.7104 13.697 96.7104 13.697C97.3589 13.7871 98.016 13.8001 98.6676 13.7357C99.4627 13.6578 100.242 13.4609 100.978 13.1516C101.485 12.9301 101.971 12.6657 102.433 12.3613C102.433 12.3613 103.762 13.4607 104.194 14.743C104.195 14.7436 104.195 14.7443 104.195 14.7451C104.196 14.7459 104.196 14.7468 104.196 14.7476C104.196 14.7476 104.429 14.1053 104.998 14.0649C105.156 14.0559 105.315 14.0857 105.459 14.1518C106.467 14.58 106.84 17.267 104.713 17.6447" fill="#FCE0D1"/>
<path d="M105.387 23.8098L102.408 26.8947L98.7388 25.4028L98.717 24.5077L98.6533 22.0975C99.0807 22.4346 99.5749 22.6775 100.103 22.8101C100.632 22.9426 101.182 22.9619 101.719 22.8665C102.255 22.7712 102.765 22.5634 103.215 22.2569C103.665 21.9505 104.045 21.5523 104.329 21.0886L105.13 23.1468H105.128L105.387 23.8098Z" fill="#FCE0D1"/>
<path d="M105.13 23.1475L105.386 23.8098L105.128 23.1475H105.13Z" fill="#E88846"/>
<path d="M104.328 21.0899C104.328 21.0899 103.456 25.1656 98.7167 24.5077L98.6533 22.0982C99.0807 22.4352 99.5749 22.6779 100.103 22.8103C100.632 22.9427 101.182 22.9619 101.718 22.8666C102.255 22.7713 102.764 22.5636 103.214 22.2572C103.664 21.9509 104.044 21.5528 104.328 21.0894" fill="#F9D0D1"/>
<path d="M101.592 18.6049C101.143 18.7563 100.691 18.8991 100.236 19.0334C100.219 17.9866 100.186 16.9403 100.138 15.8945C100.133 15.7843 99.9627 15.806 99.9679 15.9149C100.018 16.9954 100.051 18.0764 100.068 19.158C100.068 19.2191 100.138 19.2412 100.185 19.2272C100.679 19.0824 101.17 18.9279 101.658 18.7637C101.763 18.7283 101.698 18.569 101.593 18.6044" fill="#C4532C"/>
<path d="M102.72 18.6993C102.753 19.0341 102.695 19.3717 102.552 19.6762C102.408 19.9808 102.185 20.2411 101.906 20.4296C101.814 20.4909 101.918 20.6273 102.01 20.5663C102.313 20.3596 102.555 20.0753 102.71 19.7432C102.865 19.4111 102.927 19.0435 102.891 18.6789C102.887 18.6572 102.875 18.6377 102.857 18.6245C102.84 18.6113 102.817 18.6054 102.796 18.608C102.774 18.6106 102.754 18.6216 102.739 18.6386C102.725 18.6556 102.718 18.6773 102.72 18.6993" fill="#36344C"/>
<path d="M99.0915 18.6756C99.1277 18.8036 99.1252 18.9393 99.0841 19.0658C99.0431 19.1923 98.9654 19.3038 98.8608 19.3863C98.7563 19.4687 98.6296 19.5184 98.4967 19.5291C98.3639 19.5397 98.2309 19.5108 98.1145 19.4461C97.9981 19.3814 97.9035 19.2837 97.8427 19.1654C97.782 19.047 97.7577 18.9134 97.773 18.7813C97.7883 18.6492 97.8425 18.5247 97.9288 18.4233C98.0151 18.322 98.1295 18.2484 98.2576 18.2119C98.3429 18.1876 98.4321 18.1803 98.5202 18.1905C98.6083 18.2007 98.6935 18.2281 98.771 18.2711C98.8485 18.3142 98.9166 18.3721 98.9716 18.4415C99.0266 18.5109 99.0673 18.5905 99.0915 18.6756" fill="#C4532C"/>
<path d="M104.308 17.1986C104.345 17.3265 104.342 17.4623 104.301 17.5888C104.26 17.7153 104.182 17.8268 104.078 17.9092C103.973 17.9917 103.846 18.0414 103.714 18.052C103.581 18.0627 103.448 18.0338 103.331 17.9691C103.215 17.9043 103.12 17.8066 103.06 17.6883C102.999 17.57 102.975 17.4363 102.99 17.3043C103.005 17.1722 103.059 17.0476 103.146 16.9463C103.232 16.8449 103.346 16.7713 103.474 16.7348C103.56 16.7105 103.649 16.7033 103.737 16.7134C103.825 16.7236 103.91 16.751 103.988 16.7941C104.065 16.8372 104.133 16.8951 104.188 16.9645C104.243 17.0339 104.284 17.1134 104.308 17.1986" fill="#C4532C"/>
<path d="M98.9665 16.8409C99.0565 17.1573 98.9213 17.4729 98.6649 17.5457C98.4085 17.6184 98.1268 17.4207 98.0367 17.1042C97.9466 16.7878 98.0821 16.4723 98.3383 16.3996C98.5945 16.3269 98.8766 16.5244 98.9665 16.8409Z" fill="#36344C"/>
<path d="M102.529 15.9683C102.619 16.2848 102.484 16.6004 102.227 16.6731C101.971 16.7458 101.689 16.5481 101.599 16.2317C101.509 15.9152 101.645 15.5998 101.901 15.527C102.157 15.4543 102.439 15.6518 102.529 15.9683Z" fill="#36344C"/>
<path d="M98.6215 15.5068C98.5671 15.4358 98.4873 15.3885 98.3988 15.3748L98.3066 15.3735C98.246 15.3806 98.1885 15.4038 98.14 15.4406L97.459 15.8413C97.3876 15.8954 97.3401 15.9752 97.3267 16.0637C97.3138 16.155 97.3375 16.2477 97.3927 16.3217C97.447 16.3928 97.5268 16.4401 97.6153 16.4538L97.7076 16.4552C97.7681 16.448 97.8256 16.4249 97.8742 16.3881L98.5548 15.9863C98.6262 15.9322 98.6736 15.8526 98.6871 15.7642C98.7 15.6728 98.6763 15.58 98.6211 15.5059" fill="#36344C"/>
<path d="M101.063 14.8158C101.072 14.7269 101.115 14.6448 101.183 14.5868L101.261 14.5374C101.316 14.5117 101.377 14.5012 101.438 14.5071L102.229 14.4924C102.318 14.5009 102.4 14.5438 102.458 14.6121C102.517 14.683 102.546 14.7745 102.538 14.8664C102.529 14.9554 102.486 15.0374 102.418 15.0955L102.34 15.1448C102.285 15.1706 102.224 15.181 102.163 15.1751L101.372 15.1898C101.283 15.1813 101.201 15.1383 101.143 15.07C101.084 14.9991 101.055 14.9077 101.063 14.8158" fill="#36344C"/>
<path d="M37.9792 62.4216L35.5635 83.0002H46.8989L49.2231 67.856L51.854 83.0002H63.5613L60.1549 62.4216H37.9792Z" fill="#EF631A"/>
<path d="M48.4957 67.8116L45.5371 66.9637C45.4433 66.9367 45.4204 67.0875 45.5134 67.1134L48.4719 67.9616C48.5658 67.9885 48.5887 67.8377 48.4957 67.8116Z" fill="#8E2323"/>
<path d="M47.9638 68.3693L45.0896 68.5463C44.9921 68.5523 45.0089 68.7031 45.1074 68.6971L47.9815 68.5201C48.0791 68.5141 48.0622 68.3633 47.9638 68.3693Z" fill="#8E2323"/>
<path d="M43.0978 25.7887C43.0978 25.7887 41.503 25.7998 40.6633 27.0645C40.6633 27.0645 36.3273 28.0272 35.4325 29.5789C34.5378 31.1306 29.1006 39.9609 29.1006 39.9609L33.7844 49.1246C33.7844 49.1246 36.0384 48.5781 35.7906 46.2093L37.2773 44.3553L38.2684 50.4794L37.3875 64.4044C37.3875 64.4044 40.5396 67.2333 42.5356 67.4806C44.5315 67.7279 49.418 64.3769 49.418 64.3769C49.418 64.3769 54.1946 67.4942 55.9704 67.6728C57.7461 67.8514 60.6779 64.2122 60.6779 64.2122L59.1225 47.6917L59.4115 38.2577L64.4082 40.7294C64.4082 40.7294 66.1292 43.5386 69.2017 41.7015L68.0423 34.1791C68.0423 34.1791 60.2649 28.6102 58.4478 27.3816C56.6307 26.1531 50.6018 26.2694 50.6018 26.2694C50.6018 26.2694 49.5738 25.2805 48.5047 25.4453L43.0978 25.7887Z" fill="#009EDA"/>
<path d="M45.7521 33.1079C45.2039 32.3088 44.6488 31.5008 43.9347 30.8376C43.3052 30.2535 42.5271 29.7579 41.6673 29.6108C41.2394 29.5227 40.7942 29.5801 40.4029 29.774C40.312 29.0539 40.4079 28.3226 40.6814 27.65C40.7183 27.5597 40.5797 27.4967 40.5428 27.5873C40.2427 28.3212 40.1467 29.1223 40.265 29.906C40.2667 29.9191 40.2718 29.9316 40.2797 29.9421C40.2876 29.9527 40.2981 29.9611 40.3102 29.9664C40.3224 29.9718 40.3356 29.9739 40.3488 29.9726C40.362 29.9713 40.3746 29.9667 40.3855 29.9591C41.1038 29.4904 42.0743 29.7945 42.7628 30.1689C43.5258 30.6156 44.1894 31.2128 44.7132 31.924C45.0364 32.3357 45.3327 32.7674 45.6286 33.1984C45.6842 33.2791 45.8071 33.1897 45.7518 33.1099" fill="white"/>
<path d="M51.2159 26.9941C51.1777 26.9045 51.0358 26.9587 51.0739 27.0495C51.3595 27.7219 51.5649 28.4255 51.6857 29.1459C50.0339 29.3298 48.7681 30.5618 47.8499 31.8568C47.5625 32.2619 47.2964 32.6814 47.0313 33.1012C46.9799 33.1832 47.097 33.2802 47.1491 33.1977C48.0204 31.8171 48.9716 30.3463 50.5081 29.6351C50.9099 29.446 51.3415 29.3279 51.7838 29.2859C51.8037 29.2835 51.822 29.2733 51.8345 29.2576C51.8471 29.2419 51.8529 29.2219 51.8508 29.202C51.7296 28.443 51.5164 27.7016 51.2157 26.9941" fill="white"/>
<path d="M35.5894 45.8824C34.927 44.3675 33.9909 42.9872 32.8279 41.8102C32.4958 41.4744 32.146 41.1564 31.7801 40.8576C31.7644 40.8454 31.7446 40.8398 31.7248 40.842C31.7051 40.8442 31.687 40.8541 31.6744 40.8694C31.6618 40.8848 31.6558 40.9044 31.6575 40.9242C31.6593 40.9439 31.6687 40.9622 31.6838 40.9751C32.9495 42.0108 34.0135 43.2698 34.8228 44.6894C35.0531 45.0941 35.2615 45.5108 35.4473 45.9376C35.4863 46.0261 35.6282 45.973 35.5892 45.8824" fill="white"/>
<path d="M64.3623 34.1358C64.3827 34.0403 64.2324 34.0167 64.212 34.1121C63.8756 35.6905 63.7732 37.3097 63.9083 38.9178C63.9472 39.378 64.0056 39.8359 64.0836 40.2917C64.0999 40.3874 64.2513 40.3713 64.2348 40.274C63.9637 38.6845 63.9301 37.0637 64.1349 35.4644C64.1921 35.0183 64.2679 34.5753 64.3623 34.1351" fill="#EA8C11"/>
<path d="M48.3727 52.5587C48.0889 48.6986 47.8054 44.8384 47.5224 40.9782L47.045 34.4794C47.0379 34.382 46.8867 34.3988 46.8938 34.4971L47.7443 46.0775C48.0282 49.9376 48.3116 53.7977 48.5947 57.6578L49.0719 64.1572C49.0792 64.2546 49.2304 64.2376 49.2231 64.1395C48.9392 60.2794 48.6558 56.4193 48.3727 52.559" fill="white"/>
<path d="M36.6472 38.1102C36.5691 37.5733 36.491 37.0364 36.4128 36.4995C36.3988 36.4032 36.2475 36.4195 36.2617 36.5172C36.5377 38.4149 36.8139 40.3125 37.0902 42.21C37.1683 42.7468 37.2464 43.2837 37.3246 43.8207C37.3386 43.9172 37.4899 43.9009 37.4757 43.803C37.1996 41.9055 36.9234 40.0079 36.6472 38.1102Z" fill="white"/>
<path d="M36.8467 43.4973L35.9153 39.9852C35.8904 39.891 35.7489 39.9468 35.7733 40.0402C36.0837 41.2111 36.3941 42.3819 36.7046 43.5526C36.7296 43.6466 36.8712 43.591 36.8465 43.4973" fill="white"/>
<path d="M59.6023 32.5798C59.5282 33.9473 59.4543 35.3148 59.3805 36.6821C59.3596 37.0715 59.3386 37.4604 59.3175 37.8489C59.3122 37.9455 59.4625 37.9703 59.4678 37.8726C59.5416 36.5051 59.6155 35.1377 59.6894 33.7703C59.7104 33.3809 59.7315 32.992 59.7525 32.6036C59.7577 32.5071 59.6076 32.4823 59.6023 32.5798Z" fill="#EA8C11"/>
<path d="M49.4351 27.3652L46.2569 33.7292L42.3447 27.8081L42.4679 26.4158L42.6868 23.9426C43.0845 24.3374 43.5615 24.6435 44.0865 24.8409C44.6114 25.0383 45.1724 25.1224 45.7323 25.0878C46.2922 25.0531 46.8384 24.9004 47.3349 24.6398C47.8313 24.3791 48.2668 24.0165 48.6125 23.5757L49.4351 27.3652Z" fill="#FCE0D1"/>
<path d="M48.6135 23.5762C48.6135 23.5762 47.3067 26.9018 42.5342 25.6732L42.6873 23.9433C43.085 24.338 43.562 24.6442 44.087 24.8416C44.612 25.039 45.1729 25.1231 45.7328 25.0884C46.2928 25.0537 46.839 24.901 47.3354 24.6404C47.8319 24.3797 48.2673 24.017 48.613 23.5762" fill="#F9D0D1"/>
<path d="M49.1823 20.6454L49.2279 21.3681C49.2842 22.2744 49.0027 23.1696 48.4375 23.8814V23.883C47.9732 24.4706 47.3411 24.9038 46.6248 25.1253C45.9085 25.3469 45.1416 25.3464 44.4256 25.1239C43.7095 24.9014 43.078 24.4675 42.6145 23.8793C42.1509 23.2912 41.8771 22.5765 41.8293 21.8299L41.7853 21.1074C39.7899 21.2327 39.4755 18.8188 40.2187 18.0947C40.2434 18.0704 40.2696 18.0479 40.2973 18.0272C40.3193 18.0095 40.3429 17.9943 40.3633 17.9801C40.9415 17.6056 41.3909 18.0304 41.5479 18.2154C41.7882 18.0015 41.9566 17.7191 42.0303 17.4065C42.1021 17.1067 42.0824 16.7923 41.9737 16.5038C42.2928 16.468 42.5861 16.3119 42.7935 16.0674C43.0009 15.8229 43.1067 15.5085 43.0893 15.1887C43.3139 15.3025 43.5656 15.3524 43.8167 15.333C43.9505 15.3239 44.0821 15.2949 44.2072 15.2469C44.3866 15.1769 44.5494 15.0704 44.6852 14.9341C44.821 14.7978 44.9269 14.6348 44.996 14.4554C45.343 14.7341 45.7772 14.8823 46.2227 14.874C46.6681 14.8657 47.0965 14.7014 47.4328 14.4099C47.4644 14.7385 47.5797 15.0536 47.7676 15.3253C47.8139 15.3968 47.8659 15.4645 47.923 15.5277C48.159 15.8054 48.4682 16.0117 48.8156 16.1233C48.7216 16.3612 48.6784 16.6161 48.6887 16.8717C48.6989 17.1272 48.7625 17.3779 48.8752 17.6076C48.8752 17.6092 48.8768 17.6092 48.8784 17.6107C48.9176 17.6546 48.9584 17.6969 49.001 17.7393L49.0056 17.8277V17.8325L49.0072 17.8309C49.0249 17.7964 49.3152 17.2468 49.8446 17.2697C49.9963 17.2791 50.1434 17.3248 50.2736 17.403C50.3306 17.4355 50.3834 17.4749 50.4306 17.5205C51.1864 18.2285 51.1204 20.5254 49.1816 20.6445" fill="#FCE0D1"/>
<path d="M46.1083 21.22C45.6641 21.3151 45.2183 21.4018 44.7707 21.48C44.869 20.4821 44.9527 19.483 45.0218 18.4827C45.0289 18.3774 44.8644 18.3786 44.8571 18.4836C44.7862 19.517 44.6995 20.5492 44.597 21.5802C44.5914 21.6384 44.6547 21.6669 44.7017 21.6588C45.1872 21.5749 45.6709 21.4813 46.1528 21.378C46.2562 21.3559 46.2117 21.1979 46.1083 21.22Z" fill="#AA3617"/>
<path d="M43.7203 21.0146C43.741 21.1405 43.7237 21.2695 43.6708 21.3856C43.6179 21.5016 43.5317 21.5994 43.4231 21.6666C43.3145 21.7338 43.1884 21.7673 43.0606 21.763C42.9329 21.7586 42.8094 21.7166 42.7056 21.6422C42.6018 21.5678 42.5225 21.4644 42.4776 21.345C42.4328 21.2256 42.4244 21.0957 42.4536 20.9715C42.4828 20.8474 42.5482 20.7347 42.6416 20.6477C42.7349 20.5606 42.8521 20.5032 42.9782 20.4826C43.1473 20.455 43.3205 20.4955 43.4597 20.5953C43.5989 20.6951 43.6926 20.8459 43.7203 21.0146Z" fill="#AA3617"/>
<path d="M48.8473 20.178C48.8679 20.3038 48.8507 20.4329 48.7978 20.5489C48.7449 20.665 48.6587 20.7628 48.5501 20.8299C48.4415 20.8971 48.3153 20.9307 48.1876 20.9263C48.0599 20.922 47.9363 20.8799 47.8326 20.8055C47.7288 20.7311 47.6494 20.6277 47.6046 20.5083C47.5597 20.389 47.5514 20.259 47.5805 20.1349C47.6097 20.0107 47.6751 19.898 47.7685 19.811C47.8619 19.724 47.9791 19.6665 48.1052 19.6459C48.2743 19.6183 48.4475 19.6589 48.5867 19.7586C48.7258 19.8584 48.8196 20.0092 48.8473 20.178" fill="#AA3617"/>
<path d="M43.8022 19.2555C43.8533 19.5665 43.6899 19.852 43.4374 19.8927C43.185 19.9334 42.9391 19.7157 42.8874 19.4043C42.8358 19.093 42.9997 18.808 43.2522 18.7671C43.5047 18.7263 43.7506 18.9441 43.8022 19.2555Z" fill="#36344C"/>
<path d="M47.2866 18.8131C47.3377 19.1241 47.1743 19.4096 46.9218 19.4503C46.6693 19.491 46.4234 19.2733 46.3718 18.9619C46.3202 18.6506 46.4841 18.3656 46.7366 18.3248C46.989 18.2839 47.2349 18.5018 47.2866 18.8131Z" fill="#36344C"/>
<path d="M43.619 17.9478C43.5751 17.8743 43.5043 17.8205 43.4215 17.7979C43.3924 17.794 43.3631 17.7904 43.3339 17.7864C43.2755 17.7868 43.2183 17.8026 43.1682 17.8324L42.4762 18.1404C42.4024 18.184 42.3485 18.2546 42.326 18.3372C42.304 18.4229 42.3167 18.5139 42.3615 18.5903C42.4054 18.6639 42.4762 18.7176 42.5589 18.7402L42.6464 18.7514C42.7048 18.7513 42.7621 18.7355 42.8123 18.7057L43.5042 18.3974C43.5781 18.3539 43.632 18.2832 43.6543 18.2006C43.6765 18.1151 43.6642 18.0243 43.6199 17.9478" fill="#36344C"/>
<path d="M46.0194 17.5567C46.0376 17.4731 46.0875 17.3997 46.1587 17.3519L46.238 17.3133C46.2934 17.295 46.3528 17.2917 46.4099 17.3038L47.1637 17.376C47.2477 17.3938 47.3214 17.4436 47.369 17.5149C47.4175 17.5889 47.4348 17.6789 47.4173 17.7656C47.399 17.8492 47.3491 17.9225 47.278 17.9704L47.1985 18.0089C47.1431 18.0273 47.0838 18.0306 47.0268 18.0183L46.2729 17.9463C46.189 17.9284 46.1153 17.8785 46.0675 17.8073C46.0191 17.7333 46.0018 17.6433 46.0194 17.5567" fill="#36344C"/>
<path d="M50.9971 16.581C50.8876 16.9356 50.6935 17.2583 50.4315 17.5216C50.3842 17.476 50.3314 17.4364 50.2743 17.4039C50.1442 17.3257 49.9971 17.2801 49.8455 17.2708C49.3159 17.2472 49.0253 17.7973 49.0079 17.8319C49.0079 17.8303 49.0065 17.8303 49.0065 17.8287L49.0017 17.7402C48.9593 17.6977 48.9185 17.6554 48.8791 17.6115C48.8775 17.6099 48.8761 17.6099 48.8761 17.6085C48.7065 17.2625 48.6494 16.8723 48.7127 16.4923C48.3963 16.5384 48.0736 16.4783 47.7951 16.3215C47.5024 16.1516 47.2763 15.8874 47.1541 15.5723C46.9794 15.671 46.7883 15.7374 46.5899 15.7682C46.3618 15.7989 46.1298 15.7837 45.9077 15.7234C45.6857 15.663 45.4779 15.5589 45.2969 15.4171C45.1781 15.525 45.0455 15.6167 44.9025 15.6898C44.4811 15.8961 43.9965 15.9336 43.5481 15.7948C43.4673 16.0216 43.3363 16.2272 43.1649 16.3966C42.8668 16.6849 42.4735 16.8548 42.0587 16.8745C42.0808 17.0517 42.0712 17.2315 42.0305 17.4055C41.9567 17.7181 41.7883 18.0005 41.5481 18.2143C41.3909 18.0294 40.9415 17.6046 40.3633 17.9791C40.3429 17.9933 40.3193 18.009 40.2975 18.0262C40.2698 18.0468 40.2435 18.0694 40.2189 18.0936C40.1158 18.0081 40.0352 17.8986 39.9843 17.7748C39.9334 17.651 39.9137 17.5167 39.9268 17.3835C39.94 17.2504 39.9856 17.1224 40.0598 17.011C40.134 16.8995 40.2344 16.8078 40.3523 16.744C40.2228 16.6196 40.1292 16.4627 40.0814 16.2898C40.0335 16.1169 40.0331 15.9344 40.0803 15.7613C40.1275 15.5882 40.2204 15.4309 40.3495 15.306C40.4785 15.1811 40.6388 15.0931 40.8136 15.0512C40.6731 14.8724 40.5952 14.6524 40.592 14.4252C40.5887 14.198 40.6602 13.9759 40.7956 13.7931C40.9309 13.6103 41.1226 13.4769 41.3413 13.4132C41.56 13.3495 41.7935 13.3591 42.0062 13.4405C41.9404 13.2094 41.955 12.9629 42.0475 12.7411C42.1401 12.5192 42.3051 12.3352 42.5159 12.2189C42.7266 12.1026 42.9706 12.0609 43.2081 12.1005C43.4456 12.1402 43.6627 12.2589 43.824 12.4373C43.8567 12.1917 43.9655 11.9624 44.1351 11.7815C44.3047 11.6005 44.5267 11.4769 44.7701 11.4279C45.0135 11.3788 45.2662 11.4069 45.4929 11.508C45.7196 11.6092 45.909 11.7784 46.0346 11.9921C46.129 11.7939 46.2819 11.6292 46.4728 11.5202C46.6638 11.4112 46.8836 11.3631 47.1027 11.3823C47.3218 11.4016 47.5298 11.4873 47.6987 11.628C47.8676 11.7686 47.9893 11.9575 48.0474 12.1691C48.3845 11.89 48.9272 11.9872 49.2398 12.2945C49.5358 12.6233 49.6987 13.0501 49.697 13.492C49.8543 13.4306 50.0268 13.419 50.191 13.4589C50.3552 13.4987 50.5031 13.588 50.6146 13.7147C50.723 13.8435 50.803 13.9935 50.8496 14.1551C50.8961 14.3167 50.9081 14.4863 50.8848 14.6528C50.8368 14.9862 50.7162 15.3051 50.5314 15.587C50.9162 15.7061 51.0844 16.1888 50.9964 16.5808" fill="#36344C"/>
<path d="M47.5183 22.7513C47.377 22.9401 47.1864 23.0865 46.9674 23.1746C46.7484 23.2627 46.5094 23.2892 46.2764 23.251C45.8683 23.1864 45.2731 22.8306 45.4287 22.3341C45.4727 22.2262 45.5419 22.1301 45.6303 22.0539C45.7188 21.9778 45.8241 21.9236 45.9377 21.8959C46.1415 21.8346 46.3594 21.8374 46.5616 21.9039C46.6136 21.7128 46.7255 21.5435 46.881 21.4205C46.9772 21.3447 47.0969 21.3048 47.2195 21.3078C47.342 21.3107 47.4597 21.3563 47.5522 21.4366C47.9299 21.7729 47.7828 22.3956 47.5181 22.7513" fill="white"/>
<path d="M23.2773 35.7045C23.2773 35.7045 26.6016 52.0602 30.2975 51.2363C33.9934 50.4123 34.3438 48.5896 33.725 47.0703C33.1062 45.5509 26.9938 34.0566 26.9938 34.0566C26.9938 34.0566 26.9938 31.7804 26.3745 29.8956C25.7551 28.0107 26.0028 25.5492 25.7344 25.2504C25.4659 24.9517 24.3303 24.5449 24.4955 28.7008C24.4955 28.7008 19.8137 23.3245 19.0962 24.0762C18.3787 24.8279 21.7397 28.5876 21.7397 28.5876C21.7397 28.5876 17.2328 24.9621 16.8043 25.5903C16.3759 26.2184 20.2421 29.555 20.2421 29.555C20.2421 29.555 17.0263 26.9139 16.5565 27.4133C16.0867 27.9128 19.8601 30.9461 19.8601 30.9461C19.8601 30.9461 16.0093 30.4568 15.999 31.1316C15.9888 31.8063 19.633 32.2541 19.633 32.2541C19.633 32.2541 21.2264 34.9218 23.2773 35.7045Z" fill="#FCE0D1"/>
<path d="M22.8792 28.4921C22.6168 28.6465 22.3647 28.8146 22.1149 28.9888C22.1129 28.979 22.1084 28.97 22.1018 28.9626L21.6691 28.467C21.6572 28.4515 21.6398 28.4412 21.6204 28.4382C21.6011 28.4351 21.5814 28.4396 21.5653 28.4507C21.5495 28.4623 21.5389 28.4797 21.5359 28.499C21.5328 28.5184 21.5374 28.5381 21.5488 28.5541L21.9819 29.0497C21.988 29.0566 21.9952 29.0626 22.0032 29.0674C21.5713 29.3755 21.1604 29.7119 20.7733 30.0745C20.5324 29.8156 20.2917 29.5567 20.0512 29.2978C20.0393 29.2824 20.0219 29.2721 20.0026 29.269C19.9833 29.266 19.9636 29.2704 19.9474 29.2814C19.9316 29.293 19.921 29.3104 19.9179 29.3298C19.9148 29.3491 19.9195 29.3689 19.9309 29.3849L20.6564 30.1651C20.6599 30.1685 20.6636 30.1715 20.6676 30.1743C20.5468 30.291 20.4272 30.4094 20.311 30.5311C20.2451 30.6005 20.3606 30.6938 20.4261 30.6251C21.1754 29.8399 22.0304 29.1622 22.9665 28.6116C23.049 28.5631 22.9608 28.4436 22.8792 28.4918" fill="#AA3617"/>
<path d="M23.7878 30.4615C23.5458 31.1855 23.4142 31.9417 23.3975 32.7046C23.3955 32.7997 23.543 32.7823 23.5453 32.6882C23.5621 31.9516 23.6895 31.2217 23.9233 30.5228C23.9531 30.4331 23.818 30.3711 23.788 30.4615" fill="#AA3617"/>
<path d="M26.1806 34.7251C25.59 34.9189 25.0118 35.1483 24.449 35.412C24.363 35.4524 24.4162 35.591 24.5022 35.5501C25.065 35.2864 25.6432 35.057 26.2338 34.8632C26.3247 34.8334 26.2707 34.6954 26.1806 34.7251Z" fill="#AA3617"/>
<path d="M70.7844 24.7385C70.7844 24.7385 72.9643 41.2845 69.2004 41.7029C65.4365 42.1213 64.5113 40.5108 64.6027 38.8729C64.6941 37.2349 66.7327 24.384 66.7327 24.384C66.7327 24.384 65.9918 22.2311 65.9642 20.2479C65.9365 18.2646 64.9009 16.0164 65.0576 15.6472C65.2142 15.2779 66.1558 14.5248 67.3524 18.5089C67.3524 18.5089 70.0304 11.9068 70.954 12.386C71.8776 12.8651 69.9228 17.5086 69.9228 17.5086C69.9228 17.5086 73.0044 12.6201 73.6142 13.0752C74.2239 13.5303 71.6537 17.9396 71.6537 17.9396C71.6537 17.9396 73.8359 14.3997 74.4422 14.7193C75.0484 15.039 72.4677 19.1307 72.4677 19.1307C72.4677 19.1307 75.9504 17.4205 76.1798 18.0552C76.4092 18.6899 73.1085 20.2944 73.1085 20.2944C73.1085 20.2944 72.4698 23.3335 70.7844 24.7385" fill="#FCE0D1"/>
<path d="M68.8133 17.7885C69.1115 17.8495 69.4059 17.9265 69.6979 18.0104C69.6967 18.0007 69.6979 17.9907 69.7016 17.9816L69.95 17.3732C69.9562 17.3548 69.9693 17.3394 69.9866 17.3302C70.0038 17.3211 70.0239 17.3189 70.0428 17.324C70.0615 17.3299 70.0772 17.343 70.0864 17.3603C70.0955 17.3776 70.0976 17.3978 70.0919 17.4166L69.8436 18.0251C69.84 18.0338 69.8351 18.042 69.829 18.0492C70.3375 18.2006 70.8354 18.3856 71.3193 18.603C71.4628 18.2802 71.6062 17.9573 71.7495 17.6345C71.7559 17.6161 71.769 17.6008 71.7862 17.5917C71.8034 17.5826 71.8235 17.5804 71.8423 17.5855C71.8611 17.5913 71.8768 17.6043 71.886 17.6217C71.8952 17.639 71.8972 17.6592 71.8916 17.678L71.4595 18.6515C71.4571 18.6558 71.4545 18.66 71.4516 18.6639C71.6042 18.7347 71.7557 18.8083 71.9051 18.8859C71.9901 18.9301 71.9113 19.0558 71.8271 19.0119C70.8631 18.5119 69.8342 18.1478 68.7698 17.9301C68.676 17.9108 68.7203 17.7692 68.8133 17.7885Z" fill="#AA3617"/>
<path d="M68.5976 19.9448C69.0623 20.5512 69.4331 21.2237 69.6975 21.94C69.7304 22.0285 69.585 22.0605 69.5524 21.9722C69.2967 21.281 68.9386 20.6319 68.49 20.0466C68.4326 19.9716 68.5401 19.8696 68.5981 19.9448" fill="#AA3617"/>
<path d="M67.72 24.753C68.3416 24.7449 68.9632 24.7744 69.5813 24.8415C69.6758 24.852 69.67 25.0008 69.5752 24.9897C68.9572 24.9225 68.3356 24.8929 67.714 24.9012C67.6183 24.9024 67.6253 24.7543 67.72 24.753Z" fill="#AA3617"/>
<path d="M83.4968 22.0408C83.1983 22.3855 82.8103 22.6414 82.3756 22.7806C81.9409 22.9198 81.4761 22.9368 81.0323 22.8298C80.1086 22.5852 79.4079 21.8861 78.568 21.4696C78.1235 21.2485 77.641 21.0719 77.2947 20.7027C77.2511 20.6572 77.2109 20.6086 77.1744 20.5573C77.1331 20.5065 77.0956 20.4527 77.0621 20.3965C76.5623 19.5207 77.0732 18.4208 77.6172 17.6917C77.9055 17.2943 78.27 16.9579 78.6895 16.7019C79.109 16.4459 79.5752 16.2755 80.0611 16.2004C80.5233 16.1484 80.9912 16.1902 81.4367 16.3234C81.8822 16.4566 82.2961 16.6783 82.6535 16.9752C83.4119 17.5755 83.9397 18.4181 84.1482 19.3612C84.2521 19.8278 84.2474 20.312 84.1345 20.7765C84.0215 21.241 83.8033 21.6735 83.4966 22.0408" fill="#AF3737"/>
<path d="M84.856 25.0824C84.856 28.3834 82.6509 30.3545 79.8472 30.3545C77.0435 30.3545 74.7021 28.3834 74.7021 25.0824C74.7021 21.7814 76.9761 19.8291 79.7793 19.8291C82.5824 19.8291 84.856 21.7814 84.856 25.0824Z" fill="#AF3737"/>
<path d="M60.1216 14.7659C60.0315 15.4738 59.8147 16.161 59.6802 16.8631C59.4938 17.8336 59.4636 18.8296 59.2899 19.8031C59.1238 20.7341 58.8043 21.673 58.1653 22.3674C58.1732 22.6056 58.1796 22.8441 58.1874 23.0821L54.513 22.175C54.54 21.7974 54.5669 21.4202 54.5937 21.0433C54.0733 19.9261 53.8803 18.6827 53.4991 17.5069C53.061 16.1579 52.3712 14.8922 52.0359 13.5145C52.0096 13.4282 52.001 13.3374 52.0107 13.2477C52.0161 13.203 52.0339 13.1607 52.0621 13.1256C52.0903 13.0905 52.1278 13.0639 52.1704 13.049C52.3081 13.0127 52.4298 13.1421 52.5121 13.2589C53.0139 13.9688 53.4561 14.7188 53.8344 15.5013C53.4871 14.2824 53.2358 13.0382 53.083 11.7802C53.0391 11.5178 53.0338 11.2504 53.0672 10.9864C53.085 10.8802 53.1306 10.7591 53.2349 10.7324C53.2851 10.7285 53.3355 10.738 53.3808 10.7599C53.4261 10.7819 53.4648 10.8154 53.4928 10.8572C53.656 11.0662 53.7798 11.303 53.8581 11.5562C54.3295 12.8185 54.7097 14.1126 55.0857 15.4066L55.1157 15.3972C54.8025 13.7844 54.4878 12.1636 54.4292 10.5225C54.42 10.4281 54.4286 10.3329 54.4544 10.2416C54.4686 10.1962 54.4947 10.1554 54.5301 10.1234C54.5654 10.0915 54.6087 10.0697 54.6555 10.0602C54.7796 10.0443 54.8861 10.1487 54.9606 10.2494C55.2075 10.6216 55.3876 11.0339 55.4929 11.4677C55.768 12.4036 55.9752 13.3566 56.1603 14.3147C56.0939 13.3077 56.0322 12.3027 56.0054 11.2942C55.9784 10.9647 56.0094 10.633 56.0971 10.3142C56.1413 10.1816 56.2442 10.0349 56.381 10.0554C56.4885 10.0713 56.5517 10.1793 56.596 10.2781C57.1607 11.5087 57.2541 12.8911 57.4675 14.2278C57.6096 15.1203 57.8093 16.0028 58.0656 16.8697C58.3106 15.9995 58.7079 15.1793 59.2392 14.4471C59.3135 14.3329 59.4085 14.2334 59.5191 14.1536C59.5743 14.1143 59.6384 14.089 59.7057 14.0802C59.773 14.0714 59.8415 14.0792 59.905 14.103C60.1328 14.2057 60.1518 14.5181 60.1202 14.7659" fill="#F99958"/>
<path d="M56.819 14.3071C56.6372 14.3813 56.4589 14.4634 56.2831 14.5503L56.2266 14.1383C56.2258 14.1278 56.2228 14.1175 56.2178 14.1082C56.2129 14.0988 56.2062 14.0906 56.198 14.0839C56.1898 14.0771 56.1804 14.0722 56.1702 14.0692C56.1601 14.0662 56.1494 14.0652 56.1389 14.0664C56.1284 14.0676 56.1182 14.0709 56.109 14.0761C56.0998 14.0812 56.0917 14.0882 56.0852 14.0966C56.0787 14.1049 56.074 14.1145 56.0713 14.1247C56.0686 14.1349 56.068 14.1455 56.0694 14.156L56.1296 14.5955C56.131 14.6049 56.1342 14.6139 56.1388 14.6222C55.5124 14.9467 54.931 15.3513 54.4094 15.8258C54.3349 15.8936 54.4271 16.0219 54.5023 15.9534C55.1988 15.3182 56.0023 14.8106 56.8758 14.4542C56.8951 14.4464 56.9105 14.4314 56.9188 14.4123C56.927 14.3933 56.9274 14.3717 56.9198 14.3524C56.9123 14.333 56.8974 14.3174 56.8784 14.309C56.8594 14.3005 56.8378 14.2998 56.8183 14.3071" fill="#D36D29"/>
<path d="M53.9169 15.3961C53.9046 15.3792 53.886 15.3678 53.8653 15.3645C53.8446 15.3612 53.8234 15.3662 53.8064 15.3784C53.7898 15.391 53.7787 15.4095 53.7754 15.43C53.7721 15.4505 53.7769 15.4715 53.7886 15.4887L53.8011 15.5097L53.8048 15.5168C53.8119 15.5306 53.8186 15.5446 53.8248 15.5587C53.8365 15.5852 53.8467 15.6122 53.8553 15.6398C53.8593 15.6524 53.863 15.6649 53.866 15.6779C53.8671 15.6825 53.8688 15.6899 53.8692 15.6917C53.8704 15.6979 53.8717 15.7039 53.8727 15.7094C53.8783 15.7399 53.8821 15.7707 53.8839 15.8016C53.8864 15.8223 53.897 15.8412 53.9133 15.8543C53.9297 15.8673 53.9506 15.8733 53.9714 15.8711C53.992 15.8684 54.0108 15.8578 54.0238 15.8415C54.0368 15.8253 54.043 15.8046 54.0411 15.7839C54.0317 15.6463 53.9891 15.513 53.9169 15.3954" fill="#D36D29"/>
<path d="M57.1843 18.6264C56.6645 17.911 56.0028 17.31 55.2403 16.8606C55.1527 16.8089 55.0881 16.9532 55.1749 17.0047C55.9128 17.4416 56.5529 18.0251 57.0555 18.7191C57.0681 18.7351 57.0865 18.7456 57.1068 18.7484C57.127 18.7512 57.1476 18.746 57.1641 18.7341C57.1806 18.7221 57.1919 18.7042 57.1955 18.6841C57.1991 18.664 57.1947 18.6433 57.1834 18.6264" fill="#D36D29"/>
<path d="M95.6987 76.0043C95.6971 76.1841 95.6939 76.3641 95.6877 76.5456C95.7005 76.7005 95.6615 76.8553 95.5768 76.9858C95.5395 77.0348 95.4886 77.0717 95.4304 77.0919C95.3721 77.1121 95.3092 77.1147 95.2495 77.0994C95.1955 77.0776 95.1467 77.0447 95.1064 77.0028C95.066 76.9609 95.035 76.911 95.0153 76.8564C94.9519 76.699 94.8985 76.5377 94.8556 76.3735C94.8018 76.1965 94.7512 76.0195 94.7038 75.8425C94.6594 75.6815 94.62 75.519 94.5796 75.3565C94.559 75.6878 94.532 76.0192 94.483 76.3489C94.4217 76.8046 94.3037 77.251 94.1319 77.6776C94.067 77.8323 93.9833 78.0233 93.806 78.0738C93.7368 78.0912 93.6636 78.0832 93.5998 78.0514C93.5359 78.0196 93.4856 77.966 93.4579 77.9003C93.393 77.7342 93.3692 77.555 93.3884 77.3778C93.3932 77.116 93.398 76.8525 93.4026 76.5905C93.4058 76.3916 93.409 76.1912 93.4122 75.9924C93.3852 76.1059 93.3568 76.2195 93.3252 76.3316C93.2323 76.6813 93.1177 77.0249 92.9819 77.3605C92.8822 77.6019 92.6308 77.9081 92.3365 77.744C92.2841 77.7099 92.2398 77.6647 92.207 77.6116C92.1741 77.5585 92.1535 77.4988 92.1465 77.4367C92.1199 77.2576 92.1098 77.0764 92.1165 76.8955C92.1175 76.6603 92.1313 76.4254 92.1577 76.1917C92.0659 76.351 91.9678 76.5089 91.8619 76.6604C91.7932 76.7839 91.6905 76.8852 91.566 76.9523C91.5136 76.9731 91.4555 76.975 91.4018 76.9577C91.3482 76.9404 91.3022 76.905 91.2718 76.8576C91.2279 76.7726 91.2129 76.6757 91.2291 76.5815C91.2502 76.4364 91.2793 76.2926 91.3162 76.1507C91.3841 75.8287 91.4523 75.5083 91.5202 75.1866C91.5898 74.8582 91.6595 74.5317 91.729 74.2033C91.8065 73.8902 91.8635 73.5723 91.8999 73.2518C91.915 72.9617 91.8818 72.6711 91.8018 72.3918C91.6927 72.2103 91.5889 72.0241 91.4964 71.8316C91.0706 70.9289 90.8906 69.8669 91.2418 68.9111C91.4651 68.2926 91.9213 67.7854 92.5136 67.4972C92.5547 67.4687 92.5959 67.4404 92.6377 67.4167C92.8899 67.2708 93.1816 67.2079 93.4716 67.2369C93.7568 67.2764 94.0198 67.4123 94.2167 67.6218C94.6802 68.0953 94.7956 68.7707 94.9264 69.3918C95.0783 70.1225 95.2175 70.8563 95.3345 71.5933C95.5765 73.0511 95.6982 74.5263 95.6983 76.0039" fill="#FCE0D1"/>
<path d="M93.3519 72.5132C93.3164 73.2621 93.2888 74.0331 93.064 74.7542C93.0186 74.9004 92.9274 75.1222 92.737 75.1043C92.5773 75.0894 92.5289 74.8788 92.4984 74.7522C92.4277 74.376 92.3819 73.9956 92.3612 73.6134C92.3355 73.2342 92.231 72.8645 92.0543 72.5277C92.0039 72.4392 91.8769 72.533 91.9262 72.6205C92.1052 72.9797 92.2046 73.3732 92.2177 73.7741C92.2532 74.1658 92.255 74.5901 92.396 74.9625C92.415 75.0284 92.4492 75.0889 92.496 75.1391C92.5428 75.1893 92.6008 75.2277 92.6653 75.2514C92.7425 75.2676 92.8227 75.2609 92.8961 75.2322C92.9696 75.2035 93.033 75.154 93.0785 75.0898C93.1779 74.934 93.2451 74.76 93.276 74.5779C93.3271 74.3727 93.3674 74.165 93.3966 73.9556C93.4641 73.486 93.4862 73.0114 93.5082 72.5378C93.5128 72.4376 93.3567 72.4118 93.3519 72.5132" fill="#D36D29"/>
<path d="M92.289 75.2901L92.148 76.1439C92.1457 76.1641 92.1513 76.1844 92.1636 76.2005C92.176 76.2167 92.1941 76.2275 92.2142 76.2307C92.2343 76.2339 92.2548 76.2292 92.2716 76.2177C92.2883 76.2061 92.3 76.1886 92.3041 76.1687C92.3514 75.8841 92.3987 75.5994 92.446 75.3147C92.4489 75.2942 92.4437 75.2733 92.4313 75.2566C92.419 75.24 92.4005 75.2288 92.38 75.2256C92.3595 75.2223 92.3385 75.2273 92.3216 75.2394C92.3047 75.2514 92.2933 75.2696 92.2897 75.2901" fill="#D36D29"/>
<path d="M93.4082 74.6202L93.3331 75.9583C93.3276 76.0587 93.4838 76.0845 93.4895 75.9829L93.5645 74.6448C93.57 74.5444 93.4139 74.5188 93.4082 74.6202Z" fill="#D36D29"/>
<path d="M94.4959 73.3835C94.4758 73.2849 94.3185 73.3014 94.3387 73.4012C94.4773 74.0799 94.5492 74.7704 94.5534 75.463C94.5534 75.5643 94.7111 75.5462 94.7106 75.4453C94.7063 74.7527 94.6344 74.0622 94.4959 73.3835" fill="#D36D29"/>
<path d="M78.4748 58.6092L67.615 58.0828C67.615 58.0828 63.8334 57.9072 63.3936 83.0001H73.595L76.753 68.9622L78.4751 83.0001H87.754C87.754 83.0001 90.0405 60.8026 84.588 58.5212L78.4748 58.6092Z" fill="#36344C"/>
<path d="M85.5343 59.4429C74.5852 62.6336 68.9131 58.7848 68.9131 58.7848L70.5185 49.6163L71.882 36.4111L83.2708 36.9382L84.5899 51.985C84.4904 51.9944 85.5343 59.4429 85.5343 59.4429" fill="white"/>
<path d="M80.9823 45.5149C80.9691 46.1215 80.921 46.7269 80.8384 47.3281C80.7625 47.9299 80.6834 48.5306 80.5868 49.1287C80.4034 50.2854 80.1502 51.4863 79.5919 52.527C79.3753 52.9295 79.062 53.3366 78.592 53.4361C78.075 53.545 77.6084 53.206 77.2589 52.8679C76.8049 52.4276 76.3824 51.9527 75.946 51.4934C75.5505 51.0769 75.1393 50.6696 74.7848 50.2153C74.4473 49.8069 74.2103 49.3253 74.0929 48.8092C74.0029 48.2562 74.0769 47.689 74.3058 47.1774C74.5361 46.6532 74.8293 46.1589 75.179 45.7052C75.5024 45.26 75.8537 44.8357 76.2308 44.4349C76.3652 44.2933 76.5045 44.1571 76.6468 44.0214C76.8826 43.772 77.1308 43.5306 77.3919 43.3033C77.7978 42.9329 78.2428 42.6075 78.719 42.3328C78.9504 42.1924 79.219 42.1252 79.4893 42.1403C79.7154 42.1679 79.9269 42.2662 80.0934 42.4211C80.4715 42.7605 80.6598 43.2622 80.7854 43.7405C80.9297 44.3209 80.9967 44.9179 80.9846 45.5158" fill="#FFC107"/>
<path d="M81.9015 50.6845C82.1224 52.2306 80.3768 52.9324 79.1587 52.2814C77.8636 50.9939 77.3741 45.667 80.4526 46.883C81.827 47.5812 81.9865 49.3139 81.9015 50.6845Z" fill="#EF631A"/>
<path d="M75.3595 45.6428C74.8113 45.9352 74.1965 46.0808 73.5751 46.0653C72.9537 46.0498 72.3469 45.8737 71.8141 45.5543C71.5269 45.3802 71.2661 45.1663 71.0393 44.9189C70.9712 44.8449 70.8425 44.9366 70.9112 45.0117C71.4677 45.6242 72.2135 46.0336 73.03 46.1747C73.8466 46.3158 74.6869 46.1806 75.4175 45.7905C75.5062 45.7432 75.45 45.5958 75.3601 45.6434" fill="#E2CAB0"/>
<path d="M84.3723 46.1827C83.6141 46.6286 82.7349 46.8264 81.8582 46.7482C80.9816 46.6701 80.1515 46.32 79.4845 45.7471C79.4071 45.6809 79.307 45.8032 79.3842 45.8692C80.0782 46.4643 80.9418 46.8269 81.8534 46.9061C82.765 46.9852 83.6785 46.7768 84.4651 46.3103C84.5538 46.2588 84.4594 46.1315 84.3723 46.1827" fill="#E2CAB0"/>
<path d="M83.224 28.431L83.1828 29.1238C83.1675 29.3825 83.123 29.6387 83.0499 29.8875C82.8079 30.727 82.2642 31.448 81.5228 31.9127C80.7814 32.3773 79.8944 32.5531 79.0313 32.4063C78.1682 32.2596 77.3896 31.8006 76.8443 31.1171C76.2991 30.4336 76.0255 29.5737 76.0759 28.7016L76.1171 28.0113C74.1351 27.8931 74.1857 25.3981 75.0604 24.8979C75.7358 24.5128 76.147 25.0889 76.2515 25.2609C76.7291 25.2417 77.2034 25.1739 77.6671 25.0588C78.7543 24.8213 79.7614 24.307 80.5902 23.566C80.7451 23.4231 80.8899 23.2697 81.0237 23.1069C81.2383 22.8483 81.4259 22.5686 81.5836 22.272C82.0239 22.6114 82.4004 23.026 82.6956 23.4966C82.9 23.8127 83.0626 24.1538 83.1796 24.5114C83.3095 24.9027 83.3799 25.3112 83.3884 25.7233H83.3852V25.7295C83.3852 25.7295 83.3852 25.728 83.3884 25.7249V25.7233C83.4392 25.6507 83.9516 24.9563 84.6444 25.4691C84.747 25.5475 84.8308 25.6478 84.8895 25.7627C84.9305 25.8378 84.9644 25.9165 84.9908 25.9978C85.2914 26.9336 84.82 28.5259 83.224 28.4312" fill="#FCE0D1"/>
<path d="M86.2248 35.506C86.0627 35.8732 85.8578 36.2202 85.6143 36.5396C82.6215 40.6299 76.5903 40.9076 73.1356 37.1977C72.291 36.2886 71.5824 35.4334 71.2217 34.7895C72.7813 34.4709 76.5823 33.737 76.5823 33.737H76.5839L76.6536 33.3724L76.8812 32.1747L77.0409 31.3447C77.6192 31.9622 78.4002 32.3522 79.2422 32.444C80.0842 32.5358 80.9313 32.3232 81.6296 31.8449L81.6929 32.7901L81.7735 33.9278C82.0396 33.9595 86.2247 35.4902 86.2247 35.506" fill="#FCE0D1"/>
<path d="M80.0207 28.7287C79.6053 28.7244 79.1902 28.7123 78.7754 28.6924C79.0641 27.8222 79.34 26.9479 79.603 26.0696C79.6307 25.9771 79.4836 25.9457 79.4561 26.0374C79.1847 26.9448 78.8994 27.848 78.6003 28.7469C78.5825 28.7977 78.6342 28.8354 78.6778 28.8381C79.1273 28.8605 79.5775 28.874 80.0285 28.8786C80.1253 28.8797 80.1172 28.7297 80.0207 28.7287" fill="#D36D29"/>
<path d="M77.9335 28.0668C77.9265 28.1832 77.8852 28.2949 77.8146 28.3878C77.744 28.4807 77.6474 28.5506 77.537 28.5888C77.4265 28.6269 77.3073 28.6315 77.1942 28.602C77.0812 28.5725 76.9794 28.5102 76.9019 28.423C76.8243 28.3359 76.7744 28.2277 76.7585 28.1122C76.7425 27.9967 76.7613 27.8791 76.8123 27.7742C76.8634 27.6694 76.9445 27.582 77.0453 27.5231C77.1461 27.4642 77.2622 27.4365 77.3789 27.4434C77.5353 27.4527 77.6816 27.5236 77.7856 27.6405C77.8896 27.7574 77.9428 27.9108 77.9335 28.0668" fill="#D36D29"/>
<path d="M82.6737 28.3481C82.6668 28.4644 82.6254 28.5761 82.5548 28.669C82.4843 28.7619 82.3877 28.8319 82.2773 28.87C82.1668 28.9081 82.0476 28.9128 81.9345 28.8833C81.8215 28.8538 81.7197 28.7915 81.6422 28.7044C81.5646 28.6172 81.5147 28.509 81.4987 28.3936C81.4827 28.2781 81.5015 28.1605 81.5525 28.0556C81.6035 27.9508 81.6846 27.8633 81.7854 27.8044C81.8862 27.7455 82.0023 27.7178 82.1189 27.7247C82.2754 27.734 82.4217 27.8049 82.5257 27.9218C82.6297 28.0387 82.683 28.192 82.6737 28.3481" fill="#D36D29"/>
<path d="M78.361 26.5145C78.3393 26.5931 78.2958 26.664 78.2353 26.719C78.1749 26.774 78.1001 26.8107 78.0196 26.8251C77.9392 26.8394 77.8562 26.8307 77.7805 26.7999C77.7048 26.7692 77.6393 26.7177 77.5917 26.6514C77.5441 26.585 77.5163 26.5066 77.5115 26.4252C77.5067 26.3438 77.5251 26.2626 77.5646 26.1912C77.6041 26.1198 77.6631 26.061 77.7347 26.0216C77.8063 25.9823 77.8877 25.9639 77.9693 25.9688C78.0931 25.9906 78.2034 26.06 78.2766 26.162C78.3499 26.2639 78.3801 26.3905 78.361 26.5145" fill="#36344C"/>
<path d="M81.5583 26.8187C81.5366 26.8973 81.493 26.9682 81.4326 27.0232C81.3722 27.0782 81.2974 27.1149 81.2169 27.1293C81.1364 27.1436 81.0535 27.1349 80.9778 27.1041C80.902 27.0734 80.8366 27.0219 80.789 26.9556C80.7413 26.8892 80.7135 26.8108 80.7088 26.7294C80.704 26.648 80.7224 26.5668 80.7619 26.4954C80.8014 26.424 80.8604 26.3652 80.932 26.3258C81.0036 26.2865 81.0849 26.2681 81.1666 26.273C81.2904 26.2948 81.4007 26.3642 81.4739 26.4662C81.5471 26.5681 81.5774 26.6947 81.5583 26.8187Z" fill="#36344C"/>
<path d="M78.4599 25.3123C78.4357 25.2379 78.3834 25.1758 78.3141 25.1391L78.2382 25.1113C78.186 25.0998 78.1318 25.1024 78.081 25.1189L77.4024 25.2552C77.3276 25.2791 77.2653 25.3314 77.2287 25.4007C77.1914 25.4724 77.1842 25.556 77.2085 25.6331C77.2328 25.7074 77.2851 25.7695 77.3543 25.8062L77.4302 25.8338C77.4823 25.8454 77.5365 25.8429 77.5872 25.8265L78.266 25.6902C78.3408 25.6663 78.4032 25.614 78.4397 25.5446C78.4769 25.4729 78.4842 25.3894 78.4599 25.3123" fill="#36344C"/>
<path d="M80.6786 25.4438C80.7117 25.3728 80.771 25.3174 80.8441 25.289L80.9227 25.2713C80.9758 25.266 81.0294 25.2749 81.0778 25.2973L81.7357 25.5127C81.8069 25.5455 81.8625 25.6047 81.8907 25.6778C81.9191 25.7535 81.9164 25.8373 81.8833 25.9111C81.8502 25.982 81.7908 26.0375 81.7177 26.0658L81.6391 26.0835C81.5861 26.0888 81.5325 26.0798 81.4841 26.0575L80.826 25.8419C80.7547 25.8091 80.699 25.7499 80.6708 25.6768C80.6425 25.6011 80.6452 25.5173 80.6784 25.4436" fill="#36344C"/>
<path d="M81.6293 31.8448C81.6293 31.8448 80.8558 34.0513 76.6533 33.3711L76.8818 32.1739L77.0415 31.3438C77.6198 31.9611 78.4007 32.3511 79.2426 32.443C80.0845 32.535 80.9316 32.3227 81.63 31.8448" fill="#F9D0D1"/>
<path d="M81.1047 29.1383C80.9549 29.3471 80.7585 29.5183 80.5308 29.6381C80.3032 29.7579 80.0507 29.8231 79.7934 29.8286C79.6918 29.8306 79.7099 29.9879 79.8112 29.9854C80.0889 29.9782 80.3612 29.9071 80.6069 29.7775C80.8525 29.648 81.0649 29.4636 81.2273 29.2387C81.2862 29.1562 81.164 29.0558 81.1049 29.1387" fill="#36344C"/>
<path d="M76.7537 32.8526L76.5844 33.7364L75.0296 34.0424L69.65 69.5329C63.2201 69.0727 60.493 65.2327 60.493 65.2327L63.0428 44.4402C63.0428 44.4402 53.1205 37.0266 52.1082 33.7505C51.0958 30.4745 53.7216 21.2334 53.7216 21.2334L54.5123 21.4292L58.1868 22.3365L58.6898 22.4612V30.0368L72.1444 33.4475C73.5939 32.8198 75.1918 32.6136 76.7537 32.8526" fill="#0142AF"/>
<path d="M81.6924 32.7893C82.3423 32.8029 82.9815 32.9574 83.5657 33.242C84.1498 33.5266 84.665 33.9345 85.0753 34.4375C85.0753 34.4375 89.0732 35.3149 89.8207 37.947C90.5681 40.5792 94.6137 66.988 94.6137 66.988C94.6137 66.988 94.2179 69.7297 90.9639 70.0588L89.1172 67.2948L89.2059 68.5669C89.2059 68.5669 86.7872 71.002 83.8845 70.6291L81.7733 33.9271L81.6924 32.7893Z" fill="#0142AF"/>
<path d="M72.2366 41.2566C72.0918 39.6995 72.0258 38.136 72.0388 36.5722C72.0462 35.6823 72.0796 34.793 72.139 33.9043C72.1458 33.804 71.9894 33.7783 71.9829 33.8797C71.7733 37.0224 71.8837 40.1781 72.3125 43.2985C72.433 44.1746 72.5785 45.0468 72.749 45.9149C72.7683 46.0138 72.9264 45.9974 72.9062 45.8972C72.6051 44.3625 72.3817 42.8136 72.2366 41.2565" fill="#389688"/>
<path d="M85.1903 34.7676C84.9125 37.6196 84.34 40.4353 83.4818 43.1699C83.2397 43.9405 82.9751 44.7036 82.6882 45.4592C82.6527 45.5538 82.7964 45.6195 82.8324 45.5245C83.8522 42.8373 84.5913 40.0523 85.0381 37.2137C85.1644 36.4098 85.2671 35.6025 85.3461 34.792C85.3556 34.6915 85.1995 34.6661 85.1896 34.7674" fill="#389688"/>
<path d="M62.6578 38.8847C62.605 38.4086 62.5563 37.9321 62.512 37.4553C62.5086 37.4354 62.4977 37.4175 62.4815 37.4053C62.4653 37.3932 62.4451 37.3876 62.4249 37.3899C62.4048 37.3922 62.3863 37.402 62.3732 37.4175C62.3601 37.433 62.3535 37.4528 62.3546 37.473C62.5122 39.1616 62.7229 40.8441 62.9867 42.5205C63.0613 42.9935 63.1401 43.466 63.2232 43.9379C63.241 44.0372 63.3982 44.0205 63.3804 43.9202C63.0866 42.2499 62.8458 40.5715 62.6578 38.8849" fill="#389688"/>
<path d="M62.6692 42.8003L61.3249 38.8991C61.2919 38.803 61.1445 38.8603 61.1777 38.9564L62.5218 42.8577C62.555 42.9538 62.7024 42.8964 62.6692 42.8003Z" fill="#389688"/>
<path d="M88.5735 58.5489C88.4039 55.9145 88.2063 53.2821 87.9807 50.6518C87.853 49.1622 87.7163 47.6733 87.5706 46.1852C87.5677 46.1649 87.5569 46.1465 87.5406 46.1339C87.5244 46.1214 87.5038 46.1156 87.4833 46.1179C87.4629 46.1202 87.4441 46.1304 87.4311 46.1463C87.418 46.1622 87.4116 46.1825 87.4134 46.203C87.6717 48.8438 87.902 51.4869 88.1042 54.1325C88.3053 56.7647 88.4784 59.3988 88.6235 62.0347C88.7057 63.5275 88.7789 65.0209 88.8432 66.5147C88.8476 66.6158 89.0048 66.5983 89.0003 66.497C88.8862 63.8461 88.7439 61.1966 88.5735 58.5486" fill="#389688"/>
<path d="M69.3158 58.8257C68.8665 59.7968 68.3028 60.7109 67.6368 61.549C66.9745 62.3837 66.2165 63.1381 65.3783 63.7969C64.9029 64.1698 64.4029 64.5105 63.8818 64.8166C63.7941 64.8683 63.8878 64.9955 63.9748 64.9442C66.3764 63.5284 68.2895 61.4171 69.4599 58.8909C69.4682 58.8719 69.4687 58.8503 69.4613 58.831C69.4539 58.8116 69.4391 58.7959 69.4202 58.7873C69.4012 58.7788 69.3797 58.778 69.3601 58.7851C69.3406 58.7923 69.3247 58.8068 69.3158 58.8255" fill="#389688"/>
<path d="M87.7919 66.6949C86.5278 65.206 85.5815 63.4755 85.0109 61.6092C84.8502 61.0823 84.7206 60.5464 84.6227 60.0044C84.6049 59.9051 84.4472 59.9215 84.4653 60.0221C84.8179 61.962 85.5634 63.8097 86.6562 65.4524C86.9657 65.9168 87.3022 66.3627 87.6639 66.7878C87.7294 66.865 87.8579 66.7726 87.7919 66.6951" fill="#389688"/>
<path d="M71.2705 39.754C70.0477 41.8174 69.1874 44.0742 68.7268 46.4268C68.668 46.726 69.1368 46.7996 69.1953 46.5008C69.6506 44.1913 70.4984 41.9764 71.702 39.9519C71.8576 39.6898 71.4238 39.4966 71.2698 39.7561" fill="#F4E9DC"/>
<path d="M85.0496 41.6278C84.9644 41.3354 84.5226 41.5087 84.6074 41.7998C85.2371 43.9677 85.4322 46.2382 85.1814 48.4813C85.1475 48.7833 85.616 48.859 85.6499 48.5555C85.9091 46.2293 85.7051 43.875 85.0496 41.6278Z" fill="#F4E9DC"/>
<path d="M72.2689 45.8728C71.9368 48.8936 71.5799 51.9117 71.1982 54.9272C70.8184 57.927 70.4141 60.9236 69.9852 63.9171C69.7447 65.5951 69.4964 67.272 69.24 68.9479C69.2371 68.9685 69.2424 68.9893 69.2548 69.006C69.2671 69.0227 69.2855 69.0338 69.3061 69.037C69.3266 69.0403 69.3476 69.0353 69.3645 69.0232C69.3813 69.0112 69.3928 68.993 69.3964 68.9725C69.8548 65.9682 70.2886 62.9603 70.6979 59.9488C71.1049 56.9522 71.4874 53.9526 71.8454 50.95C72.0465 49.2668 72.2394 47.5827 72.4243 45.8976C72.4353 45.7969 72.2792 45.7716 72.268 45.8728" fill="#F4E9DC"/>
<path d="M83.7361 60.5187C83.531 57.3646 83.3993 54.207 83.341 51.0458C83.3083 49.2652 83.2988 47.4843 83.3126 45.7033C83.3126 45.6022 83.1562 45.6206 83.1554 45.721C83.1312 48.8815 83.18 52.0414 83.302 55.2008C83.4239 58.3602 83.6197 61.5146 83.8894 64.6639C84.041 66.4382 84.216 68.2105 84.4142 69.9807C84.4171 70.001 84.4278 70.0195 84.4441 70.032C84.4604 70.0446 84.481 70.0503 84.5014 70.048C84.5219 70.0457 84.5406 70.0356 84.5537 70.0197C84.5668 70.0038 84.5731 69.9835 84.5714 69.963C84.2201 66.8219 83.9417 63.6737 83.7361 60.5186" fill="#F4E9DC"/>
</svg>
