<svg width="16" height="16" viewBox="0 0 16 16" fill="none" xmlns="http://www.w3.org/2000/svg">
<path d="M4.35478 2.24125L4.06349 2.0792L4.35478 2.24125C4.48279 2.01114 4.66127 1.81141 4.87825 1.65788C5.17667 1.44673 5.53323 1.33333 5.8988 1.33333C6.26437 1.33333 6.62093 1.44672 6.91935 1.65788C7.13633 1.81141 7.31481 2.01114 7.44282 2.24125C7.58883 2.50371 7.87064 2.73471 8.2331 2.73471H14.4966C14.5886 2.73471 14.6632 2.80933 14.6632 2.90137V3.30103C14.6632 3.39308 14.5886 3.4677 14.4966 3.4677H8.2331C7.87064 3.4677 7.58883 3.69869 7.44282 3.96115C7.31481 4.19126 7.13633 4.39099 6.91935 4.54452C6.62093 4.75568 6.26437 4.86907 5.8988 4.86907C5.53323 4.86907 5.17667 4.75568 4.87825 4.54452C4.66127 4.39099 4.48279 4.19126 4.35478 3.96115C4.20877 3.69869 3.92696 3.4677 3.5645 3.4677H1.5C1.40795 3.4677 1.33333 3.39308 1.33333 3.30103V2.90137C1.33333 2.80932 1.40795 2.73471 1.5 2.73471H3.56449C3.92696 2.73471 4.20877 2.50371 4.35478 2.24125ZM3.56449 12.5323C3.92696 12.5323 4.20877 12.3013 4.35478 12.0388C4.48279 11.8087 4.66127 11.609 4.87825 11.4555L4.68572 11.1834L4.87825 11.4555C5.17667 11.2443 5.53323 11.1309 5.8988 11.1309C6.26436 11.1309 6.62093 11.2443 6.91935 11.4555C7.13633 11.609 7.31481 11.8087 7.44282 12.0388C7.58883 12.3013 7.87064 12.5323 8.2331 12.5323H14.4966C14.5886 12.5323 14.6632 12.6069 14.6632 12.699V13.0986C14.6632 13.1907 14.5886 13.2653 14.4966 13.2653H8.2331C7.87064 13.2653 7.58883 13.4963 7.44282 13.7588C7.31481 13.9889 7.13633 14.1886 6.91935 14.3421C6.62093 14.5533 6.26436 14.6667 5.8988 14.6667C5.53323 14.6667 5.17667 14.5533 4.87825 14.3421L4.68572 14.6142L4.87825 14.3421C4.66127 14.1886 4.48279 13.9889 4.35478 13.7588C4.20877 13.4963 3.92696 13.2653 3.5645 13.2653H1.5C1.40795 13.2653 1.33333 13.1907 1.33333 13.0986V12.699C1.33333 12.6069 1.40795 12.5323 1.5 12.5323H3.56449ZM7.76347 7.63351C8.12593 7.63351 8.40774 7.40251 8.55375 7.14005C8.68176 6.90994 8.86024 6.71021 9.07722 6.55668C9.37564 6.34552 9.7322 6.23213 10.0978 6.23213C10.4633 6.23213 10.8199 6.34552 11.1183 6.55668C11.3353 6.71021 11.5138 6.90994 11.6418 7.14005C11.7878 7.40251 12.0696 7.63351 12.4321 7.63351H14.4966C14.5886 7.63351 14.6632 7.70813 14.6632 7.80017V8.19983C14.6632 8.29188 14.5886 8.3665 14.4966 8.3665H12.4321C12.0696 8.3665 11.7878 8.59749 11.6418 8.85995C11.5138 9.09006 11.3353 9.28979 11.1183 9.44332C10.8199 9.65448 10.4633 9.76787 10.0978 9.76787C9.7322 9.76787 9.37564 9.65448 9.07722 9.44332C8.86024 9.28979 8.68176 9.09006 8.55375 8.85995C8.40774 8.59749 8.12593 8.3665 7.76347 8.3665H1.5C1.40795 8.3665 1.33333 8.29188 1.33333 8.19983V7.80017C1.33333 7.70812 1.40795 7.63351 1.5 7.63351H7.76347Z" fill="#0142AF" stroke="#0142AF" stroke-width="0.666667"/>
</svg>
