<svg width="16" height="16" viewBox="0 0 16 16" fill="none" xmlns="http://www.w3.org/2000/svg">
<path d="M8 0C12.4184 0 16 3.5816 16 8C16 12.4184 12.4184 16 8 16C3.5816 16 0 12.4184 0 8C0 3.5816 3.5816 0 8 0ZM4.8 8.8L1.6496 8.8008C1.82783 10.2106 2.46995 11.521 3.47481 12.5257C4.47968 13.5304 5.7902 14.1724 7.2 14.3504V11.2C6.56348 11.2 5.95303 10.9471 5.50294 10.4971C5.05286 10.047 4.8 9.43652 4.8 8.8ZM14.3504 8.8008L11.2 8.8C11.2 9.43652 10.9471 10.047 10.4971 10.4971C10.047 10.9471 9.43652 11.2 8.8 11.2L8.8008 14.3504C10.2105 14.1722 11.5208 13.5302 12.5255 12.5255C13.5302 11.5208 14.1722 10.2105 14.3504 8.8008ZM8 1.6C6.44111 1.60003 4.93582 2.16895 3.7666 3.2C2.59739 4.23106 1.84463 5.65336 1.6496 7.2H4.8C4.8 6.98783 4.88429 6.78434 5.03431 6.63432C5.18434 6.48429 5.38783 6.4 5.6 6.4H10.4C10.6122 6.4 10.8157 6.48429 10.9657 6.63432C11.1157 6.78434 11.2 6.98783 11.2 7.2H14.3504C14.1554 5.65336 13.4026 4.23106 12.2334 3.2C11.0642 2.16895 9.55889 1.60003 8 1.6Z" fill="#333333"/>
</svg>
