<svg width="16" height="16" viewBox="0 0 16 16" fill="none" xmlns="http://www.w3.org/2000/svg">
<path d="M5.94445 3.70833C6.01348 3.70833 6.06944 3.7643 6.06944 3.83333V4.38889C6.06944 4.45792 6.01348 4.51389 5.94444 4.51389H3.05556C2.57231 4.51389 2.18056 4.90564 2.18056 5.38889V12.9444C2.18056 13.4277 2.57231 13.8194 3.05556 13.8194H10.6111C11.0944 13.8194 11.4861 13.4277 11.4861 12.9444V10.0556C11.4861 9.98652 11.5421 9.93056 11.6111 9.93056H12.1667C12.2357 9.93056 12.2917 9.98652 12.2917 10.0556V14.2222C12.2917 14.329 12.2492 14.4315 12.1737 14.507C12.0982 14.5826 11.9957 14.625 11.8889 14.625H1.77778C1.67095 14.625 1.56851 14.5826 1.49297 14.507C1.41744 14.4315 1.375 14.329 1.375 14.2222V4.11111C1.375 4.00429 1.41744 3.90184 1.49297 3.8263C1.56851 3.75077 1.67095 3.70833 1.77778 3.70833H5.94445ZM14.5 1.375C14.569 1.375 14.625 1.43096 14.625 1.5V6.79312C14.625 6.90447 14.4904 6.96025 14.4116 6.88152L12.6678 5.13818C12.3261 4.79653 11.7721 4.79659 11.4304 5.13831L7.47159 9.0978C7.42277 9.14662 7.34362 9.14663 7.2948 9.09781L6.90213 8.70514C6.85332 8.65632 6.85332 8.57718 6.90213 8.52837L10.8611 4.56876C11.2027 4.22708 11.2027 3.67316 10.8611 3.33146L9.11848 1.58838C9.03975 1.50963 9.09553 1.375 9.20688 1.375H14.5Z" fill="white" stroke="white" stroke-width="0.75"/>
</svg>
