<svg width="13" height="17" viewBox="0 0 13 17" fill="none" xmlns="http://www.w3.org/2000/svg">
<g clip-path="url(#clip0_905_44550)">
<path d="M2.16667 0.5C0.971615 0.5 0 1.39688 0 2.5V14.5C0 15.6031 0.971615 16.5 2.16667 16.5H10.8333C12.0284 16.5 13 15.6031 13 14.5V5.5H8.66667C8.06745 5.5 7.58333 5.05312 7.58333 4.5V0.5H2.16667ZM8.66667 0.5V4.5H13L8.66667 0.5ZM2.16667 7.5H2.97917C4.02526 7.5 4.875 8.28438 4.875 9.25C4.875 10.2156 4.02526 11 2.97917 11H2.70833V12C2.70833 12.275 2.46458 12.5 2.16667 12.5C1.86875 12.5 1.625 12.275 1.625 12V10.5V8C1.625 7.725 1.86875 7.5 2.16667 7.5ZM2.97917 10C3.42943 10 3.79167 9.66562 3.79167 9.25C3.79167 8.83438 3.42943 8.5 2.97917 8.5H2.70833V10H2.97917ZM5.41667 8C5.41667 7.725 5.66042 7.5 5.95833 7.5H6.77083C7.66797 7.5 8.39583 8.17188 8.39583 9V11C8.39583 11.8281 7.66797 12.5 6.77083 12.5H5.95833C5.66042 12.5 5.41667 12.275 5.41667 12V8ZM6.5 11.5H6.77083C7.06875 11.5 7.3125 11.275 7.3125 11V9C7.3125 8.725 7.06875 8.5 6.77083 8.5H6.5V11.5ZM9.75 7.5H11.375C11.6729 7.5 11.9167 7.725 11.9167 8C11.9167 8.275 11.6729 8.5 11.375 8.5H10.2917V9.5H11.375C11.6729 9.5 11.9167 9.725 11.9167 10C11.9167 10.275 11.6729 10.5 11.375 10.5H10.2917V12C10.2917 12.275 10.0479 12.5 9.75 12.5C9.45208 12.5 9.20833 12.275 9.20833 12V10V8C9.20833 7.725 9.45208 7.5 9.75 7.5Z" fill="black"/>
</g>
<defs>
<clipPath id="clip0_905_44550">
<rect width="13" height="16" fill="white" transform="translate(0 0.5)"/>
</clipPath>
</defs>
</svg>
