<svg width="13" height="17" viewBox="0 0 13 17" fill="none" xmlns="http://www.w3.org/2000/svg">
<g clip-path="url(#clip0_905_44558)">
<path d="M2.16667 0.5C0.971615 0.5 0 1.39688 0 2.5V14.5C0 15.6031 0.971615 16.5 2.16667 16.5H10.8333C12.0284 16.5 13 15.6031 13 14.5V5.5H8.66667C8.06745 5.5 7.58333 5.05312 7.58333 4.5V0.5H2.16667ZM8.66667 0.5V4.5H13L8.66667 0.5ZM5.27109 8.31875L6.5 9.94063L7.72891 8.31875C7.9862 7.97813 8.49401 7.89687 8.85964 8.13438C9.22526 8.37188 9.31667 8.84063 9.05938 9.17813L7.49193 11.25L9.06276 13.3188C9.32005 13.6594 9.23203 14.125 8.86302 14.3625C8.49401 14.6 7.98958 14.5188 7.73229 14.1781L6.5 12.5562L5.27109 14.1781C5.0138 14.5188 4.50599 14.6 4.14036 14.3625C3.77474 14.125 3.68333 13.6562 3.94063 13.3188L5.50807 11.25L3.93724 9.18125C3.67995 8.84062 3.76797 8.375 4.13698 8.1375C4.50599 7.9 5.01042 7.98125 5.26771 8.32188L5.27109 8.31875Z" fill="black"/>
</g>
<defs>
<clipPath id="clip0_905_44558">
<rect width="13" height="16" fill="white" transform="translate(0 0.5)"/>
</clipPath>
</defs>
</svg>
