<svg width="13" height="17" viewBox="0 0 13 17" fill="none" xmlns="http://www.w3.org/2000/svg">
<g clip-path="url(#clip0_905_44554)">
<path d="M2.16667 0.5C0.971615 0.5 0 1.39688 0 2.5V14.5C0 15.6031 0.971615 16.5 2.16667 16.5H10.8333C12.0284 16.5 13 15.6031 13 14.5V5.5H8.66667C8.06745 5.5 7.58333 5.05312 7.58333 4.5V0.5H2.16667ZM8.66667 0.5V4.5H13L8.66667 0.5ZM3.75781 8.53438L4.6651 11.3219L5.7349 8.5C5.85 8.2 6.15807 7.99687 6.50339 7.99687C6.8487 7.99687 7.15677 8.19688 7.27188 8.5L8.34167 11.3219L9.24219 8.53438C9.37083 8.1375 9.82448 7.9125 10.2544 8.03125C10.6844 8.15 10.9281 8.56875 10.7995 8.96562L9.17448 13.9656C9.07292 14.2781 8.76484 14.4937 8.41615 14.5C8.06745 14.5063 7.74583 14.3062 7.63073 13.9969L6.5 11.0188L5.37266 13.9969C5.25755 14.3031 4.93932 14.5063 4.58724 14.5C4.23516 14.4937 3.92708 14.2781 3.82891 13.9656L2.20391 8.96562C2.07526 8.56875 2.31901 8.15 2.74896 8.03125C3.17891 7.9125 3.63255 8.1375 3.7612 8.53438H3.75781Z" fill="black"/>
</g>
<defs>
<clipPath id="clip0_905_44554">
<rect width="13" height="16" fill="white" transform="translate(0 0.5)"/>
</clipPath>
</defs>
</svg>
