<svg width="34" height="34" viewBox="0 0 34 34" fill="none" xmlns="http://www.w3.org/2000/svg">
<rect width="34" height="34" rx="8" fill="#F7F8F9"/>
<path d="M13.3889 17C13.3889 18.1036 12.5184 19 11.4444 19C10.3705 19 9.5 18.1036 9.5 17C9.5 15.8964 10.3705 15 11.4444 15C12.5184 15 13.3889 15.8964 13.3889 17ZM18.9444 17C18.9444 18.1036 18.0729 19 17 19C15.9271 19 15.0556 18.1036 15.0556 17C15.0556 15.8964 15.9271 15 17 15C18.0729 15 18.9444 15.8964 18.9444 17ZM20.6111 17C20.6111 15.8964 21.4826 15 22.5556 15C23.6285 15 24.5 15.8964 24.5 17C24.5 18.1036 23.6285 19 22.5556 19C21.4826 19 20.6111 18.1036 20.6111 17Z" fill="#333333"/>
</svg>
