<svg width="22" height="20" viewBox="0 0 22 20" fill="none" xmlns="http://www.w3.org/2000/svg">
<path d="M0 1.66667C0 0.746354 0.703705 0 1.57143 0H20.4286C21.2978 0 22 0.746354 22 1.66667C22 2.58854 21.2978 3.33333 20.4286 3.33333H1.57143C0.703705 3.33333 0 2.58854 0 1.66667ZM0 10C0 9.07812 0.703705 8.33333 1.57143 8.33333H20.4286C21.2978 8.33333 22 9.07812 22 10C22 10.9219 21.2978 11.6667 20.4286 11.6667H1.57143C0.703705 11.6667 0 10.9219 0 10ZM20.4286 20H1.57143C0.703705 20 0 19.2552 0 18.3333C0 17.4115 0.703705 16.6667 1.57143 16.6667H20.4286C21.2978 16.6667 22 17.4115 22 18.3333C22 19.2552 21.2978 20 20.4286 20Z" fill="#E6E6E6"/>
</svg>
