<svg width="17" height="13" viewBox="0 0 17 13" fill="none" xmlns="http://www.w3.org/2000/svg">
<g clip-path="url(#clip0_623_44511)">
<path d="M14.3998 8.9375H13.5998V7.71875C13.5998 7.49531 13.4198 7.3125 13.1998 7.3125C12.9798 7.3125 12.7998 7.49531 12.7998 7.71875V9.50244C12.7998 9.63828 12.9098 9.75 13.0448 9.75H14.3998C14.6208 9.75 14.7998 9.5681 14.7998 9.34375C14.7998 9.12031 14.6198 8.9375 14.3998 8.9375ZM13.5998 4.89531V3.65625C13.5998 3.00625 13.0398 2.4375 12.3998 2.4375H10.3998V1.21875C10.3998 0.569004 9.8398 0 9.19981 0H5.1998C4.5598 0 3.9998 0.569004 3.9998 1.21875V2.4375H1.9998C1.36005 2.4375 0.799805 3.00625 0.799805 3.65625V7.3125H9.2848C10.0123 5.86777 11.4898 4.875 13.1998 4.875C13.3348 4.875 13.4673 4.88262 13.5998 4.89531ZM9.19981 2.4375H5.1998V1.21875H9.19981V2.4375Z" fill="#757575"/>
<path opacity="0.4" d="M13.1998 5.6875C11.2098 5.6875 9.5998 7.32266 9.5998 9.34375C9.5998 11.3648 11.2093 13 13.1998 13C15.1903 13 16.7998 11.3654 16.7998 9.34375C16.7998 7.32215 15.1898 5.6875 13.1998 5.6875ZM14.3998 9.75H13.0436C12.9098 9.75 12.7998 9.63828 12.7998 9.50371V7.71875C12.7998 7.49531 12.9798 7.3125 13.1998 7.3125C13.4198 7.3125 13.5998 7.49531 13.5998 7.71875V8.9375H14.3998C14.6208 8.9375 14.7998 9.11935 14.7998 9.34375C14.7998 9.56719 14.6198 9.75 14.3998 9.75ZM8.80231 8.9375H5.9998C5.7798 8.9375 5.5998 8.75469 5.5998 8.53125V7.3125H0.799805V10.9688C0.799805 11.6188 1.36005 12.1875 1.9998 12.1875H9.8048C9.17731 11.4156 8.7998 10.4229 8.7998 9.34375C8.7998 9.20664 8.8123 9.07207 8.80231 8.9375Z" fill="#757575"/>
</g>
<defs>
<clipPath id="clip0_623_44511">
<rect width="16" height="13" fill="white" transform="translate(0.799805)"/>
</clipPath>
</defs>
</svg>
