<svg width="24" height="17" viewBox="0 0 24 17" fill="none" xmlns="http://www.w3.org/2000/svg">
<path d="M1.12522e-05 3.03514C1.12522e-05 1.82272 1.07458 0.840088 2.40047 0.840088H19.2038C20.5278 0.840088 21.6042 1.82272 21.6042 3.03514V5.25077C21.0341 5.31936 20.4865 5.55259 20.0514 5.95387L13.2513 12.1686C12.9438 12.4498 12.7262 12.8031 12.6212 13.1907L12.3962 14.0104H2.40047C1.07458 14.0104 0 13.026 0 11.8153L1.12522e-05 3.03514ZM10.202 9.62029H12.6025C12.9325 9.62029 13.2026 9.37334 13.2026 9.07152C13.2026 8.7697 12.9325 8.52276 12.6025 8.52276H10.202C9.87193 8.52276 9.60188 8.7697 9.60188 9.07152C9.60188 9.37334 9.87193 9.62029 10.202 9.62029ZM10.202 5.23019C9.87193 5.23019 9.60188 5.47713 9.60188 5.77895C9.60188 6.08077 9.87193 6.32771 10.202 6.32771H16.2032C16.5332 6.32771 16.8033 6.08077 16.8033 5.77895C16.8033 5.47713 16.5332 5.23019 16.2032 5.23019H10.202ZM4.64716 4.13266V4.33845C4.43712 4.37961 4.20457 4.43791 4.05079 4.51337C3.49043 4.74659 3.00321 5.17874 2.88469 5.80639C2.81868 6.15622 2.85356 6.49577 3.01259 6.80102C3.16824 7.10284 3.41317 7.31548 3.66184 7.46982C4.0958 7.74077 4.66966 7.89854 5.1085 8.01859L5.19101 8.03916C5.71612 8.18664 6.06869 8.29297 6.28998 8.44045C6.38375 8.50218 6.4175 8.5502 6.42876 8.58107C6.44376 8.60851 6.46626 8.67024 6.44001 8.80743C6.4175 8.92747 6.34624 9.03037 6.13995 9.10925C5.91115 9.19843 5.53983 9.24301 5.05974 9.17442C4.83469 9.14012 4.43337 9.01665 4.07705 8.9069C3.99453 8.87946 3.91201 8.85545 3.837 8.83144C3.44467 8.7114 3.01971 8.9069 2.88881 9.26702C2.75791 9.62715 2.97058 10.0147 3.36366 10.1039C3.40904 10.1485 3.4653 10.1656 3.52981 10.1862C3.79199 10.2788 4.29084 10.4229 4.64716 10.4983V10.7178C4.64716 11.0985 4.98472 11.4072 5.3673 11.4072C5.81739 11.4072 6.15495 11.0985 6.15495 10.7178V10.5292C6.35374 10.4949 6.54878 10.4126 6.72881 10.3714C7.32143 10.1416 7.79402 9.69574 7.9178 9.04409C7.98531 8.68739 7.9553 8.34441 7.80527 8.03231C7.659 7.72363 7.4227 7.49726 7.1714 7.33263C6.71756 7.02738 6.10994 6.86275 5.6561 6.73585L5.59234 6.72899C5.09349 6.58151 4.73342 6.47862 4.50463 6.33457C4.40711 6.27284 4.3771 6.23168 4.3696 6.21453C4.3621 6.20081 4.3396 6.15965 4.3621 6.04304C4.3771 5.97445 4.43337 5.86126 4.66966 5.76523C4.8797 5.66577 5.28478 5.61089 5.74612 5.64519C5.9074 5.70007 6.41375 5.78924 6.56003 5.82354C6.95761 5.923 7.37019 5.70349 7.47521 5.33651C7.58398 4.97295 7.34393 4.59568 6.94261 4.49965C6.77757 4.45849 6.4025 4.38989 6.15495 4.34874V4.13266C6.15495 3.75196 5.81739 3.44328 5.40105 3.44328C4.98472 3.44328 4.64716 3.75196 4.64716 4.13266ZM23.5583 7.22288C24.1472 7.75792 24.1472 8.62565 23.5583 9.16413L22.4556 10.1725L19.7964 7.73735L20.8991 6.72899C21.4842 6.19395 22.4331 6.19395 23.022 6.72899L23.5583 7.22288ZM14.099 12.9163L18.945 8.5159L21.608 10.9476L16.762 15.3789C16.6082 15.5195 16.4132 15.6189 16.2032 15.667L13.949 16.1849C13.7427 16.2294 13.5289 16.1746 13.3789 16.0408C13.2288 15.9036 13.1688 15.7047 13.2213 15.4886L13.7839 13.4548C13.8365 13.2627 13.9452 13.0878 14.099 12.9163Z" fill="#333333"/>
</svg>
