<svg width="26" height="26" viewBox="0 0 26 26" fill="none" xmlns="http://www.w3.org/2000/svg">
<path d="M6.5 2.84375C6.5 1.27309 7.77461 0 9.34375 0H16.6562C18.2254 0 19.5 1.27309 19.5 2.84375V24.375H6.5V2.84375ZM8.9375 4.875H17.0625V2.84375C17.0625 2.6193 16.8797 2.4375 16.6562 2.4375H9.34375C9.12031 2.4375 8.9375 2.6193 8.9375 2.84375V4.875ZM3.25 4.875H4.875V24.375H3.25C1.45488 24.375 0 22.9176 0 21.125V8.125C0 6.33242 1.45488 4.875 3.25 4.875ZM22.75 24.375H21.125V4.875H22.75C24.5426 4.875 26 6.33242 26 8.125V21.125C26 22.9176 24.5426 24.375 22.75 24.375Z" fill="#009EDA"/>
<path opacity="0.4" d="M6.5 24.375H4.875V4.875H6.5V24.375ZM21.125 24.375H19.5V4.875H21.125V24.375Z" fill="#009EDA"/>
</svg>
