<svg width="97" height="96" viewBox="0 0 97 96" fill="none" xmlns="http://www.w3.org/2000/svg">
<rect x="0.5" width="96" height="96" rx="48" fill="#F8F8F8"/>
<path d="M42.3752 50.5712C42.9359 50.0219 43.6896 49.7143 44.4746 49.7143H52.5254C53.3104 49.7143 54.064 50.0219 54.6248 50.5712L58.0993 53.9749C58.6754 54.5391 59 55.3116 59 56.1179V59C59 59.5523 58.5523 60 58 60H39C38.4477 60 38 59.5523 38 59V56.1179C38 55.3116 38.3246 54.5391 38.9007 53.9749L42.3752 50.5712Z" fill="#C7C7C7"/>
<path d="M53.75 41.1429C53.75 43.9832 51.3995 46.2857 48.5 46.2857C45.6005 46.2857 43.25 43.9832 43.25 41.1429C43.25 38.3025 45.6005 36 48.5 36C51.3995 36 53.75 38.3025 53.75 41.1429Z" fill="#C7C7C7"/>
</svg>
