<svg width="74" height="73" viewBox="0 0 74 73" fill="none" xmlns="http://www.w3.org/2000/svg">
<path d="M37 73C57.1605 73 73.5 56.6605 73.5 36.5C73.5 16.3395 57.1605 0 37 0C16.8395 0 0.5 16.3395 0.5 36.5C0.5 56.6605 16.8395 73 37 73ZM53.1113 29.7988L34.8613 48.0488C33.5211 49.3891 31.3539 49.3891 30.0279 48.0488L20.9029 38.9238C19.5627 37.5836 19.5627 35.4164 20.9029 34.0904C22.2432 32.7645 24.4104 32.7502 25.7363 34.0904L32.4375 40.7916L48.2637 24.9512C49.6039 23.6109 51.7711 23.6109 53.0971 24.9512C54.423 26.2914 54.4373 28.4586 53.0971 29.7846L53.1113 29.7988Z" fill="#159A00"/>
</svg>
