<svg width="22" height="23" viewBox="0 0 22 23" fill="none" xmlns="http://www.w3.org/2000/svg">
<path d="M17 6.125V6.82812C17 9.93506 14.3141 12.4531 11 12.4531C7.68594 12.4531 5 9.93506 5 6.82812V6.125C5 3.01851 7.68594 0.5 11 0.5C14.3141 0.5 17 3.01851 17 6.125ZM14.75 6.82812V6.125C14.75 5.62402 14.6375 5.14941 14.4359 4.71875H14.375C13.4141 4.71875 12.5609 4.29688 12.0125 3.64033C11.3703 4.70425 10.1469 5.42188 8.75 5.42188H7.325C7.27813 5.65039 7.25 5.8833 7.25 6.125V6.82812C7.25 8.77051 8.92813 10.3438 11 10.3438C13.0719 10.3438 14.75 8.77051 14.75 6.82812ZM1.94 23C1.14453 23 0.5 22.3936 0.5 21.6509C0.5 18.1089 3.26984 15.1733 6.88906 14.646L8.74063 21.73L10.3016 16.2852L8.75 13.8594H13.25L11.6984 16.2852L13.2594 21.73L15.1109 14.646C18.7297 15.1733 21.5 18.1089 21.5 21.6509C21.5 22.3936 20.8531 23 20.0609 23H1.94Z" fill="#333333"/>
</svg>
