<svg width="32" height="28" viewBox="0 0 32 28" fill="none" xmlns="http://www.w3.org/2000/svg">
<path d="M25.7773 0C25.0385 0 24.444 0.585156 24.444 1.3125V3.0625H22.6662C21.9273 3.0625 21.3329 3.64766 21.3329 4.375C21.3329 5.10234 21.9273 5.6875 22.6662 5.6875H24.444V7.4375C24.444 8.16484 25.0385 8.75 25.7773 8.75C26.5162 8.75 27.1107 8.16484 27.1107 7.4375V5.6875H28.8885C29.6273 5.6875 30.2218 5.10234 30.2218 4.375C30.2218 3.64766 29.6273 3.0625 28.8885 3.0625H27.1107V1.3125C27.1107 0.585156 26.5162 0 25.7773 0ZM17.3051 7.28438C16.4773 6.90703 15.5218 6.90703 14.694 7.28438L2.54957 12.8078C2.07734 13.0211 1.77734 13.4859 1.77734 14C1.77734 14.5141 2.07734 14.9789 2.54957 15.1922L14.694 20.7156C15.5218 21.093 16.4773 21.093 17.3051 20.7156L29.4496 15.1922C29.9218 14.9789 30.2218 14.5141 30.2218 14C30.2218 13.4859 29.9218 13.0211 29.4496 12.8078L17.3051 7.28438ZM18.0496 22.307C16.7496 22.8977 15.2496 22.8977 13.9496 22.307L5.50512 18.468L2.54957 19.8078C2.07734 20.0211 1.77734 20.4859 1.77734 21C1.77734 21.5141 2.07734 21.9789 2.54957 22.1922L14.694 27.7156C15.5218 28.093 16.4773 28.093 17.3051 27.7156L29.4496 22.1922C29.9218 21.9789 30.2218 21.5141 30.2218 21C30.2218 20.4859 29.9218 20.0211 29.4496 19.8078L26.494 18.4625L18.0496 22.3016V22.307Z" fill="#009EDA"/>
</svg>
