<svg width="38" height="38" viewBox="0 0 38 38" fill="none" xmlns="http://www.w3.org/2000/svg">
<path d="M6.50598 20.92C5.83134 19.7301 5.83134 18.2682 6.50598 17.0783L11.1239 8.92C11.7986 7.73014 13.038 6.99915 14.3873 6.99915H23.6179C24.962 6.99915 26.2067 7.73014 26.8813 8.92L31.494 17.0783C32.1687 18.2682 32.1687 19.7301 31.494 20.92L26.8761 29.0783C26.2014 30.2682 24.962 30.9991 23.6127 30.9991H14.3821C13.038 30.9991 11.7933 30.2682 11.1187 29.0783L6.50598 20.92ZM14.7639 14.6772C14.2723 15.1788 14.2723 15.9898 14.7639 16.486L17.2219 18.9938L14.7639 21.5016C14.2723 22.0031 14.2723 22.8142 14.7639 23.3104C15.2555 23.8066 16.0504 23.812 16.5368 23.3104L18.9948 20.8026L21.4528 23.3104C21.9444 23.812 22.7393 23.812 23.2257 23.3104C23.7121 22.8088 23.7173 21.9978 23.2257 21.5016L20.7677 18.9938L23.2257 16.486C23.7173 15.9845 23.7173 15.1734 23.2257 14.6772C22.7341 14.181 21.9392 14.1757 21.4528 14.6772L18.9948 17.185L16.5368 14.6772C16.0452 14.1757 15.2502 14.1757 14.7639 14.6772Z" fill="#EF631A"/>
</svg>
