<svg width="36" height="32" viewBox="0 0 36 32" fill="none" xmlns="http://www.w3.org/2000/svg">
<path d="M0 8C0 5.79375 1.79375 4 4 4H23.1688C24.2313 4 25.25 4.41875 26 5.16875L35.4125 14.5875C35.7875 14.9625 36 15.4688 36 16C36 16.5312 35.7875 17.0375 35.4125 17.4125L26 26.8312C25.25 27.5812 24.2313 28 23.1688 28H4C1.79375 28 0 26.2062 0 24V8ZM8.9375 10.9375C8.35 11.525 8.35 12.475 8.9375 13.0562L11.875 15.9937L8.9375 18.9312C8.35 19.5187 8.35 20.4688 8.9375 21.05C9.525 21.6312 10.475 21.6375 11.0562 21.05L13.9937 18.1125L16.9312 21.05C17.5187 21.6375 18.4688 21.6375 19.05 21.05C19.6312 20.4625 19.6375 19.5125 19.05 18.9312L16.1125 15.9937L19.05 13.0562C19.6375 12.4688 19.6375 11.5188 19.05 10.9375C18.4625 10.3562 17.5125 10.35 16.9312 10.9375L13.9937 13.875L11.0562 10.9375C10.4688 10.35 9.51875 10.35 8.9375 10.9375Z" fill="#E31617"/>
</svg>
