<svg width="30" height="30" viewBox="0 0 30 30" fill="none" xmlns="http://www.w3.org/2000/svg">
<g clip-path="url(#clip0_878_45079)">
<path d="M3.75 1.87502V28.125C3.75 29.1621 2.91211 30 1.875 30C0.837891 30 0 29.1621 0 28.125V1.87502C0 0.83791 0.837891 1.92742e-05 1.875 1.92742e-05C2.91211 1.92742e-05 3.75 0.83791 3.75 1.87502ZM6.14062 19.6172C5.96484 19.6699 5.78906 19.7168 5.625 19.7695V0.791035C7.11914 0.375019 8.96484 1.92742e-05 10.7812 1.92742e-05C12.9199 1.92742e-05 14.7832 0.533222 16.3828 0.990254L16.459 1.01369C18.1289 1.4883 19.5293 1.87502 21.0938 1.87502C22.6641 1.87502 24.1934 1.47658 25.3711 1.04885C25.9512 0.83791 26.4199 0.626972 26.7422 0.474629C26.9004 0.398457 27.0234 0.334004 27.1055 0.292988C27.1465 0.269551 27.1699 0.257832 27.1875 0.246113L27.1992 0.240254C27.7793 -0.0878714 28.4941 -0.0878714 29.0684 0.251972C29.6426 0.591816 30 1.20705 30 1.87502V16.875C30 17.584 29.6016 18.2344 28.9629 18.5508L28.125 16.875C28.9629 18.5508 28.9629 18.5508 28.9629 18.5508H28.957L28.9453 18.5567L28.9043 18.5801C28.8691 18.5977 28.8164 18.6211 28.7578 18.6504C28.6289 18.709 28.4531 18.791 28.2305 18.8848C27.7793 19.0781 27.1465 19.3301 26.3848 19.582C24.873 20.0918 22.7812 20.625 20.625 20.625C18.457 20.625 16.8047 20.0742 15.4102 19.6113L15.3516 19.5938C13.9453 19.125 12.791 18.75 11.25 18.75C9.63867 18.75 7.72852 19.1602 6.14062 19.6172Z" fill="#159A00"/>
</g>
<defs>
<clipPath id="clip0_878_45079">
<rect width="30" height="30" fill="white"/>
</clipPath>
</defs>
</svg>
