<svg width="20" height="19" viewBox="0 0 20 19" fill="none" xmlns="http://www.w3.org/2000/svg">
<path d="M14.3496 5.64062V6.19727C14.3496 8.65692 12.2232 10.6504 9.59961 10.6504C6.97598 10.6504 4.84961 8.65692 4.84961 6.19727V5.64062C4.84961 3.18132 6.97598 1.1875 9.59961 1.1875C12.2232 1.1875 14.3496 3.18132 14.3496 5.64062ZM12.5684 6.19727V5.64062C12.5684 5.24402 12.4793 4.86829 12.3197 4.52734H12.2715C11.5107 4.52734 10.8354 4.19336 10.4012 3.6736C9.89277 4.51586 8.92422 5.08398 7.81836 5.08398H6.69023C6.65313 5.26489 6.63086 5.44928 6.63086 5.64062V6.19727C6.63086 7.73499 7.95937 8.98047 9.59961 8.98047C11.2398 8.98047 12.5684 7.73499 12.5684 6.19727ZM2.42711 19C1.79736 19 1.28711 18.5199 1.28711 17.9319C1.28711 15.1279 3.4799 12.8039 6.34512 12.3864L7.81094 17.9946L9.04668 13.6841L7.81836 11.7637H11.3809L10.1525 13.6841L11.3883 17.9946L12.8541 12.3864C15.7189 12.8039 17.9121 15.1279 17.9121 17.9319C17.9121 18.5199 17.4 19 16.7729 19H2.42711Z" fill="#757575"/>
</svg>
