<svg width="32" height="32" viewBox="0 0 32 32" fill="none" xmlns="http://www.w3.org/2000/svg">
<path d="M19.5875 29.9429C21.2125 29.6179 22.2688 28.0366 21.9438 26.4116L21.8 25.6991C21.4688 24.0304 20.8563 22.4429 20 20.9991H29C30.6562 20.9991 32 19.6554 32 17.9991C32 16.4179 30.7812 15.1241 29.2313 15.0054C29.7125 14.4741 30 13.7679 30 12.9991C30 11.5366 28.95 10.3179 27.5688 10.0554C27.8438 9.59914 28 9.0679 28 8.49915C28 7.1679 27.1313 6.03665 25.9312 5.64915C25.975 5.4429 26 5.22415 26 4.99915C26 3.3429 24.6562 1.99915 23 1.99915H18.4062C17.2188 1.99915 16.0625 2.34915 15.075 3.0054L12.6687 4.61165C11 5.72415 10 7.59915 10 9.6054V11.9991V14.9991V16.5554C10 18.3804 10.8313 20.0991 12.25 21.2429L12.7125 21.6116C14.3687 22.9366 15.5 24.7991 15.9125 26.8741L16.0562 27.5866C16.3813 29.2116 17.9625 30.2679 19.5875 29.9429ZM2 19.9991H6C7.10625 19.9991 8 19.1054 8 17.9991V3.99915C8 2.8929 7.10625 1.99915 6 1.99915H2C0.89375 1.99915 0 2.8929 0 3.99915V17.9991C0 19.1054 0.89375 19.9991 2 19.9991Z" fill="#FFC107"/>
</svg>
