<svg width="15" height="15" viewBox="0 0 15 15" fill="none" xmlns="http://www.w3.org/2000/svg">
<g clip-path="url(#clip0_623_44304)">
<path d="M7.20063 0.5C3.93396 0.5 1.75618 1.4625 1.75618 2.6875V4C1.32598 4 0.978407 4.39102 0.978407 4.875V6.625C0.978407 7.10898 1.32598 7.5 1.75618 7.5V11.875C1.75618 12.359 2.10375 12.75 2.53396 12.75H11.8673C12.2968 12.75 12.6451 12.359 12.6451 11.875V7.5C13.0746 7.5 13.4229 7.10898 13.4229 6.625V4.875C13.4229 4.39102 13.0746 4 12.6451 4V2.6875C12.6451 1.4625 10.4673 0.5 7.20063 0.5ZM11.0895 7.5C11.0895 7.98398 10.7419 8.375 10.3117 8.375H7.58952V4H10.3117C10.7419 4 11.0895 4.39102 11.0895 4.875V7.5ZM6.81174 8.375H4.08952C3.65931 8.375 3.31174 7.98398 3.31174 7.5V4.875C3.31174 4.39102 3.65931 4 4.08952 4H6.81174V8.375ZM10.7006 11.4375C10.2704 11.4375 9.92285 11.0465 9.92285 10.5625C9.92285 10.0785 10.2704 9.6875 10.7006 9.6875C11.1308 9.6875 11.4784 10.0785 11.4784 10.5625C11.4784 11.0465 11.1308 11.4375 10.7006 11.4375ZM3.70063 11.4375C3.27042 11.4375 2.92285 11.0465 2.92285 10.5625C2.92285 10.0785 3.27042 9.6875 3.70063 9.6875C4.13084 9.6875 4.47841 10.0785 4.47841 10.5625C4.47841 11.0465 4.13084 11.4375 3.70063 11.4375ZM5.25618 2.25H9.14507C9.35896 2.25 9.53396 2.44578 9.53396 2.6875C9.53396 2.92922 9.35896 3.125 9.14507 3.125H5.25618C5.0423 3.125 4.8673 2.92922 4.8673 2.6875C4.8673 2.44578 5.0423 2.25 5.25618 2.25Z" fill="#757575"/>
<path opacity="0.4" d="M11.0894 4.875C11.0894 4.39102 10.7418 4 10.3116 4H7.58941V8.375H10.3116C10.7418 8.375 11.0894 7.98398 11.0894 7.5V4.875ZM6.81163 8.375V4H4.08941C3.6592 4 3.31163 4.39102 3.31163 4.875V7.5C3.31163 7.98398 3.6592 8.375 4.08941 8.375H6.81163ZM11.8672 12.75H9.53385V13.625C9.53385 14.109 9.88142 14.5 10.3116 14.5H11.0894C11.5196 14.5 11.8672 14.109 11.8672 13.625V12.75ZM4.86719 12.75H2.53385V13.625C2.53385 14.109 2.88142 14.5 3.31163 14.5H4.08941C4.51962 14.5 4.86719 14.109 4.86719 13.625V12.75Z" fill="#757575"/>
</g>
<defs>
<clipPath id="clip0_623_44304">
<rect width="14" height="14" fill="white" transform="matrix(-1 0 0 1 14.2002 0.5)"/>
</clipPath>
</defs>
</svg>
