<svg width="28" height="24" viewBox="0 0 28 24" fill="none" xmlns="http://www.w3.org/2000/svg">
<g clip-path="url(#clip0_3517_16197)">
<path d="M27.3332 10.5H0.666504V6H27.3332V10.5Z" fill="#999999"/>
<path opacity="0.4" d="M24.3702 1.5C26.0045 1.5 27.3332 2.84297 27.3332 4.5V6H0.666504V4.5C0.666504 2.84297 1.99289 1.5 3.62947 1.5H24.3702ZM27.3332 19.5C27.3332 21.1547 26.0045 22.5 24.3702 22.5H3.62947C1.99289 22.5 0.666504 21.1547 0.666504 19.5V10.5H27.3332V19.5ZM5.85169 16.5C5.44428 16.5 5.11095 16.8375 5.11095 17.25C5.11095 17.6625 5.44428 18 5.85169 18H8.81465C9.22206 18 9.55539 17.6625 9.55539 17.25C9.55539 16.8375 9.22206 16.5 8.81465 16.5H5.85169ZM11.7776 18H17.7035C18.1109 18 18.4443 17.6625 18.4443 17.25C18.4443 16.8375 18.1109 16.5 17.7035 16.5H11.7776C11.3702 16.5 11.0369 16.8375 11.0369 17.25C11.0369 17.6625 11.3702 18 11.7776 18Z" fill="#999999"/>
</g>
<defs>
<clipPath id="clip0_3517_16197">
<rect width="26.6667" height="24" fill="white" transform="translate(0.666504)"/>
</clipPath>
</defs>
</svg>
