<svg width="24" height="21" viewBox="0 0 24 21" fill="none" xmlns="http://www.w3.org/2000/svg">
<path d="M12.1802 13.7563C12.0652 13.8688 12 14.0225 12 14.1838V16.52H14.3897C14.5532 16.52 14.7098 16.4562 14.8248 16.3428L20.8393 10.4178L18.2373 7.87228L12.1802 13.7563ZM22.7526 7.19754L21.5297 6.00129C21.1512 5.62629 20.533 5.62629 20.1497 6.00129L19.1051 7.02317L21.7072 9.56867L22.7518 8.54679C23.1359 8.17254 23.1359 7.56879 22.7526 7.19754ZM10.7733 0.920044V5.72004H15.68L10.7733 0.920044ZM10.7733 17.72C10.1573 17.7093 9.59957 17.3691 9.32126 16.8245C9.21106 16.6042 9.0146 16.5808 8.93333 16.5808C8.85206 16.5808 8.65541 16.6042 8.54999 16.8105L8.25295 17.3872C8.15133 17.5925 7.90216 17.72 7.70666 17.72H7.66449C7.41532 17.7013 7.20449 17.5419 7.12782 17.3075L6.47999 15.4175L6.07365 16.6138C5.84748 17.2738 5.21498 17.72 4.50389 17.72H4.02664C3.68662 17.72 3.41331 17.4538 3.41331 17.12C3.41331 16.7863 3.68662 16.52 4.02664 16.52H4.50198C4.68885 16.52 4.85089 16.4029 4.90831 16.2341L5.6079 14.1855C5.73248 13.8163 6.08132 13.5688 6.47999 13.5688C6.87865 13.5688 7.22749 13.8172 7.35207 14.1875L7.88414 15.7487C8.64123 15.1393 9.95913 15.383 10.4142 16.2782C10.4858 16.415 10.6277 16.505 10.7733 16.5163V13.9325C10.7733 13.6129 10.9037 13.3063 11.1356 13.0809L15.68 8.66379V6.92004H10.7733C10.096 6.92004 9.54667 6.38267 9.54667 5.72004V0.920044H2.79997C1.78375 0.920044 0.959961 1.72592 0.959961 2.72004V18.32C0.959961 19.3138 1.78375 20.12 2.79997 20.12H13.84C14.8562 20.12 15.68 19.3142 15.68 18.32V17.72H10.7733Z" fill="#333333"/>
</svg>
