<svg width="24" height="24" viewBox="0 0 24 24" fill="none" xmlns="http://www.w3.org/2000/svg">
<path d="M8.25 10.002C8.05109 10.002 7.86032 10.081 7.71967 10.2216C7.57902 10.3623 7.5 10.553 7.5 10.752C7.5 10.9509 7.57902 11.1416 7.71967 11.2823C7.86032 11.4229 8.05109 11.502 8.25 11.502C8.44891 11.502 8.63968 11.4229 8.78033 11.2823C8.92098 11.1416 9 10.9509 9 10.752C9 10.553 8.92098 10.3623 8.78033 10.2216C8.63968 10.081 8.44891 10.002 8.25 10.002Z" fill="#0057B7"/>
<path d="M7.5 16.25C7.5 16.0511 7.57902 15.8603 7.71967 15.7197C7.86032 15.579 8.05109 15.5 8.25 15.5C8.44891 15.5 8.63968 15.579 8.78033 15.7197C8.92098 15.8603 9 16.0511 9 16.25C9 16.4489 8.92098 16.6397 8.78033 16.7803C8.63968 16.921 8.44891 17 8.25 17C8.05109 17 7.86032 16.921 7.71967 16.7803C7.57902 16.6397 7.5 16.4489 7.5 16.25Z" fill="#0057B7"/>
<path d="M3 5.75C3 5.02065 3.28973 4.32118 3.80546 3.80546C4.32118 3.28973 5.02065 3 5.75 3H18.25C18.9793 3 19.6788 3.28973 20.1945 3.80546C20.7103 4.32118 21 5.02065 21 5.75V12.022C20.0862 11.4365 19.0397 11.0905 17.957 11.016C18 10.9024 18.0147 10.7801 17.9999 10.6596C17.985 10.5391 17.9412 10.424 17.872 10.3242C17.8028 10.2245 17.7104 10.143 17.6028 10.0869C17.4951 10.0307 17.3754 10.0016 17.254 10.002H12.25C12.0511 10.002 11.8603 10.081 11.7197 10.2217C11.579 10.3623 11.5 10.5531 11.5 10.752C11.5 10.9509 11.579 11.1417 11.7197 11.2823C11.8603 11.423 12.0511 11.502 12.25 11.502H14.992C14.1173 11.8679 13.3331 12.4206 12.6946 13.1215C12.056 13.8224 11.5785 14.6544 11.2954 15.5594C11.0123 16.4643 10.9306 17.4202 11.056 18.36C11.1813 19.2998 11.5107 20.2009 12.021 21H5.75C5.02065 21 4.32118 20.7103 3.80546 20.1945C3.28973 19.6788 3 18.9793 3 18.25V5.75ZM6 10.752C6 11.0475 6.0582 11.3401 6.17127 11.613C6.28434 11.886 6.45008 12.1341 6.65901 12.343C6.86794 12.5519 7.11598 12.7177 7.38896 12.8307C7.66194 12.9438 7.95453 13.002 8.25 13.002C8.54547 13.002 8.83806 12.9438 9.11104 12.8307C9.38402 12.7177 9.63206 12.5519 9.84099 12.343C10.0499 12.1341 10.2157 11.886 10.3287 11.613C10.4418 11.3401 10.5 11.0475 10.5 10.752C10.5 10.1553 10.2629 9.58297 9.84099 9.16101C9.41903 8.73905 8.84674 8.502 8.25 8.502C7.65326 8.502 7.08097 8.73905 6.65901 9.16101C6.23705 9.58297 6 10.1553 6 10.752ZM8.25 14C7.65326 14 7.08097 14.2371 6.65901 14.659C6.23705 15.081 6 15.6533 6 16.25C6 16.8467 6.23705 17.419 6.65901 17.841C7.08097 18.2629 7.65326 18.5 8.25 18.5C8.84674 18.5 9.41903 18.2629 9.84099 17.841C10.2629 17.419 10.5 16.8467 10.5 16.25C10.5 15.6533 10.2629 15.081 9.84099 14.659C9.41903 14.2371 8.84674 14 8.25 14ZM6.755 7.5H17.255C17.4539 7.5 17.6447 7.42098 17.7853 7.28033C17.926 7.13968 18.005 6.94891 18.005 6.75C18.005 6.55109 17.926 6.36032 17.7853 6.21967C17.6447 6.07902 17.4539 6 17.255 6H6.755C6.55609 6 6.36532 6.07902 6.22467 6.21967C6.08402 6.36032 6.005 6.55109 6.005 6.75C6.005 6.94891 6.08402 7.13968 6.22467 7.28033C6.36532 7.42098 6.55609 7.5 6.755 7.5Z" fill="#0057B7"/>
<path d="M23 17.5C23 16.0413 22.4205 14.6424 21.3891 13.6109C20.3576 12.5795 18.9587 12 17.5 12C16.0413 12 14.6424 12.5795 13.6109 13.6109C12.5795 14.6424 12 16.0413 12 17.5C12 18.9587 12.5795 20.3576 13.6109 21.3891C14.6424 22.4205 16.0413 23 17.5 23C18.9587 23 20.3576 22.4205 21.3891 21.3891C22.4205 20.3576 23 18.9587 23 17.5ZM18.001 20.503C18.001 20.6356 17.9483 20.7628 17.8546 20.8566C17.7608 20.9503 17.6336 21.003 17.501 21.003C17.3684 21.003 17.2412 20.9503 17.1474 20.8566C17.0537 20.7628 17.001 20.6356 17.001 20.503V18H14.496C14.3634 18 14.2362 17.9473 14.1424 17.8536C14.0487 17.7598 13.996 17.6326 13.996 17.5C13.996 17.3674 14.0487 17.2402 14.1424 17.1464C14.2362 17.0527 14.3634 17 14.496 17H17V14.5C17 14.3674 17.0527 14.2402 17.1464 14.1464C17.2402 14.0527 17.3674 14 17.5 14C17.6326 14 17.7598 14.0527 17.8536 14.1464C17.9473 14.2402 18 14.3674 18 14.5V17H20.503C20.6356 17 20.7628 17.0527 20.8566 17.1464C20.9503 17.2402 21.003 17.3674 21.003 17.5C21.003 17.6326 20.9503 17.7598 20.8566 17.8536C20.7628 17.9473 20.6356 18 20.503 18H18.001V20.503Z" fill="#0057B7"/>
</svg>
