<svg width="24" height="20" viewBox="0 0 24 20" fill="none" xmlns="http://www.w3.org/2000/svg">
<g clip-path="url(#clip0_3517_16219)">
<path d="M21.5999 5.33341H16.7999V10.0001C16.7999 11.9276 15.1825 13.4997 13.1999 13.4997L9.5999 13.4998V14.6657C9.5999 15.9509 10.678 16.9662 11.9662 16.9662L16.6837 16.966L19.7868 19.2307C20.0587 19.4355 20.3999 19.2678 20.3999 18.9761V16.9986H21.5999C22.9218 16.9986 23.9999 15.9504 23.9999 14.6981V7.63394C23.9999 6.37977 22.9237 5.33341 21.5999 5.33341ZM8.00615 5.80008L7.76615 5.74175C6.91115 5.48654 6.9299 5.33706 6.9599 5.20581C7.01147 4.921 7.58203 4.85147 8.09503 4.92782C8.3048 4.95858 8.5349 5.03034 8.75465 5.10442C9.14428 5.23545 9.57328 5.03376 9.70903 4.65452C9.84497 4.2739 9.63812 3.85827 9.24665 3.72593C8.97365 3.63519 8.75615 3.57722 8.5499 3.53347V3.14591C8.5499 2.74378 8.21417 2.41675 7.7999 2.41675C7.38564 2.41675 7.0499 2.74374 7.0499 3.14591V3.51021C6.2099 3.68404 5.6174 4.19409 5.4824 4.95789C5.2049 6.51831 6.7274 6.95216 7.37615 7.1381L7.59365 7.20008C8.6924 7.50633 8.67365 7.60841 8.6399 7.79435C8.5874 8.07873 8.0174 8.15164 7.50365 8.07144C7.2449 8.03498 6.91115 7.91831 6.61865 7.81623L6.41615 7.75789C6.0599 7.62664 5.6324 7.82352 5.49365 8.20269C5.3549 8.58185 5.56115 8.99748 5.95115 9.13237L6.11113 9.18706C6.40115 9.28914 6.72365 9.39123 7.0499 9.4605V9.85425C7.0499 10.2564 7.38564 10.5834 7.7999 10.5834C8.21417 10.5834 8.5499 10.2564 8.5499 9.85425V9.47873C9.3884 9.30398 9.98278 8.80315 10.1185 8.04117C10.3987 6.46362 8.8424 6.02977 8.00615 5.80008Z" fill="#999999"/>
<path opacity="0.4" d="M13.2 0.666748H2.4C1.07812 0.666748 0 1.71493 0 2.96727V9.96727C0 11.2834 1.07812 12.3334 2.4 12.3334L3.6 12.3338V14.3117C3.6 14.6033 3.94219 14.7718 4.18125 14.5988L7.28437 12.334L13.2 12.3298C14.5219 12.3343 15.6 11.2841 15.6 9.99935V2.96727C15.6 1.71493 14.5237 0.666748 13.2 0.666748ZM10.1175 8.04227C9.9825 8.80425 9.39 9.27456 8.55 9.47873V9.85425C8.55 10.2564 8.21426 10.5834 7.8 10.5834C7.38574 10.5834 7.05 10.2564 7.05 9.85425V9.4605C6.72442 9.39042 6.40125 9.28831 6.11025 9.18662L5.95027 9.13194C5.56125 8.99748 5.355 8.58185 5.49375 8.20269C5.63205 7.82315 6.06037 7.62628 6.45075 7.75716L6.61834 7.81641C6.91249 7.91893 7.24534 8.03516 7.50559 8.07275C8.0175 8.15164 8.5875 8.07873 8.64 7.79435C8.67375 7.60841 8.6925 7.50633 7.59375 7.20008L7.37625 7.1381C6.72637 6.95238 5.20425 6.51831 5.48175 4.95644C5.6175 4.19409 6.21 3.68404 7.05 3.51013V3.14591C7.05 2.74378 7.38574 2.41675 7.8 2.41675C8.21426 2.41675 8.55 2.74374 8.55 3.14591V3.53347C8.75449 3.57703 8.97525 3.63515 9.246 3.72571C9.6375 3.85795 9.84375 4.27394 9.70875 4.65529C9.57375 5.03446 9.1425 5.23498 8.7525 5.10373C8.53279 5.02968 8.3025 4.95789 8.09287 4.92712C7.5825 4.85216 6.97875 4.92144 6.96 5.20581C6.93 5.33706 6.91125 5.48654 7.76625 5.74175L8.00625 5.80008C8.8425 6.02977 10.3987 6.46362 10.1175 8.04227Z" fill="#999999"/>
</g>
<defs>
<clipPath id="clip0_3517_16219">
<rect width="24" height="18.6667" fill="white" transform="translate(0 0.666748)"/>
</clipPath>
</defs>
</svg>
