<svg width="20" height="18" viewBox="0 0 20 18" fill="none" xmlns="http://www.w3.org/2000/svg">
<path d="M2.20002 0.600006C1.72263 0.600006 1.2648 0.789648 0.927232 1.12721C0.589667 1.46478 0.400024 1.92262 0.400024 2.40001V7.20001C0.400024 7.6774 0.589667 8.13523 0.927232 8.4728C1.2648 8.81036 1.72263 9.00001 2.20002 9.00001H17.8C18.2774 9.00001 18.7352 8.81036 19.0728 8.4728C19.4104 8.13523 19.6 7.6774 19.6 7.20001V2.40001C19.6 1.92262 19.4104 1.46478 19.0728 1.12721C18.7352 0.789648 18.2774 0.600006 17.8 0.600006H2.20002ZM2.20002 11.4C1.72263 11.4 1.2648 11.5896 0.927232 11.9272C0.589667 12.2648 0.400024 12.7226 0.400024 13.2V15.6C0.400024 16.0774 0.589667 16.5352 0.927232 16.8728C1.2648 17.2104 1.72263 17.4 2.20002 17.4H7.00002C7.47741 17.4 7.93525 17.2104 8.27282 16.8728C8.61038 16.5352 8.80002 16.0774 8.80002 15.6V13.2C8.80002 12.7226 8.61038 12.2648 8.27282 11.9272C7.93525 11.5896 7.47741 11.4 7.00002 11.4H2.20002ZM13 11.4C12.5226 11.4 12.0648 11.5896 11.7272 11.9272C11.3897 12.2648 11.2 12.7226 11.2 13.2V15.6C11.2 16.0774 11.3897 16.5352 11.7272 16.8728C12.0648 17.2104 12.5226 17.4 13 17.4H17.8C18.2774 17.4 18.7352 17.2104 19.0728 16.8728C19.4104 16.5352 19.6 16.0774 19.6 15.6V13.2C19.6 12.7226 19.4104 12.2648 19.0728 11.9272C18.7352 11.5896 18.2774 11.4 17.8 11.4H13Z" fill="#999999"/>
</svg>
