<svg width="16" height="15" viewBox="0 0 16 15" fill="none" xmlns="http://www.w3.org/2000/svg">
<g clip-path="url(#clip0_1586_13243)">
<path d="M6.50211 8.55L7.16711 6.3707C7.43961 5.47656 8.20461 4.875 9.06461 4.875H12.5346C13.3946 4.875 14.1596 5.47656 14.4321 6.3707L15.0971 8.55C15.6296 8.83164 15.9996 9.43047 15.9996 10.125V13.625C15.9996 14.109 15.6421 14.5 15.1996 14.5H14.7996C14.3571 14.5 13.9996 14.109 13.9996 13.625V12.75H7.59961V13.625C7.59961 14.109 7.24211 14.5 6.79961 14.5H6.39961C5.95711 14.5 5.59961 14.109 5.59961 13.625V10.125C5.59961 9.43047 5.96961 8.83164 6.50211 8.55ZM8.24211 8.375H13.3571L12.9146 6.92305C12.8596 6.74531 12.7071 6.625 12.5346 6.625H9.06461C8.89211 6.625 8.73961 6.74531 8.68461 6.92305L8.24211 8.375ZM7.59961 9.90625C7.26711 9.90625 6.99961 10.1988 6.99961 10.5625C6.99961 10.9262 7.26711 11.2188 7.59961 11.2188C7.93211 11.2188 8.19961 10.9262 8.19961 10.5625C8.19961 10.1988 7.93211 9.90625 7.59961 9.90625ZM13.9996 11.2188C14.3321 11.2188 14.5996 10.9262 14.5996 10.5625C14.5996 10.1988 14.3321 9.90625 13.9996 9.90625C13.6671 9.90625 13.3996 10.1988 13.3996 10.5625C13.3996 10.9262 13.6671 11.2188 13.9996 11.2188Z" fill="#757575"/>
<path opacity="0.4" d="M1.2 11.875H0.8C0.35825 11.875 0 11.484 0 11V2.53602C0 2.09277 0.2291 1.68727 0.59175 1.48875C1.781 0.838516 3.0925 0.5 4.4225 0.5H5.1775C6.5075 0.5 7.82 0.838516 9.0075 1.48875C9.37 1.68727 9.6 2.09277 9.6 2.53602V4H9.065C8.6925 4 8.33 4.05742 7.9775 4.22969V3.78125C7.9775 3.41758 7.7325 3.125 7.3775 3.125H5.1775V6.625H6.2475L5.84 7.96211C5.2125 8.43516 4.7775 9.22812 4.7775 10.125V11.875H3.1775V12.75C3.1775 13.234 2.8425 13.625 2.3775 13.625H1.9775C1.55825 13.625 1.1775 13.234 1.1775 12.75L1.2 11.875ZM1.6 5.96875C1.6 6.33242 1.86875 6.625 2.2 6.625H4.4V3.125H2.2C1.86875 3.125 1.6 3.41758 1.6 3.78125V5.96875ZM2.4 8.59375C2.06875 8.59375 1.8 8.88633 1.8 9.25C1.8 9.61367 2.06875 9.90625 2.4 9.90625C2.7325 9.90625 3 9.61367 3 9.25C3 8.88633 2.7325 8.59375 2.4 8.59375Z" fill="#757575"/>
</g>
<defs>
<clipPath id="clip0_1586_13243">
<rect width="16" height="14" fill="white" transform="translate(0 0.5)"/>
</clipPath>
</defs>
</svg>
