<svg width="22" height="22" viewBox="0 0 22 22" fill="none" xmlns="http://www.w3.org/2000/svg">
<path d="M11 0C4.92422 0 0 4.92422 0 11C0 17.0758 4.92422 22 11 22C17.0758 22 22 17.0758 22 11C22 4.92422 17.0758 0 11 0ZM9.96875 6.53125C9.96875 5.96406 10.4328 5.5 11 5.5C11.5672 5.5 12.0312 5.96191 12.0312 6.53125V12.0312C12.0312 12.6006 11.5693 13.0625 11 13.0625C10.4307 13.0625 9.96875 12.6027 9.96875 12.0312V6.53125ZM11 17.1875C10.2541 17.1875 9.64906 16.5825 9.64906 15.8366C9.64906 15.0906 10.2536 14.4856 11 14.4856C11.7464 14.4856 12.3509 15.0906 12.3509 15.8366C12.3492 16.5816 11.7477 17.1875 11 17.1875Z" fill="#E31617"/>
</svg>
