<svg width="40" height="40" viewBox="0 0 40 40" fill="none" xmlns="http://www.w3.org/2000/svg">
<rect width="40" height="40" rx="20" fill="white"/>
<path d="M13.8752 22.5712C14.4359 22.0219 15.1896 21.7143 15.9746 21.7143H24.0254C24.8104 21.7143 25.564 22.0219 26.1248 22.5712L29.5993 25.9749C30.1754 26.5391 30.5 27.3116 30.5 28.1179V31C30.5 31.5523 30.0523 32 29.5 32H10.5C9.94772 32 9.5 31.5523 9.5 31V28.1179C9.5 27.3116 9.82462 26.5391 10.4007 25.9749L13.8752 22.5712Z" fill="#C7C7C7"/>
<path d="M25.25 13.1429C25.25 15.9832 22.8995 18.2857 20 18.2857C17.1005 18.2857 14.75 15.9832 14.75 13.1429C14.75 10.3025 17.1005 8 20 8C22.8995 8 25.25 10.3025 25.25 13.1429Z" fill="#C7C7C7"/>
</svg>
