<svg width="18" height="20" viewBox="0 0 18 20" fill="none" xmlns="http://www.w3.org/2000/svg">
<path d="M16 1.99991H11.82C11.6098 1.42076 11.2264 0.920374 10.7218 0.566756C10.2173 0.213137 9.61612 0.0234375 9 0.0234375C8.38388 0.0234375 7.7827 0.213137 7.27816 0.566756C6.77363 0.920374 6.3902 1.42076 6.18 1.99991H2C1.46957 1.99991 0.960859 2.21063 0.585786 2.5857C0.210714 2.96077 0 3.46948 0 3.99991V17.9999C0 18.5303 0.210714 19.0391 0.585786 19.4141C0.960859 19.7892 1.46957 19.9999 2 19.9999H16C16.5304 19.9999 17.0391 19.7892 17.4142 19.4141C17.7893 19.0391 18 18.5303 18 17.9999V3.99991C18 3.46948 17.7893 2.96077 17.4142 2.5857C17.0391 2.21063 16.5304 1.99991 16 1.99991ZM9 1.99991C9.19778 1.99991 9.39112 2.05856 9.55557 2.16844C9.72002 2.27833 9.84819 2.4345 9.92388 2.61723C9.99957 2.79996 10.0194 3.00102 9.98079 3.195C9.9422 3.38899 9.84696 3.56717 9.70711 3.70702C9.56725 3.84687 9.38907 3.94211 9.19509 3.9807C9.00111 4.01928 8.80004 3.99948 8.61732 3.92379C8.43459 3.84811 8.27841 3.71993 8.16853 3.55548C8.05865 3.39104 8 3.1977 8 2.99991C8 2.7347 8.10536 2.48034 8.29289 2.29281C8.48043 2.10527 8.73478 1.99991 9 1.99991ZM16 16.9999H2V12.9999H16V16.9999ZM16 10.9999H2V6.99991H16V10.9999Z" fill="#0057B7"/>
</svg>
