<svg width="22" height="19" viewBox="0 0 22 19" fill="none" xmlns="http://www.w3.org/2000/svg">
<path fill-rule="evenodd" clip-rule="evenodd" d="M2 6.99981C2.00013 5.97933 2.26054 4.97575 2.7566 4.08396C3.25266 3.19217 3.96798 2.44163 4.83492 1.90332C5.70186 1.365 6.69178 1.0567 7.71107 1.00756C8.73036 0.958418 9.74535 1.17006 10.6601 1.62248C11.5748 2.0749 12.359 2.75315 12.9385 3.59308C13.5181 4.43302 13.8738 5.4069 13.9721 6.42263C14.0704 7.43836 13.908 8.46238 13.5003 9.39786C13.0926 10.3333 12.453 11.1494 11.642 11.7688C14.186 12.9068 16 15.2078 16 17.9998C16 18.265 15.8946 18.5194 15.7071 18.7069C15.5196 18.8945 15.2652 18.9998 15 18.9998H1C0.734784 18.9998 0.48043 18.8945 0.292893 18.7069C0.105357 18.5194 0 18.265 0 17.9998C0 15.2078 1.814 12.9068 4.358 11.7688C3.62415 11.2093 3.02952 10.4877 2.6205 9.66046C2.21147 8.83321 1.99912 7.92265 2 6.99981ZM21 18.9998H17C17.2652 18.9998 17.5196 18.8945 17.7071 18.7069C17.8946 18.5194 18 18.265 18 17.9998C18 15.2078 16.186 12.9068 13.642 11.7688C14.5014 11.1123 15.1675 10.2357 15.5698 9.23184C15.9721 8.22795 16.0956 7.13401 15.9274 6.06567C15.7592 4.99733 15.3054 3.9943 14.6141 3.1626C13.9228 2.33091 13.0196 1.70146 12 1.34081C13.3485 0.862116 14.8237 0.881122 16.1594 1.3944C17.4951 1.90767 18.6034 2.88142 19.2843 4.13996C19.9652 5.3985 20.174 6.85896 19.8728 8.25785C19.5717 9.65674 18.7805 10.9019 17.642 11.7688C20.186 12.9068 22 15.2078 22 17.9998C22 18.265 21.8946 18.5194 21.7071 18.7069C21.5196 18.8945 21.2652 18.9998 21 18.9998Z" fill="#999999"/>
</svg>
