<svg width="17" height="17" viewBox="0 0 17 17" fill="none" xmlns="http://www.w3.org/2000/svg">
<g clip-path="url(#clip0_814_44871)">
<path d="M8.39789 10.1696C9.83314 10.1696 10.9754 8.84455 10.9754 7.20982C10.9754 5.57509 9.81189 4.25 8.39789 4.25C6.96264 4.25 5.82039 5.57509 5.82039 7.20982C5.79789 8.84342 6.96289 10.1696 8.39789 10.1696ZM9.64789 11.0804H7.15289C5.19039 11.0804 3.60039 12.7794 3.60039 14.8741C3.60039 15.2953 3.91789 15.6339 4.31039 15.6339H12.4904C12.8829 15.6339 13.2004 15.2953 13.2004 14.8741C13.2004 12.7794 11.6104 11.0804 9.64789 11.0804ZM13.2004 5.61607C14.3049 5.61607 15.2004 4.59664 15.2004 3.33929C15.2004 2.08193 14.3054 1.0625 13.2004 1.0625C12.0959 1.0625 11.2004 2.08193 11.2004 3.33929C11.2004 4.59664 12.0954 5.61607 13.2004 5.61607ZM4.99789 7.20982C4.99789 7.05474 5.02245 6.90729 5.03812 6.75703C4.76539 6.58655 4.46539 6.52679 4.14789 6.52679H2.60239C1.38639 6.52679 0.400391 7.71641 0.400391 9.18209C0.400391 9.47522 0.597566 9.71429 0.840891 9.71429H5.82839C5.31789 9.03694 4.99789 8.16892 4.99789 7.20982ZM3.60039 5.61607C4.70489 5.61607 5.60039 4.59664 5.60039 3.33929C5.60039 2.08193 4.70539 1.0625 3.60039 1.0625C2.49589 1.0625 1.60039 2.08193 1.60039 3.33929C1.60039 4.59664 2.49589 5.61607 3.60039 5.61607ZM14.1979 6.52679H12.6519C12.3319 6.52679 12.0299 6.61322 11.7554 6.76129C11.7704 6.91099 11.7954 7.05614 11.7954 7.20982C11.7954 8.1692 11.4759 9.03723 10.9664 9.71429H15.9589C16.2029 9.71429 16.4004 9.47522 16.4004 9.18209C16.4004 7.71641 15.4154 6.52679 14.1979 6.52679Z" fill="#757575"/>
</g>
<defs>
<clipPath id="clip0_814_44871">
<rect width="16" height="17" fill="white" transform="translate(0.400391)"/>
</clipPath>
</defs>
</svg>
