<svg width="22" height="22" viewBox="0 0 22 22" fill="none" xmlns="http://www.w3.org/2000/svg">
<g clip-path="url(#clip0_537_45024)">
<path d="M11 0C12.5813 0 13.9563 0.889453 14.648 2.1957C16.0617 1.76172 17.6602 2.10547 18.7773 3.22266C19.8945 4.33984 20.2383 5.94258 19.8043 7.35195C21.1105 8.04375 22 9.41875 22 11C22 12.5813 21.1105 13.9563 19.8043 14.648C20.2383 16.0617 19.8945 17.6602 18.7773 18.7773C17.6602 19.8945 16.0574 20.2383 14.648 19.8043C13.9563 21.1105 12.5813 22 11 22C9.41875 22 8.04375 21.1105 7.35195 19.8043C5.93828 20.2383 4.33984 19.8945 3.22266 18.7773C2.10547 17.6602 1.76172 16.0574 2.1957 14.648C0.889453 13.9563 0 12.5813 0 11C0 9.41875 0.889453 8.04375 2.1957 7.35195C1.76172 5.93828 2.10547 4.33984 3.22266 3.22266C4.33984 2.10547 5.94258 1.76172 7.35195 2.1957C8.04375 0.889453 9.41875 0 11 0ZM15.168 9.66797C15.5719 9.26406 15.5719 8.61094 15.168 8.21133C14.7641 7.81172 14.1109 7.80742 13.7113 8.21133L9.6293 12.2934L7.95352 10.6176C7.54961 10.2137 6.89648 10.2137 6.49687 10.6176C6.09727 11.0215 6.09297 11.6746 6.49687 12.0742L8.90312 14.4805C9.30703 14.8844 9.96016 14.8844 10.3598 14.4805L15.168 9.66797Z" fill="#009EDA"/>
</g>
<defs>
<clipPath id="clip0_537_45024">
<rect width="22" height="22" fill="white"/>
</clipPath>
</defs>
</svg>
