<svg width="24" height="22" viewBox="0 0 24 22" fill="none" xmlns="http://www.w3.org/2000/svg">
<path d="M11.9963 13.3571C14.1491 13.3571 15.8625 11.4864 15.8625 9.17857C15.8625 6.87071 14.1172 5 11.9963 5C9.84337 5 8.13 6.87071 8.13 9.17857C8.09625 11.4848 9.84375 13.3571 11.9963 13.3571ZM13.8713 14.6429H10.1288C7.185 14.6429 4.8 17.0415 4.8 19.9987C4.8 20.5933 5.27625 21.0714 5.865 21.0714H18.135C18.7237 21.0714 19.2 20.5933 19.2 19.9987C19.2 17.0415 16.815 14.6429 13.8713 14.6429ZM19.2 6.92857C20.8568 6.92857 22.2 5.48938 22.2 3.71429C22.2 1.9392 20.8575 0.5 19.2 0.5C17.5432 0.5 16.2 1.9392 16.2 3.71429C16.2 5.48938 17.5425 6.92857 19.2 6.92857ZM6.89625 9.17857C6.89625 8.95964 6.93309 8.75147 6.95659 8.53933C6.5475 8.29866 6.0975 8.21429 5.62125 8.21429H3.303C1.479 8.21429 0 9.89375 0 11.9629C0 12.3768 0.295763 12.7143 0.66075 12.7143H8.142C7.37625 11.758 6.89625 10.5326 6.89625 9.17857ZM4.8 6.92857C6.45675 6.92857 7.8 5.48938 7.8 3.71429C7.8 1.9392 6.4575 0.5 4.8 0.5C3.14325 0.5 1.8 1.9392 1.8 3.71429C1.8 5.48938 3.14325 6.92857 4.8 6.92857ZM20.6963 8.21429H18.3773C17.8972 8.21429 17.4443 8.33631 17.0325 8.54536C17.055 8.7567 17.0925 8.96161 17.0925 9.17857C17.0925 10.533 16.6132 11.7584 15.849 12.7143H23.3377C23.7038 12.7143 24 12.3768 24 11.9629C24 9.89375 22.5225 8.21429 20.6963 8.21429Z" fill="#333333"/>
</svg>
