<svg width="22" height="22" viewBox="0 0 22 22" fill="none" xmlns="http://www.w3.org/2000/svg">
<path d="M0.5 11C0.5 5.20039 5.20039 0.5 11 0.5C16.7996 0.5 21.5 5.20039 21.5 11C21.5 16.7996 16.7996 21.5 11 21.5C5.20039 21.5 0.5 16.7996 0.5 11ZM15.7496 9.18711C16.1967 8.74004 16.1967 8.00996 15.7496 7.56289C15.3025 7.11582 14.5725 7.11582 14.1254 7.56289L9.6875 12.0008L7.87461 10.1879C7.42754 9.74082 6.69746 9.74082 6.25039 10.1879C5.80332 10.635 5.80332 11.365 6.25039 11.8121L8.87539 14.4371C9.32246 14.8842 10.0525 14.8842 10.4996 14.4371L15.7496 9.18711Z" fill="#159A00"/>
</svg>
