<svg width="22" height="22" viewBox="0 0 22 22" fill="none" xmlns="http://www.w3.org/2000/svg">
<path d="M11 0C4.92422 0 0 4.92422 0 11C0 17.0758 4.92422 22 11 22C17.0758 22 22 17.0758 22 11C22 4.92422 17.0758 0 11 0ZM11 5.5C11.7593 5.5 12.375 6.11574 12.375 6.875C12.375 7.63426 11.7593 8.25 11 8.25C10.2407 8.25 9.625 7.63555 9.625 6.875C9.625 6.11445 10.2395 5.5 11 5.5ZM12.7188 16.5H9.28125C8.71406 16.5 8.25 16.0402 8.25 15.4688C8.25 14.8973 8.71191 14.4375 9.28125 14.4375H9.96875V11.6875H9.625C9.05566 11.6875 8.59375 11.2256 8.59375 10.6562C8.59375 10.0869 9.05781 9.625 9.625 9.625H11C11.5693 9.625 12.0312 10.0869 12.0312 10.6562V14.4375H12.7188C13.2881 14.4375 13.75 14.8994 13.75 15.4688C13.75 16.0381 13.2902 16.5 12.7188 16.5Z" fill="#0142AF"/>
</svg>
