<svg width="83" height="36" viewBox="0 0 83 36" fill="none" xmlns="http://www.w3.org/2000/svg">
<path d="M0.17192 10.8445V15.3202H7.68322L0 24.8605V28.9443H13.5605V24.4686H6.4358L13.5605 15.32V10.8445H0.17192Z" fill="white"/>
<path d="M20.6331 10.8484H15.1836V28.9444H20.6331V10.8484Z" fill="white"/>
<path d="M40.8169 26.3669C40.8169 28.9125 40.6317 30.5396 39.7974 31.9811C38.4687 34.1282 35.3501 36 31.1188 36C25.1575 36 22.9039 32.4417 22.5641 30.0179H28.4933C29.2343 31.7057 31.1494 31.7057 31.4892 31.7057C32.1383 31.7057 35.658 31.6448 35.658 27.0738V26.5523H35.5967C35.0716 27.5345 33.5896 28.9761 30.9029 28.9761C26.2397 28.9761 22.2549 25.4787 22.2549 20.0181C22.2549 14.1896 26.4556 10.8457 30.9029 10.8457C32.818 10.8457 34.7011 11.5208 35.6287 12.9929H35.69V10.8457H40.8169V26.3669ZM31.4906 24.2198C33.9614 24.2198 35.6913 22.4406 35.6913 19.9864C35.6913 17.2569 33.8068 15.5994 31.5226 15.5994C29.2383 15.5994 27.3845 17.3481 27.3845 19.8328C27.3845 22.5639 29.3609 24.2198 31.4919 24.2198H31.4906Z" fill="white"/>
<path d="M17.9078 0C18.7872 0 19.6467 0.259 20.3779 0.744248C21.109 1.2295 21.6788 1.9192 22.0153 2.72614C22.3518 3.53307 22.4399 4.421 22.2683 5.27765C22.0968 6.13429 21.6734 6.92116 21.0516 7.53876C20.4298 8.15637 19.6376 8.57696 18.7752 8.74736C17.9128 8.91775 17.0188 8.8303 16.2065 8.49605C15.3941 8.16181 14.6997 7.59579 14.2112 6.86956C13.7227 6.14334 13.4619 5.28953 13.4619 4.41611C13.4619 3.24488 13.9303 2.12163 14.7641 1.29345C15.5979 0.465267 16.7287 0 17.9078 0Z" fill="white"/>
<path d="M66.5811 12.1733C67.0749 12.1733 67.5575 12.3187 67.9681 12.5912C68.3786 12.8636 68.6986 13.2509 68.8875 13.704C69.0765 14.157 69.1259 14.6556 69.0296 15.1366C68.9333 15.6176 68.6955 16.0594 68.3464 16.4062C67.9973 16.753 67.5525 16.9891 67.0682 17.0848C66.584 17.1805 66.0821 17.1314 65.6259 16.9437C65.1698 16.756 64.7799 16.4382 64.5056 16.0304C64.2313 15.6226 64.0849 15.1432 64.085 14.6528C64.085 13.9952 64.348 13.3645 64.8161 12.8995C65.2842 12.4346 65.9191 12.1733 66.5811 12.1733Z" fill="#F47820"/>
<path d="M68.1782 18.7434H64.9863V30.2669H68.1782V18.7434Z" fill="#F47820"/>
<path d="M66.5811 12.1733C67.0749 12.1733 67.5575 12.3187 67.9681 12.5912C68.3786 12.8636 68.6986 13.2509 68.8875 13.704C69.0765 14.157 69.1259 14.6556 69.0296 15.1366C68.9333 15.6176 68.6955 16.0594 68.3464 16.4062C67.9973 16.753 67.5525 16.9891 67.0682 17.0848C66.584 17.1805 66.0821 17.1314 65.6259 16.9437C65.1698 16.756 64.7799 16.4382 64.5056 16.0304C64.2313 15.6226 64.0849 15.1432 64.085 14.6528C64.085 13.9952 64.348 13.3645 64.8161 12.8995C65.2842 12.4346 65.9191 12.1733 66.5811 12.1733Z" fill="#F47820"/>
<path d="M45.1182 30.2668V1.32251H48.3726V15.0143H48.4353C49.8426 13.0564 52.0336 12.1549 54.3805 12.1549C58.9797 12.1549 63.3603 15.9158 63.3603 21.2307C63.3603 26.2028 59.5115 30.2747 54.4432 30.2747C52.8479 30.2747 50.1878 29.7148 48.4046 27.3532H48.342V30.2668H45.1182ZM54.1926 27.3214C57.3218 27.3214 60.1058 24.6487 60.1058 21.2294C60.1058 17.9967 57.603 15.107 54.1926 15.107C50.7822 15.107 48.2794 18.1212 48.2794 21.1672C48.2794 25.0525 51.2833 27.3214 54.1926 27.3214Z" fill="#F47820"/>
<path d="M82.9458 12.1814V15.4789L74.0606 27.1665H83.0005V30.2681H69.8213V27.6245L79.1996 15.2843H70.7222V12.1827H82.9458V12.1814Z" fill="#F47820"/>
</svg>
