<svg width="138" height="61" viewBox="0 0 138 61" fill="none" xmlns="http://www.w3.org/2000/svg">
<path d="M22.5249 40.9192V48.4039H0V41.5745L12.7623 25.6199H0.285574V18.1353H22.5249V25.6199L10.6902 40.9192H22.5249Z" fill="#0142AF"/>
<path d="M34.2732 48.4036H25.2212V18.1416H34.2732V48.4036Z" fill="#0142AF"/>
<path d="M67.8004 44.0934C67.8004 48.3505 67.4927 51.0712 66.1069 53.482C63.8998 57.0727 58.7196 60.2029 51.6909 60.2029C41.7888 60.2029 38.0454 54.2523 37.4809 50.199H47.3299C48.5607 53.0215 51.7419 53.0215 52.3064 53.0215C53.3845 53.0215 59.231 52.9197 59.231 45.2756V44.4034H59.1292C58.2569 46.046 55.7952 48.4567 51.3323 48.4567C43.5864 48.4567 36.9673 42.608 36.9673 33.4763C36.9673 23.7291 43.945 18.1372 51.3323 18.1372C54.5135 18.1372 57.6415 19.2662 59.1823 21.7279H59.2841V18.1372H67.8004V44.0957V44.0934ZM52.3086 40.5027C56.4129 40.5027 59.2863 37.5275 59.2863 33.4232C59.2863 28.8584 56.1561 26.0868 52.3617 26.0868C48.5673 26.0868 45.488 29.0112 45.488 33.1664C45.488 37.7333 48.771 40.5027 52.3108 40.5027H52.3086Z" fill="#0142AF"/>
<path d="M29.7464 14.7701C33.8251 14.7701 37.1315 11.4637 37.1315 7.38508C37.1315 3.30641 33.8251 0 29.7464 0C25.6677 0 22.3613 3.30641 22.3613 7.38508C22.3613 11.4637 25.6677 14.7701 29.7464 14.7701Z" fill="#0142AF"/>
<path d="M110.453 26.4387C112.743 26.4387 114.6 24.5823 114.6 22.2923C114.6 20.0024 112.743 18.146 110.453 18.146C108.164 18.146 106.307 20.0024 106.307 22.2923C106.307 24.5823 108.164 26.4387 110.453 26.4387Z" fill="#F47820"/>
<path d="M113.106 48.4035H107.804V29.1328H113.106V48.4035Z" fill="#F47820"/>
<path d="M110.453 26.4387C112.743 26.4387 114.6 24.5823 114.6 22.2923C114.6 20.0024 112.743 18.146 110.453 18.146C108.164 18.146 106.307 20.0024 106.307 22.2923C106.307 24.5823 108.164 26.4387 110.453 26.4387Z" fill="#F47820"/>
<path d="M74.8008 48.4037V0H80.2068V22.8968H80.3108C82.6485 19.6227 86.2879 18.1151 90.1864 18.1151C97.826 18.1151 105.103 24.4044 105.103 33.2926C105.103 41.6075 98.7093 48.417 90.2904 48.417C87.6405 48.417 83.2219 47.4805 80.2599 43.5312H80.1558V48.4037H74.803H74.8008ZM89.8742 43.4781C95.0721 43.4781 99.6966 39.0085 99.6966 33.2904C99.6966 27.8844 95.5392 23.0518 89.8742 23.0518C84.2092 23.0518 80.0518 28.0925 80.0518 33.1863C80.0518 39.6837 85.0416 43.4781 89.8742 43.4781Z" fill="#F47820"/>
<path d="M137.636 18.1592V23.6736L122.877 43.2188H137.727V48.4057H115.835V43.9848L131.413 23.3482H117.331V18.1614H137.636V18.1592Z" fill="#F47820"/>
</svg>
