<svg width="52" height="52" viewBox="0 0 52 52" fill="none" xmlns="http://www.w3.org/2000/svg">
<path d="M40.3448 1H12.1788C6.00452 1 0.999268 6.00525 0.999268 12.1795V40.3455C0.999268 46.5198 6.00452 51.5251 12.1788 51.5251H40.3448C46.5191 51.5251 51.5243 46.5198 51.5243 40.3455V12.1795C51.5243 6.00525 46.5191 1 40.3448 1Z" fill="#0142AF"/>
<path d="M21.5102 23.279V26.4392H11.9998V23.5553L17.3885 16.8184H12.1202V13.6582H21.5102V16.8184L16.5132 23.279H21.5102Z" fill="white"/>
<path d="M26.4715 26.4386H22.6489V13.6602H26.4715V26.4386Z" fill="white"/>
<path d="M40.6289 24.6195C40.6289 26.4177 40.499 27.5655 39.914 28.5834C38.9823 30.0995 36.795 31.421 33.8268 31.421C29.6461 31.421 28.0647 28.9086 27.8264 27.1973H31.9855C32.5053 28.3888 33.8483 28.3888 34.0866 28.3888C34.5417 28.3888 37.0111 28.3457 37.0111 25.1177V24.7494H36.968C36.5997 25.4428 35.5603 26.4608 33.6753 26.4608C30.4041 26.4608 27.6096 23.9914 27.6096 20.1352C27.6096 16.0192 30.5556 13.6582 33.6753 13.6582C35.0184 13.6582 36.3399 14.1348 36.9895 15.1743H37.0326V13.6582H40.6283V24.6189L40.6289 24.6195ZM34.0873 23.1034C35.8201 23.1034 37.0333 21.8472 37.0333 20.1143C37.0333 18.1862 35.7118 17.0168 34.1088 17.0168C32.5059 17.0168 31.2059 18.2515 31.2059 20.0059C31.2059 21.934 32.5921 23.1034 34.0873 23.1034Z" fill="white"/>
<path d="M24.5604 12.2381C26.283 12.2381 27.6795 10.8416 27.6795 9.11904C27.6795 7.39644 26.283 6 24.5604 6C22.8378 6 21.4414 7.39644 21.4414 9.11904C21.4414 10.8416 22.8378 12.2381 24.5604 12.2381Z" fill="white"/>
<path d="M26.7678 36.4868C27.7161 36.4868 28.4848 35.718 28.4848 34.7698C28.4848 33.8215 27.7161 33.0527 26.7678 33.0527C25.8195 33.0527 25.0508 33.8215 25.0508 34.7698C25.0508 35.718 25.8195 36.4868 26.7678 36.4868Z" fill="#80A8FF"/>
<path d="M27.865 45.5868H25.6682V37.6045H27.865V45.5868Z" fill="#F47820"/>
<path d="M26.7678 36.4868C27.7161 36.4868 28.4848 35.718 28.4848 34.7698C28.4848 33.8215 27.7161 33.0527 26.7678 33.0527C25.8195 33.0527 25.0508 33.8215 25.0508 34.7698C25.0508 35.718 25.8195 36.4868 26.7678 36.4868Z" fill="#F47820"/>
<path d="M12 45.587V27.1973H14.2393V35.0212H14.2824C15.2515 33.6648 16.7587 33.0405 18.3731 33.0405C21.5377 33.0405 24.5522 35.6455 24.5522 39.3273C24.5522 42.7722 21.9041 45.5927 18.4162 45.5927C17.3184 45.5927 15.4879 45.2048 14.2608 43.5689H14.2177V45.5876H12V45.587ZM18.2438 43.5467C20.3969 43.5467 22.3129 41.6953 22.3129 39.3267C22.3129 37.0874 20.5902 35.0852 18.2438 35.0852C15.8974 35.0852 14.1746 37.1736 14.1746 39.2836C14.1746 41.9748 16.2415 43.5467 18.2438 43.5467Z" fill="#F47820"/>
<path d="M38.0282 33.0586V35.3429L31.915 43.4387H38.0663V45.5873H28.9976V43.7556L35.4505 35.2072H29.6174V33.0586H38.0282Z" fill="#F47820"/>
</svg>
